<svg width="42" height="42" viewBox="0 0 42 42" fill="none" xmlns="http://www.w3.org/2000/svg">
<path d="M40.4768 5.12132C41.6484 3.94975 41.6484 2.05025 40.4768 0.87868C39.3052 -0.292893 37.4057 -0.292893 36.2341 0.87868L40.4768 5.12132ZM0.000131494 38.3553C0.000130904 40.0122 1.34328 41.3553 3.00013 41.3553L30.0001 41.3553C31.657 41.3553 33.0001 40.0122 33.0001 38.3553C33.0001 36.6985 31.657 35.3553 30.0001 35.3553H6.00013V11.3553C6.00013 9.69848 4.65699 8.35534 3.00013 8.35534C1.34327 8.35534 0.000129808 9.69848 0.000129808 11.3553L0.000131494 38.3553ZM36.2341 0.87868L0.87881 36.234L5.12145 40.4767L40.4768 5.12132L36.2341 0.87868Z" fill="white"/>
</svg>
