<svg width="64" height="64" viewBox="0 0 64 64" fill="none" xmlns="http://www.w3.org/2000/svg">
<circle cx="32" cy="32" r="31.5" stroke="#5CD180"/>
<path d="M43 23C43 21.8954 42.1046 21 41 21L23 21C21.8954 21 21 21.8954 21 23C21 24.1046 21.8954 25 23 25L39 25L39 41C39 42.1046 39.8954 43 41 43C42.1046 43 43 42.1046 43 41L43 23ZM21.5858 39.5858C20.8047 40.3668 20.8047 41.6332 21.5858 42.4142C22.3668 43.1953 23.6332 43.1953 24.4142 42.4142L21.5858 39.5858ZM39.5858 21.5858L21.5858 39.5858L24.4142 42.4142L42.4142 24.4142L39.5858 21.5858Z" fill="#5CD180"/>
</svg>
