<svg width="400" height="400" viewBox="0 0 400 400" fill="none" xmlns="http://www.w3.org/2000/svg">
<circle cx="200" cy="200" r="190" fill="#5CD180" stroke="white" stroke-width="20"/>
<path d="M78.0749 187.601L49.8051 185.664L51.1552 165.955L54.8865 166.21L53.8641 181.135L62.4241 181.721L63.3352 168.421L67.0225 168.673L66.1114 181.974L74.7153 182.563L75.7376 167.638L79.425 167.891L78.0749 187.601Z" fill="white"/>
<path d="M80.8723 159.812L73.1468 149.033L61.0699 153.26L62.6147 148.349L70.7779 145.566L65.6778 138.611L67.2226 133.7L74.718 144.038L87.2099 139.665L85.6519 144.618L77.1157 147.56L82.4303 154.859L80.8723 159.812Z" fill="white"/>
<path d="M98.9611 136.643L73.0019 120.9L75.1466 117.364L77.0517 118.21C76.8111 116.967 76.8042 115.762 77.0311 114.596C77.258 113.43 77.7669 112.195 78.5579 110.89C80.1094 108.332 82.0209 106.764 84.2925 106.186C86.539 105.593 89.2674 106.27 92.4778 108.217C95.6883 110.164 97.6473 112.364 98.3551 114.817C99.0378 117.255 98.6034 119.754 97.0519 122.312C95.7438 124.469 94.1241 126.008 92.193 126.93L101.448 132.543L98.9611 136.643ZM93.328 121.494C95.4271 118.033 94.2946 114.979 89.9304 112.333C87.8236 111.055 86.0955 110.539 84.7461 110.784C83.3716 111.014 82.1292 112.044 81.0188 113.875C79.9084 115.706 79.6076 117.616 80.1163 119.606L89.0328 125.013C89.8592 124.725 90.6358 124.322 91.3627 123.802C92.0797 123.242 92.7348 122.473 93.328 121.494Z" fill="white"/>
<path d="M111.796 103.055C110.647 104.31 109.472 104.984 108.272 105.078C107.05 105.153 105.726 104.536 104.298 103.229L86.0939 86.558L89.333 83.021L107.212 99.3947C107.818 99.9494 108.328 100.218 108.743 100.199C109.157 100.181 109.562 99.9558 109.959 99.5232C110.434 99.004 110.825 98.447 111.131 97.8522L113.694 100.2C113.469 100.75 113.2 101.239 112.887 101.668C112.615 102.095 112.251 102.557 111.796 103.055Z" fill="white"/>
<path d="M128.35 88.3672C125.323 90.5884 122.544 91.4628 120.015 90.9904C117.509 90.5006 115.223 88.8485 113.158 86.0342C111.093 83.2198 110.215 80.5353 110.523 77.9805C110.832 75.4257 112.488 73.0464 115.491 70.8426C118.518 68.6214 121.297 67.7471 123.826 68.2195C126.356 68.6919 128.653 70.3353 130.718 73.1496C132.783 75.964 133.662 78.6485 133.353 81.2033C133.068 83.7407 131.401 86.1287 128.35 88.3672ZM125.955 85.1035C127.729 83.8021 128.67 82.4567 128.778 81.0673C128.893 79.637 128.239 77.9522 126.816 76.0129C125.393 74.0736 123.991 72.9559 122.609 72.6598C121.252 72.3463 119.686 72.8403 117.912 74.1418C116.162 75.4259 115.221 76.7713 115.089 78.178C114.98 79.5673 115.637 81.2317 117.06 83.1709C118.483 85.1102 119.882 86.2484 121.258 86.5856C122.639 86.8817 124.205 86.3877 125.955 85.1035Z" fill="white"/>
<path d="M145.424 77.2241L136.831 58.2207L140.84 56.4078L142.078 58.5041C142.721 57.5051 143.561 56.4811 144.6 55.4319C145.639 54.3828 146.73 53.4867 147.875 52.7436L149.38 56.0712C148.692 56.5433 147.967 57.1123 147.206 57.7785C146.46 58.4058 145.772 59.055 145.141 59.7263C144.499 60.3708 143.983 60.9743 143.594 61.5367L149.794 75.248L145.424 77.2241Z" fill="white"/>
<path d="M174.708 67.4232C171.162 68.2325 168.218 67.9867 165.875 66.686C163.532 65.3853 161.95 62.9333 161.127 59.3299C160.383 56.0697 160.625 53.3066 161.853 51.0406C163.081 48.7746 165.383 47.2566 168.757 46.4865C171.846 45.7817 174.348 46.0681 176.264 47.3458C178.203 48.5884 179.462 50.4823 180.043 53.0275L180.905 56.8025L166.019 60.1993C166.698 62.1204 167.723 63.3156 169.094 63.7851C170.465 64.2545 172.38 64.2086 174.84 63.6474C175.869 63.4125 176.904 63.0709 177.945 62.6227C178.986 62.1745 179.871 61.7018 180.6 61.2045L181.384 64.6363C180.56 65.2455 179.57 65.7872 178.415 66.2615C177.288 66.7293 176.052 67.1165 174.708 67.4232ZM165.324 57.1536L176.091 54.6965L175.768 53.2809C175.449 51.8796 174.815 50.881 173.866 50.285C172.911 49.6605 171.519 49.5571 169.688 49.9747C167.515 50.4707 166.121 51.2852 165.507 52.4182C164.922 53.5447 164.861 55.1231 165.324 57.1536Z" fill="white"/>
<path d="M207.023 63.657L222.335 37.4724L227.631 38.3502L233.589 68.0604L228.727 67.2546L227.143 59.5884L215.901 57.7249L211.928 64.4701L207.023 63.657ZM217.243 54.2009L226.966 55.8126L224.227 42.2015L217.243 54.2009Z" fill="white"/>
<path d="M246.971 73.9158C245.392 73.2838 244.346 72.4231 243.834 71.3336C243.333 70.2169 243.442 68.7598 244.161 66.9624L253.331 44.0448L257.784 45.8264L248.777 68.3355C248.472 69.098 248.401 69.67 248.565 70.0513C248.728 70.4326 249.082 70.7322 249.627 70.9502C250.281 71.2117 250.94 71.3806 251.604 71.4569L250.313 74.6842C249.719 74.6678 249.166 74.5888 248.654 74.4471C248.159 74.3435 247.598 74.1664 246.971 73.9158Z" fill="white"/>
<path d="M262.633 81.768C261.16 80.9155 260.249 79.9134 259.899 78.7616C259.564 77.5845 259.881 76.1582 260.851 74.4828L273.22 53.1212L277.37 55.5243L265.222 76.5052C264.811 77.216 264.658 77.7718 264.765 78.1726C264.872 78.5735 265.179 78.9209 265.687 79.2148C266.296 79.5676 266.924 79.8295 267.571 80.0005L265.829 83.0087C265.244 82.9071 264.708 82.7494 264.222 82.5356C263.746 82.3619 263.216 82.106 262.633 81.768Z" fill="white"/>
<path d="M287.856 101.715C286.217 99.954 285.065 98.221 284.4 96.516L287.364 93.7582C287.628 94.4734 288.005 95.2445 288.495 96.0716C289.025 96.9001 289.61 97.6579 290.25 98.345C291.589 99.7837 292.808 100.512 293.907 100.531C295.048 100.551 296.273 99.9521 297.583 98.7331L311.949 85.364L315.216 88.8749L300.271 102.784C298.295 104.622 296.252 105.462 294.14 105.303C292.049 105.166 289.954 103.969 287.856 101.715Z" fill="white"/>
<path d="M305.27 124.664C303.375 121.423 302.793 118.569 303.525 116.102C304.272 113.661 306.152 111.559 309.166 109.797C312.179 108.035 314.94 107.44 317.449 108.011C319.958 108.583 322.153 110.477 324.033 113.693C325.929 116.934 326.51 119.788 325.778 122.255C325.046 124.722 323.173 126.836 320.16 128.598C317.147 130.36 314.385 130.955 311.876 130.384C309.382 129.837 307.18 127.931 305.27 124.664ZM308.764 122.621C309.875 124.52 311.115 125.596 312.486 125.848C313.897 126.11 315.64 125.634 317.717 124.42C319.793 123.206 321.05 121.927 321.488 120.584C321.941 119.266 321.612 117.657 320.501 115.758C319.405 113.884 318.165 112.809 316.779 112.531C315.409 112.28 313.685 112.761 311.609 113.975C309.532 115.189 308.255 116.463 307.777 117.795C307.34 119.139 307.669 120.747 308.764 122.621Z" fill="white"/>
<path d="M317.591 153.718C317.169 152.253 317 150.927 317.086 149.743C317.172 148.558 317.493 147.397 318.051 146.259L315.99 146.578L314.844 142.604L343.339 134.388L344.668 138.996L334.902 141.812C336.562 143.226 337.745 145.159 338.452 147.611C339.273 150.458 339.101 152.935 337.938 155.041C336.811 157.167 334.444 158.75 330.836 159.79C327.2 160.839 324.287 160.793 322.096 159.654C319.906 158.515 318.404 156.537 317.591 153.718ZM320.704 151.493C321.306 153.578 322.32 154.873 323.748 155.377C325.184 155.91 327.099 155.831 329.495 155.14C331.975 154.425 333.589 153.456 334.335 152.233C335.082 151.01 335.166 149.398 334.589 147.397C333.988 145.312 332.923 143.787 331.393 142.824L321.331 145.725C320.304 147.456 320.095 149.379 320.704 151.493Z" fill="white"/>
<path d="M321.807 179.095C321.731 177.66 321.762 176.278 321.898 174.949C322.035 173.649 322.228 172.567 322.477 171.702L326.519 171.49C326.19 172.506 325.955 173.62 325.813 174.832C325.671 176.043 325.628 177.191 325.685 178.275C325.771 179.915 325.979 181.079 326.309 181.767C326.638 182.455 327.228 182.776 328.078 182.732C328.693 182.7 329.165 182.455 329.493 181.997C329.823 181.568 330.112 180.922 330.361 180.057C330.611 179.221 330.907 178.148 331.249 176.838C331.595 175.586 331.978 174.494 332.4 173.561C332.85 172.627 333.443 171.891 334.178 171.353C334.914 170.815 335.897 170.514 337.127 170.449C339.031 170.35 340.532 170.961 341.629 172.284C342.756 173.606 343.399 175.79 343.559 178.836C343.622 180.037 343.594 181.184 343.475 182.277C343.356 183.37 343.185 184.305 342.961 185.08L338.962 185.29C339.242 184.453 339.443 183.531 339.567 182.526C339.692 181.55 339.732 180.638 339.687 179.788C339.608 178.265 339.415 177.115 339.11 176.338C338.807 175.59 338.259 175.237 337.468 175.278C336.648 175.321 336.083 175.747 335.773 176.557C335.494 177.394 335.108 178.721 334.616 180.539C334.204 182.205 333.745 183.536 333.239 184.532C332.733 185.528 332.095 186.252 331.326 186.703C330.587 187.183 329.603 187.455 328.373 187.519C326.322 187.626 324.745 186.96 323.641 185.52C322.567 184.078 321.956 181.937 321.807 179.095Z" fill="white"/>
<path d="M78.0749 211.927L49.8051 213.864L51.1552 233.574L54.8865 233.318L53.8641 218.393L62.4241 217.807L63.3352 231.107L67.0225 230.855L66.1114 217.554L74.7153 216.965L75.7376 231.89L79.425 231.637L78.0749 211.927Z" fill="white"/>
<path d="M80.8723 239.716L73.1468 250.495L61.0699 246.269L62.6147 251.179L70.7779 253.962L65.6778 260.917L67.2226 265.828L74.718 255.49L87.2099 259.863L85.6519 254.91L77.1157 251.968L82.4303 244.669L80.8723 239.716Z" fill="white"/>
<path d="M98.9611 262.885L73.0019 278.628L75.1466 282.164L77.0517 281.318C76.8111 282.561 76.8042 283.766 77.0311 284.932C77.258 286.098 77.7669 287.334 78.5579 288.638C80.1094 291.196 82.0209 292.764 84.2925 293.342C86.539 293.935 89.2674 293.258 92.4778 291.311C95.6883 289.364 97.6473 287.164 98.3551 284.711C99.0378 282.273 98.6034 279.774 97.0519 277.216C95.7438 275.059 94.1241 273.52 92.193 272.598L101.448 266.986L98.9611 262.885ZM93.328 278.034C95.4271 281.495 94.2946 284.549 89.9304 287.195C87.8236 288.473 86.0955 288.989 84.7461 288.744C83.3716 288.514 82.1292 287.484 81.0188 285.653C79.9084 283.822 79.6076 281.912 80.1163 279.922L89.0328 274.515C89.8592 274.803 90.6358 275.207 91.3627 275.726C92.0797 276.286 92.7348 277.055 93.328 278.034Z" fill="white"/>
<path d="M111.796 296.473C110.647 295.218 109.472 294.544 108.272 294.45C107.05 294.375 105.726 294.992 104.298 296.299L86.0939 312.97L89.333 316.507L107.212 300.133C107.818 299.579 108.328 299.31 108.743 299.329C109.157 299.347 109.562 299.572 109.959 300.005C110.434 300.524 110.825 301.081 111.131 301.676L113.694 299.328C113.469 298.779 113.2 298.289 112.887 297.86C112.615 297.433 112.251 296.971 111.796 296.473Z" fill="white"/>
<path d="M128.35 311.161C125.323 308.94 122.544 308.065 120.015 308.538C117.509 309.027 115.223 310.68 113.158 313.494C111.093 316.308 110.215 318.993 110.523 321.548C110.832 324.102 112.488 326.482 115.491 328.685C118.518 330.907 121.297 331.781 123.826 331.309C126.356 330.836 128.653 329.193 130.718 326.378C132.783 323.564 133.662 320.88 133.353 318.325C133.068 315.787 131.401 313.399 128.35 311.161ZM125.955 314.425C127.729 315.726 128.67 317.071 128.778 318.461C128.893 319.891 128.239 321.576 126.816 323.515C125.393 325.455 123.991 326.572 122.609 326.868C121.252 327.182 119.686 326.688 117.912 325.386C116.162 324.102 115.221 322.757 115.089 321.35C114.98 319.961 115.637 318.296 117.06 316.357C118.483 314.418 119.882 313.28 121.258 312.943C122.639 312.646 124.205 313.14 125.955 314.425Z" fill="white"/>
<path d="M145.424 322.304L136.831 341.307L140.84 343.12L142.078 341.024C142.721 342.023 143.561 343.047 144.6 344.096C145.639 345.145 146.73 346.041 147.875 346.784L149.38 343.457C148.692 342.985 147.967 342.416 147.206 341.75C146.46 341.122 145.772 340.473 145.141 339.802C144.499 339.157 143.983 338.554 143.594 337.991L149.794 324.28L145.424 322.304Z" fill="white"/>
<path d="M174.708 332.105C171.162 331.296 168.218 331.541 165.875 332.842C163.532 334.143 161.95 336.595 161.127 340.198C160.383 343.458 160.625 346.221 161.853 348.487C163.081 350.753 165.383 352.271 168.757 353.042C171.846 353.746 174.348 353.46 176.264 352.182C178.203 350.94 179.462 349.046 180.043 346.501L180.905 342.726L166.019 339.329C166.698 337.408 167.723 336.212 169.094 335.743C170.465 335.274 172.38 335.319 174.84 335.881C175.869 336.116 176.904 336.457 177.945 336.905C178.986 337.354 179.871 337.826 180.6 338.324L181.384 334.892C180.56 334.283 179.57 333.741 178.415 333.267C177.288 332.799 176.052 332.412 174.708 332.105ZM165.324 342.374L176.091 344.832L175.768 346.247C175.449 347.648 174.815 348.647 173.866 349.243C172.911 349.868 171.519 349.971 169.688 349.553C167.515 349.057 166.121 348.243 165.507 347.11C164.922 345.983 164.861 344.405 165.324 342.374Z" fill="white"/>
<path d="M207.023 335.871L222.335 362.056L227.631 361.178L233.589 331.468L228.727 332.274L227.143 339.94L215.901 341.803L211.928 335.058L207.023 335.871ZM217.243 345.327L226.966 343.715L224.227 357.327L217.243 345.327Z" fill="white"/>
<path d="M246.971 325.612C245.392 326.244 244.346 327.105 243.834 328.194C243.333 329.311 243.442 330.768 244.161 332.566L253.331 355.483L257.784 353.702L248.777 331.193C248.472 330.43 248.401 329.858 248.565 329.477C248.728 329.095 249.082 328.796 249.627 328.578C250.281 328.316 250.94 328.147 251.604 328.071L250.313 324.844C249.719 324.86 249.166 324.939 248.654 325.081C248.159 325.185 247.598 325.362 246.971 325.612Z" fill="white"/>
<path d="M262.633 317.76C261.16 318.613 260.249 319.615 259.899 320.766C259.564 321.944 259.881 323.37 260.851 325.045L273.22 346.407L277.37 344.004L265.222 323.023C264.811 322.312 264.658 321.756 264.765 321.355C264.872 320.955 265.179 320.607 265.687 320.313C266.296 319.961 266.924 319.699 267.571 319.528L265.829 316.519C265.244 316.621 264.708 316.779 264.222 316.992C263.746 317.166 263.216 317.422 262.633 317.76Z" fill="white"/>
<path d="M287.856 297.813C286.217 299.574 285.065 301.307 284.4 303.012L287.364 305.77C287.628 305.055 288.005 304.284 288.495 303.457C289.025 302.628 289.61 301.87 290.25 301.183C291.589 299.744 292.808 299.016 293.907 298.997C295.048 298.977 296.273 299.576 297.583 300.795L311.949 314.164L315.216 310.653L300.271 296.745C298.295 294.906 296.252 294.066 294.14 294.225C292.049 294.363 289.954 295.559 287.856 297.813Z" fill="white"/>
<path d="M305.27 274.864C303.375 278.105 302.793 280.959 303.525 283.426C304.272 285.868 306.152 287.969 309.166 289.731C312.179 291.493 314.94 292.089 317.449 291.517C319.958 290.945 322.153 289.051 324.033 285.836C325.929 282.594 326.51 279.74 325.778 277.273C325.046 274.806 323.173 272.692 320.16 270.93C317.147 269.168 314.385 268.573 311.876 269.144C309.382 269.691 307.18 271.597 305.27 274.864ZM308.764 276.907C309.875 275.008 311.115 273.932 312.486 273.68C313.897 273.418 315.64 273.894 317.717 275.108C319.793 276.322 321.05 277.601 321.488 278.944C321.941 280.262 321.612 281.871 320.501 283.77C319.405 285.644 318.165 286.719 316.779 286.997C315.409 287.249 313.685 286.767 311.609 285.553C309.532 284.339 308.255 283.066 307.777 281.733C307.34 280.389 307.669 278.781 308.764 276.907Z" fill="white"/>
<path d="M317.591 245.81C317.169 247.275 317 248.601 317.086 249.786C317.172 250.97 317.493 252.132 318.051 253.269L315.99 252.95L314.844 256.924L343.339 265.14L344.668 260.532L334.902 257.716C336.562 256.302 337.745 254.369 338.452 251.917C339.273 249.07 339.101 246.594 337.938 244.487C336.811 242.361 334.444 240.778 330.836 239.738C327.2 238.689 324.287 238.735 322.096 239.874C319.906 241.013 318.404 242.991 317.591 245.81ZM320.704 248.036C321.306 245.95 322.32 244.655 323.748 244.151C325.184 243.618 327.099 243.697 329.495 244.388C331.975 245.103 333.589 246.072 334.335 247.295C335.082 248.518 335.166 250.13 334.589 252.131C333.988 254.217 332.923 255.741 331.393 256.704L321.331 253.803C320.304 252.072 320.095 250.149 320.704 248.036Z" fill="white"/>
<path d="M321.807 220.433C321.731 221.868 321.762 223.25 321.898 224.579C322.035 225.879 322.228 226.961 322.477 227.826L326.519 228.038C326.19 227.022 325.955 225.908 325.813 224.696C325.671 223.485 325.628 222.337 325.685 221.253C325.771 219.613 325.979 218.449 326.309 217.761C326.638 217.073 327.228 216.752 328.078 216.796C328.693 216.828 329.165 217.073 329.493 217.531C329.823 217.96 330.112 218.607 330.361 219.471C330.611 220.307 330.907 221.38 331.249 222.69C331.595 223.942 331.978 225.034 332.4 225.967C332.85 226.901 333.443 227.637 334.178 228.175C334.914 228.713 335.897 229.014 337.127 229.079C339.031 229.179 340.532 228.567 341.629 227.244C342.756 225.922 343.399 223.738 343.559 220.692C343.622 219.491 343.594 218.344 343.475 217.251C343.356 216.158 343.185 215.223 342.961 214.448L338.962 214.238C339.242 215.076 339.443 215.997 339.567 217.002C339.692 217.978 339.732 218.89 339.687 219.74C339.608 221.263 339.415 222.413 339.11 223.19C338.807 223.938 338.259 224.291 337.468 224.25C336.648 224.207 336.083 223.781 335.773 222.971C335.494 222.134 335.108 220.807 334.616 218.989C334.204 217.323 333.745 215.992 333.239 214.996C332.733 214 332.095 213.276 331.326 212.825C330.587 212.345 329.603 212.074 328.373 212.009C326.322 211.902 324.745 212.568 323.641 214.008C322.567 215.45 321.956 217.592 321.807 220.433Z" fill="white"/>
</svg>
