<svg width="34" height="34" viewBox="0 0 34 34" fill="none" xmlns="http://www.w3.org/2000/svg">
<path d="M13.8906 18.5403H20.1095C20.3866 18.5403 20.6114 18.3156 20.6114 18.0385C20.6114 17.7614 20.3866 17.5366 20.1095 17.5366H13.8906C13.6135 17.5366 13.3887 17.7614 13.3887 18.0385C13.3887 18.3156 13.6135 18.5403 13.8906 18.5403Z" fill="#2C3E50" stroke="#2C3E50" stroke-width="0.4"/>
<path d="M9.70411 16.1251H24.2961C24.5732 16.1251 24.798 15.9003 24.798 15.6232C24.798 15.3461 24.5732 15.1213 24.2961 15.1213H9.70411C9.42701 15.1213 9.20222 15.3461 9.20222 15.6232C9.20222 15.9003 9.42701 16.1251 9.70411 16.1251Z" fill="#2C3E50" stroke="#2C3E50" stroke-width="0.4"/>
<path d="M18.389 6.90607L18.389 6.90627L18.8205 7.30227C18.841 7.3065 18.8615 7.30831 18.8814 7.30831C19.0221 7.30831 19.1477 7.2099 19.1767 7.0668L19.3727 7.10679C19.3727 7.10674 19.3727 7.10669 19.3727 7.10663C19.5337 6.31722 19.0445 5.5533 18.2598 5.36986L18.2143 5.56461L18.2604 5.37C17.9887 5.30559 17.7197 5.47509 17.6567 5.74421C17.5934 6.01423 17.7611 6.28421 18.031 6.34742L18.031 6.34743C18.2844 6.4067 18.441 6.6511 18.389 6.90607Z" fill="#2C3E50" stroke="#2C3E50" stroke-width="0.4"/>
<path d="M16.3024 11.3632L16.2921 11.3631C15.79 11.3578 15.3258 11.193 14.9542 10.8969L14.9464 10.8907L14.9393 10.8838L14.6706 10.6224L14.6623 10.6143L14.655 10.6054C14.3045 10.1748 14.1194 9.66559 14.1114 9.14294L14.1113 9.13295L14.1115 9.13296L14.1248 8.75017L14.1251 8.74118L14.1262 8.73225C14.2208 7.97685 14.5165 7.29052 14.9827 6.72178L14.9859 6.71785L14.986 6.71789L15.2565 6.40453L15.2579 6.40288L15.2579 6.40289C15.7936 5.79578 16.5303 5.41229 17.3324 5.32095L17.3369 5.32044L17.3369 5.32049C17.6718 5.29004 17.973 5.30334 18.256 5.36748M16.3024 11.3632L18.2118 5.56254M16.3024 11.3632L16.3126 11.3623M16.3024 11.3632L16.3126 11.3623M18.256 5.36748L18.2118 5.56254M18.256 5.36748C18.2559 5.36747 18.2559 5.36746 18.2559 5.36745L18.2118 5.56254M18.256 5.36748C18.5261 5.42858 18.6964 5.69638 18.6351 5.96706M18.2118 5.56254C18.3748 5.59937 18.4768 5.76057 18.44 5.92299M18.6351 5.96706L18.44 5.92299M18.6351 5.96706C18.6351 5.96712 18.6351 5.96717 18.6351 5.96722L18.44 5.92299M18.6351 5.96706C18.5737 6.23877 18.3044 6.40551 18.0366 6.34654L18.0358 6.34638C17.8644 6.308 17.6699 6.29811 17.4368 6.31881C16.8898 6.38128 16.382 6.64561 16.0131 7.06287L15.7523 7.36498C15.4139 7.77793 15.1957 8.28313 15.1256 8.82098L15.1146 9.14624C15.1204 9.42211 15.2227 9.70834 15.4045 9.93783L15.6092 10.1358C15.7789 10.2661 16.0187 10.3529 16.2648 10.3586L16.6312 10.326C16.7741 10.2981 16.9356 10.2397 17.0868 10.1541L18.44 5.92299M17.5971 10.4416C17.6792 10.5865 17.6285 10.7707 17.4836 10.8534C17.2518 10.985 17.0006 11.0756 16.738 11.1221L17.5971 10.4416ZM17.5971 10.4416C17.5144 10.2961 17.3303 10.246 17.1854 10.3281L17.5971 10.4416ZM16.3126 11.3623L16.7564 11.3212L16.7647 11.3205L16.7728 11.319C17.058 11.2686 17.3307 11.1702 17.5824 11.0273L17.5828 11.0271C17.8232 10.8899 17.9077 10.584 17.7711 10.343L17.771 10.3428M16.3126 11.3623L17.771 10.3428M17.771 10.3428C17.6335 10.101 17.3273 10.0178 17.0868 10.1541L17.771 10.3428Z" fill="#2C3E50" stroke="#2C3E50" stroke-width="0.4"/>
<path d="M18.1654 7.87133L18.1655 7.87108C18.2472 7.54143 18.3263 7.21977 18.3887 6.9074L18.1654 7.87133ZM18.1654 7.87133L18.1636 7.87865C18.0026 8.53259 17.8312 9.22835 17.7816 9.91164M18.1654 7.87133L17.7816 9.91164M19.3727 7.10391L19.3727 7.10405C19.3101 7.41671 19.2319 7.73647 19.1539 8.05472C19.1494 8.07349 19.1448 8.09224 19.1402 8.11099L19.1401 8.11128C18.9828 8.75031 18.8257 9.38948 18.7825 9.98408C18.7732 10.1151 18.7843 10.1814 18.7965 10.2158C18.8057 10.2416 18.8174 10.2566 18.8451 10.2769L18.8453 10.2771C18.9714 10.3699 19.0929 10.3934 19.253 10.3516C19.5169 10.2818 19.8248 10.0431 20.1114 9.72076C20.3931 9.40392 20.6281 9.03601 20.7538 8.75327L20.7538 8.75324C21.2192 7.70638 21.0815 6.46692 20.4111 5.59851L20.4111 5.59844C19.3715 4.2505 17.6096 4.04581 16.2787 4.32618L19.3727 7.10391ZM19.3727 7.10391C19.4268 6.83253 19.2515 6.56833 18.9796 6.51379M19.3727 7.10391L18.9796 6.51379M12.9831 9.18481L12.9831 9.18486C13.0943 10.5594 13.8341 11.6601 15.0084 12.2198L15.0084 12.2198C15.8488 12.6206 16.9345 12.8159 17.9988 12.7272C19.063 12.6385 20.0867 12.2678 20.8205 11.5586C21.0195 11.3659 21.3376 11.3711 21.5303 11.5708C21.7225 11.77 21.718 12.0874 21.5181 12.2803C20.4541 13.3102 18.9368 13.7457 17.4769 13.7457C16.4367 13.7457 15.4112 13.5249 14.5766 13.1267C13.0671 12.4067 12.1232 10.9949 11.9831 9.26665C11.7539 6.44438 13.4975 3.88767 16.0723 3.34431M12.9831 9.18481L19.5096 11.3222C19.5097 11.3222 19.5097 11.3222 19.5098 11.3221M12.9831 9.18481C12.7926 6.83575 14.2254 4.75942 16.2786 4.32619L12.9831 9.18481ZM16.0723 3.34431L16.1136 3.54L16.0722 3.34433C16.0722 3.34432 16.0723 3.34431 16.0723 3.34431ZM16.0723 3.34431C18.1081 2.91366 20.0833 3.52977 21.2066 4.98583C22.1039 6.14864 22.2837 7.78607 21.6717 9.16153C21.539 9.45985 21.26 9.92546 20.8908 10.3505C20.5247 10.7718 20.0467 11.1803 19.5098 11.3221M19.5098 11.3221C19.0618 11.4414 18.6218 11.3594 18.25 11.0851M19.5098 11.3221L18.25 11.0851M18.25 11.0851C17.7714 10.7321 17.7593 10.2179 17.7816 9.91164M18.25 11.0851L17.7816 9.91164M18.9796 6.51379C18.7053 6.45767 18.4427 6.63676 18.3887 6.90733L18.9796 6.51379Z" fill="#2C3E50" stroke="#2C3E50" stroke-width="0.4"/>
<path d="M16.8974 10.838L16.8974 10.838C16.762 10.5963 16.8481 10.2904 17.0892 10.1548L17.0896 10.1546L17.0896 10.1546C17.4401 9.9584 17.722 9.6657 17.9064 9.30809C18.0325 9.06079 18.3359 8.96381 18.5825 9.09175C18.8295 9.21863 18.9255 9.52177 18.7983 9.76758M16.8974 10.838L18.0844 9.39928C18.1599 9.25075 18.3423 9.19218 18.4908 9.26947C18.6393 9.34554 18.6973 9.52788 18.6206 9.67581C18.364 10.1739 17.9703 10.5815 17.4819 10.8556M16.8974 10.838L16.8977 10.8386C16.9901 11.0023 17.1608 11.0942 17.3358 11.0942C17.4171 11.0942 17.5024 11.0745 17.5808 11.0294M16.8974 10.838L17.0719 10.7403M18.7983 9.76758C18.7982 9.76767 18.7982 9.76776 18.7981 9.76785L18.6206 9.67581L18.7984 9.7674C18.7984 9.76746 18.7983 9.76752 18.7983 9.76758ZM18.7983 9.76758C18.5239 10.3002 18.1028 10.7362 17.5808 11.0294M17.5808 11.0294C17.5812 11.0292 17.5816 11.0289 17.5821 11.0287L17.4819 10.8556M17.5808 11.0294C17.5804 11.0296 17.5801 11.0298 17.5798 11.03L17.4819 10.8556M17.4819 10.8556C17.436 10.8821 17.3853 10.8942 17.3358 10.8942C17.2301 10.8942 17.1275 10.8387 17.0719 10.7403M17.0719 10.7403C16.9904 10.5947 17.0423 10.4106 17.1872 10.3291L17.0719 10.7403Z" fill="#2C3E50" stroke="#2C3E50" stroke-width="0.4"/>
<path d="M29.7812 32.6982C29.7812 32.9753 30.006 33.2001 30.2831 33.2001C31.8915 33.2001 33.2001 31.8915 33.2001 30.2831C33.2001 30.006 32.9753 29.7812 32.6982 29.7812C32.4211 29.7812 32.1963 30.006 32.1963 30.2831C32.1963 31.3379 31.3379 32.1963 30.2831 32.1963C30.006 32.1963 29.7812 32.4211 29.7812 32.6982Z" fill="#2C3E50" stroke="#2C3E50" stroke-width="0.4"/>
<path d="M3.71705 33.2H30.2831C30.5602 33.2 30.785 32.9752 30.785 32.6981C30.785 32.421 30.5602 32.1962 30.2831 32.1962H3.71705C3.43995 32.1962 3.21516 32.421 3.21516 32.6981C3.21516 32.9752 3.43995 33.2 3.71705 33.2Z" fill="#2C3E50" stroke="#2C3E50" stroke-width="0.4"/>
<path d="M0.8 30.2831C0.8 31.8915 2.10856 33.2001 3.71698 33.2001C3.99408 33.2001 4.21887 32.9753 4.21887 32.6982C4.21887 32.4211 3.99408 32.1963 3.71698 32.1963C2.66215 32.1963 1.80377 31.3379 1.80377 30.2831C1.80377 30.006 1.57899 29.7812 1.30189 29.7812C1.02479 29.7812 0.8 30.006 0.8 30.2831Z" fill="#2C3E50" stroke="#2C3E50" stroke-width="0.4"/>
<path d="M0.8 30.283C0.8 30.5601 1.02479 30.7849 1.30189 30.7849C1.57899 30.7849 1.80377 30.5601 1.80377 30.283V12.1698C1.80377 11.8927 1.57899 11.6679 1.30189 11.6679C1.02479 11.6679 0.8 11.8927 0.8 12.1698V30.283Z" fill="#2C3E50" stroke="#2C3E50" stroke-width="0.4"/>
<path d="M32.1964 30.283C32.1964 30.5601 32.4211 30.7849 32.6982 30.7849C32.9753 30.7849 33.2001 30.5601 33.2001 30.283V12.1698C33.2001 11.8927 32.9753 11.6679 32.6982 11.6679C32.4212 11.6679 32.1964 11.8927 32.1964 12.1698V30.283Z" fill="#2C3E50" stroke="#2C3E50" stroke-width="0.4"/>
<path d="M2.25939 14.6968L2.25911 14.6966C1.35744 14.1762 0.821118 13.2301 0.821118 12.1711C0.821118 11.111 1.35789 10.1636 2.25897 9.64382C2.25903 9.64378 2.25909 9.64375 2.25915 9.64371L2.25939 14.6968ZM2.25939 14.6968C2.33898 14.7425 2.42484 14.7638 2.51002 14.7638M2.25939 14.6968L2.51002 14.7638M2.51002 14.7638C2.68306 14.7638 2.85214 14.6738 2.94484 14.5126M2.51002 14.7638L2.94484 14.5126M2.94484 14.5126L2.77146 14.4129L2.94484 14.5126Z" fill="#2C3E50" stroke="#2C3E50" stroke-width="0.4"/>
<path d="M31.0548 14.5129L31.055 14.5134C31.1482 14.6737 31.3168 14.7638 31.49 14.7638C31.5759 14.7638 31.6623 14.7416 31.7403 14.6966C32.6415 14.1768 33.1783 13.2294 33.1783 12.1693C33.1783 11.1102 32.642 10.1641 31.7403 9.64373L31.7403 9.64373L31.7397 9.6434C31.4991 9.50562 31.1942 9.58664 31.0549 9.82721L31.0548 9.82744C30.9162 10.0674 30.9985 10.3745 31.2384 10.513L31.2385 10.513C31.8228 10.8504 32.1745 11.4671 32.1745 12.1693C32.1745 12.8728 31.8233 13.49 31.2385 13.8273L31.2384 13.8273C30.9985 13.9658 30.9162 14.2729 31.0548 14.5129Z" fill="#2C3E50" stroke="#2C3E50" stroke-width="0.4"/>
<path d="M4.42268 2.50943C4.42268 2.78653 4.64747 3.01132 4.92457 3.01132C5.20167 3.01132 5.42645 2.78653 5.42645 2.50943C5.42645 2.12057 5.74325 1.80377 6.13211 1.80377C6.40921 1.80377 6.634 1.57899 6.634 1.30189C6.634 1.02479 6.40921 0.8 6.13211 0.8C5.18966 0.8 4.42268 1.56698 4.42268 2.50943Z" fill="#2C3E50" stroke="#2C3E50" stroke-width="0.4"/>
<path d="M4.42268 15.6539C4.42268 15.931 4.64747 16.1558 4.92457 16.1558C5.20141 16.1558 5.42645 15.9319 5.42645 15.6539V2.50916C5.42645 2.23206 5.20167 2.00728 4.92457 2.00728C4.64747 2.00728 4.42268 2.23206 4.42268 2.50916V15.6539Z" fill="#2C3E50" stroke="#2C3E50" stroke-width="0.4"/>
<path d="M31.9242 10.3287C32.0626 10.0887 31.9803 9.78174 31.7404 9.64322L31.7403 9.64318L29.3258 8.25028L29.3256 8.25013C29.0853 8.11194 28.7789 8.19397 28.6403 8.434C28.5018 8.67397 28.5841 8.98104 28.824 9.11958L28.8241 9.11962L31.2386 10.5125L31.2388 10.5127C31.3184 10.5584 31.4043 10.5797 31.4895 10.5797C31.6624 10.5797 31.8314 10.4898 31.9242 10.3287ZM31.9242 10.3287C31.9242 10.3286 31.9242 10.3286 31.9243 10.3285L31.7509 10.2288L31.9241 10.3288C31.9241 10.3288 31.9241 10.3287 31.9242 10.3287Z" fill="#2C3E50" stroke="#2C3E50" stroke-width="0.4"/>
<path d="M2.07568 10.3293L2.07539 10.3288C1.93683 10.0888 2.01913 9.78177 2.25907 9.64322L2.25914 9.64318L4.67325 8.2505C4.67332 8.25046 4.67339 8.25042 4.67346 8.25038L4.67363 8.25028L4.77357 8.42352C4.91727 8.34019 5.10202 8.3897 5.18595 8.53401L2.07568 10.3293ZM2.07568 10.3293C2.16886 10.4896 2.33741 10.5797 2.51063 10.5797C2.59466 10.5797 2.68176 10.559 2.76161 10.5121L2.07568 10.3293Z" fill="#2C3E50" stroke="#2C3E50" stroke-width="0.4"/>
<path d="M28.7052 29.1494L28.7058 29.1501C28.8046 29.2568 28.9398 29.3121 29.0754 29.3121C29.1959 29.3121 29.3181 29.2691 29.4149 29.1796C29.6191 28.9921 29.6333 28.675 29.4457 28.4704L29.2982 28.6055L29.4457 28.4704L21.5574 19.8654C21.5574 19.8654 21.5574 19.8654 21.5574 19.8654C21.3708 19.6618 21.0529 19.6465 20.8479 19.8344C20.6435 20.0218 20.6292 20.3391 20.8169 20.5438C20.8169 20.5439 20.8169 20.5439 20.8169 20.5439L28.7052 29.1494Z" fill="#2C3E50" stroke="#2C3E50" stroke-width="0.4"/>
<path d="M4.55435 28.4711L4.55399 28.4715C4.36787 28.6757 4.38042 28.9927 4.58535 29.1806C4.682 29.2692 4.80398 29.3122 4.92458 29.3122C5.0602 29.3122 5.19546 29.2569 5.29417 29.1502L5.2948 29.1496L13.1831 20.5446L13.1835 20.5442C13.3696 20.3401 13.357 20.023 13.1521 19.8351L13.1517 19.8348C12.9462 19.6473 12.6301 19.6627 12.443 19.8658L12.4427 19.8661L4.55435 28.4711Z" fill="#2C3E50" stroke="#2C3E50" stroke-width="0.4"/>
<path d="M2.25914 14.6968L2.25907 14.6968C2.01913 14.5582 1.93683 14.2511 2.07539 14.0112C2.2136 13.7718 2.51985 13.688 2.76102 13.8275L2.76091 13.8274L2.66097 14.0007L2.7612 13.8276L2.25914 14.6968ZM2.25914 14.6968L13.1276 20.9666C13.1277 20.9667 13.1279 20.9668 13.128 20.9668M2.25914 14.6968L13.128 20.9668M13.128 20.9668C13.2079 21.0133 13.2947 21.0342 13.3792 21.0342C13.5522 21.0342 13.7213 20.9442 13.814 20.7829C13.8139 20.7831 13.8139 20.7832 13.8138 20.7833L13.128 20.9668Z" fill="#2C3E50" stroke="#2C3E50" stroke-width="0.4"/>
<path d="M20.1856 20.7833L20.1859 20.7838C20.2791 20.9441 20.4476 21.0342 20.6209 21.0342C20.7057 21.0342 20.7919 21.013 20.8715 20.9668C20.8716 20.9667 20.8717 20.9667 20.8718 20.9666L31.7403 14.6968L31.7403 14.6968C31.9803 14.5582 32.0626 14.2511 31.924 14.0112L31.9237 14.0106C31.7852 13.7726 31.4789 13.6875 31.2382 13.8276C31.238 13.8278 31.2378 13.8279 31.2376 13.828L20.3694 20.0976L20.3693 20.0977C20.1294 20.2362 20.0471 20.5433 20.1856 20.7833Z" fill="#2C3E50" stroke="#2C3E50" stroke-width="0.4"/>
<path d="M13.1287 20.9668L13.1288 20.9668C14.3228 21.6555 15.6615 22 16.9999 22C18.3382 22 19.677 21.6562 20.871 20.9668L20.8711 20.9668C21.111 20.8282 21.1933 20.5211 21.0547 20.2812L21.0544 20.2806C20.9154 20.0416 20.6102 19.9589 20.3695 20.0973L20.3692 20.0975C18.2913 21.2965 15.7085 21.2965 13.6306 20.0975L13.6303 20.0973C13.39 19.9591 13.0836 20.0411 12.945 20.2812C12.8065 20.5211 12.8888 20.8282 13.1287 20.9668Z" fill="#2C3E50" stroke="#2C3E50" stroke-width="0.4"/>
<path d="M28.5736 15.6539C28.5736 15.931 28.7983 16.1558 29.0754 16.1558C29.3523 16.1558 29.5773 15.9319 29.5773 15.6539V2.50916C29.5773 2.23206 29.3525 2.00728 29.0754 2.00728C28.7983 2.00728 28.5736 2.23206 28.5736 2.50916V15.6539Z" fill="#2C3E50" stroke="#2C3E50" stroke-width="0.4"/>
<path d="M6.13209 1.80377H27.8679C28.145 1.80377 28.3698 1.57898 28.3698 1.30189C28.3698 1.02479 28.145 0.8 27.8679 0.8H6.13209C5.85499 0.8 5.6302 1.02479 5.6302 1.30189C5.6302 1.57899 5.85499 1.80377 6.13209 1.80377Z" fill="#2C3E50" stroke="#2C3E50" stroke-width="0.4"/>
<path d="M28.5736 2.50943C28.5736 2.78653 28.7984 3.01132 29.0755 3.01132C29.3526 3.01132 29.5774 2.78653 29.5774 2.50943C29.5774 1.56698 28.8104 0.8 27.8679 0.8C27.5908 0.8 27.366 1.02479 27.366 1.30189C27.366 1.57899 27.5908 1.80377 27.8679 1.80377C28.2568 1.80377 28.5736 2.12057 28.5736 2.50943Z" fill="#2C3E50" stroke="#2C3E50" stroke-width="0.4"/>
</svg>
