<svg width="66" height="66" viewBox="0 0 66 66" fill="none" xmlns="http://www.w3.org/2000/svg">
<path d="M26.7815 35.8806H39.2192C39.663 35.8806 40.023 35.5205 40.023 35.0768C40.023 34.6331 39.663 34.273 39.2192 34.273H26.7815C26.3378 34.273 25.9777 34.6331 25.9777 35.0768C25.9777 35.5205 26.3378 35.8806 26.7815 35.8806Z" fill="#2C3E50" stroke="#2C3E50" stroke-width="0.4"/>
<path d="M18.4085 31.0507H47.5925C48.0362 31.0507 48.3962 30.6906 48.3962 30.2469C48.3962 29.8032 48.0362 29.4431 47.5925 29.4431H18.4085C17.9647 29.4431 17.6047 29.8032 17.6047 30.2469C17.6047 30.6906 17.9647 31.0507 18.4085 31.0507Z" fill="#2C3E50" stroke="#2C3E50" stroke-width="0.4"/>
<path d="M36.1697 12.8918C36.1033 13.2191 36.3134 13.5379 36.6407 13.6043L36.6004 13.8002C36.6561 13.8117 36.7108 13.8164 36.7627 13.8164C37.137 13.8164 37.4718 13.5546 37.5491 13.1732M37.5491 13.1732C37.5491 13.1732 37.5491 13.1733 37.5491 13.1733L37.3531 13.1334L37.5492 13.1731C37.5492 13.1731 37.5491 13.1731 37.5491 13.1732Z" fill="#2C3E50" stroke="#2C3E50" stroke-width="0.4"/>
<path d="M31.5865 21.5265L31.5968 21.5266L31.6071 21.5256L32.4946 21.4435L32.5029 21.4427L32.511 21.4413C33.0588 21.3443 33.5827 21.1554 34.0662 20.8809L34.0666 20.8807C34.452 20.6607 34.5872 20.1707 34.3685 19.7848L34.3684 19.7846C34.1482 19.3973 33.6578 19.264 33.2724 19.4824C32.9486 19.6658 32.6011 19.7912 32.2905 19.8505L31.5367 19.9176C30.9954 19.9076 30.4653 19.7169 30.0875 19.4232L29.6609 19.0106C29.2642 18.5148 29.0406 17.8936 29.0294 17.2912L29.0519 16.6259C29.1957 15.5091 29.6481 14.4593 30.3518 13.6014L30.8759 12.9943C31.6469 12.1218 32.7089 11.5689 33.8536 11.4388C34.3361 11.3958 34.7474 11.4153 35.1156 11.4978L35.1163 11.4979C35.546 11.5925 35.977 11.325 36.0753 10.8904C36.1735 10.4572 35.9012 10.0281 35.468 9.9302C34.9266 9.80749 34.3459 9.78091 33.6922 9.84034L33.6922 9.84029L33.6877 9.8408C32.1327 10.0179 30.7047 10.7612 29.666 11.9383L29.666 11.9383L29.6646 11.9399L29.1236 12.5666L29.1235 12.5666L29.1203 12.5705C28.2121 13.6784 27.6357 15.0156 27.4512 16.4895L27.45 16.4985L27.4497 16.5075L27.4232 17.273L27.4229 17.273L27.4231 17.283C27.4383 18.282 27.7918 19.2574 28.4654 20.0846L28.4727 20.0936L28.481 20.1017L29.0184 20.6245L29.0255 20.6314L29.0332 20.6376C29.7405 21.2011 30.6256 21.5163 31.5865 21.5265Z" fill="#2C3E50" stroke="#2C3E50" stroke-width="0.4"/>
<path d="M35.5246 14.7906L35.5247 14.7903C35.6878 14.1316 35.8473 13.4839 35.9731 12.8539C36.0597 12.4195 36.4809 12.1335 36.9196 12.2238C37.3548 12.3112 37.6354 12.734 37.5487 13.1688L37.5487 13.1689C37.4245 13.7899 37.2689 14.4256 37.1128 15.0632C37.1038 15.1003 37.0947 15.1374 37.0856 15.1745L37.0855 15.1748C36.7718 16.4489 36.453 17.7443 36.3651 18.9535L35.5246 14.7906ZM35.5246 14.7906L35.523 14.7969C35.1995 16.1103 34.8601 17.4882 34.7622 18.8378M35.5246 14.7906L34.7622 18.8378M36.5713 19.7151L36.5716 19.7152C36.8739 19.9379 37.1797 19.9952 37.5566 19.8966C38.1428 19.7417 38.7914 19.2272 39.3718 18.5745C39.9473 17.9272 40.4293 17.1743 40.6898 16.5878L40.6899 16.5878C41.6491 14.43 41.3677 11.8725 39.9801 10.0749L39.98 10.0748C37.8349 7.29348 34.2164 6.88775 31.5155 7.45674C27.2959 8.34702 24.3785 12.603 24.7664 17.3858L24.7664 17.3859C24.9941 20.2016 26.5134 22.4682 28.9303 23.6203L28.9303 23.6203C30.6456 24.4383 32.8528 24.8338 35.0137 24.6537C37.1746 24.4736 39.2702 23.7199 40.7795 22.2611C41.098 21.9524 41.6075 21.9606 41.9162 22.2805C42.2243 22.5999 42.2167 23.1081 41.8967 23.417M36.5713 19.7151L31.1853 5.88438C26.1472 6.94764 22.7136 11.9593 23.165 17.5172C23.4398 20.9064 25.2875 23.6652 28.2389 25.0729C29.8783 25.8551 31.8994 26.2915 33.9534 26.2915C36.8382 26.2915 39.8165 25.4303 41.8967 23.417M36.5713 19.7151C36.4915 19.6564 36.4386 19.596 36.404 19.4985M36.5713 19.7151L36.404 19.4985M41.8967 23.417C41.8967 23.4169 41.8968 23.4169 41.8968 23.4168L41.7577 23.2731L41.8966 23.417C41.8966 23.417 41.8967 23.417 41.8967 23.417ZM34.7622 18.8378C34.7188 19.4345 34.7483 20.3676 35.6182 21.0093L34.7622 18.8378ZM36.404 19.4985C36.3664 19.3925 36.3454 19.2282 36.3651 18.9537L36.404 19.4985ZM41.2543 9.09387C39.063 6.25337 35.1961 5.03591 31.1854 5.88436L35.6182 21.0093C36.3124 21.5215 37.1298 21.6741 37.9679 21.451C38.9838 21.1827 39.9073 20.4019 40.6301 19.5699C41.3561 18.7342 41.9031 17.8197 42.1602 17.2418C43.3555 14.5556 43.0023 11.3592 41.2543 9.09387Z" fill="#2C3E50" stroke="#2C3E50" stroke-width="0.4"/>
<path d="M35.1686 17.7991L34.9909 17.7075C34.6042 18.4577 34.0125 19.0724 33.2766 19.4842L33.2762 19.4844C32.8902 19.7015 32.7522 20.1915 32.9691 20.5788L32.9694 20.5794C33.1173 20.8415 33.3906 20.989 33.6713 20.989C33.8022 20.989 33.9382 20.9572 34.0625 20.8855C35.0729 20.3182 35.8876 19.4746 36.4186 18.444C36.6226 18.0503 36.4686 17.5647 36.073 17.3618C35.6777 17.1564 35.1917 17.3122 34.9903 17.7085L35.1686 17.7991ZM35.1686 17.7991C35.3196 17.502 35.6843 17.3849 35.9813 17.5395L33.9635 20.7117C33.8717 20.7648 33.7703 20.789 33.6713 20.789C33.46 20.789 33.2547 20.6779 33.1436 20.4811C32.9806 20.19 33.0844 19.8217 33.3742 19.6587C34.1446 19.2276 34.7641 18.584 35.1686 17.7991Z" fill="#2C3E50" stroke="#2C3E50" stroke-width="0.4"/>
<path d="M58.7619 64.3963C58.7619 64.84 59.1219 65.2001 59.5657 65.2001C62.6721 65.2001 65.1996 62.6725 65.1996 59.5661C65.1996 59.1224 64.8396 58.7623 64.3959 58.7623C63.9521 58.7623 63.5921 59.1224 63.5921 59.5661C63.5921 61.7862 61.7858 63.5925 59.5657 63.5925C59.1219 63.5925 58.7619 63.9526 58.7619 64.3963Z" fill="#2C3E50" stroke="#2C3E50" stroke-width="0.4"/>
<path d="M6.43385 65.2001H59.5659C60.0097 65.2001 60.3697 64.8401 60.3697 64.3964C60.3697 63.9526 60.0097 63.5926 59.5659 63.5926H6.43385C5.99011 63.5926 5.63008 63.9526 5.63008 64.3964C5.63008 64.8401 5.99011 65.2001 6.43385 65.2001Z" fill="#2C3E50" stroke="#2C3E50" stroke-width="0.4"/>
<path d="M0.8 59.5661C0.8 62.6725 3.32758 65.2001 6.43396 65.2001C6.8777 65.2001 7.23774 64.84 7.23774 64.3963C7.23774 63.9526 6.8777 63.5925 6.43396 63.5925C4.21385 63.5925 2.40755 61.7862 2.40755 59.5661C2.40755 59.1224 2.04751 58.7623 1.60377 58.7623C1.16003 58.7623 0.8 59.1224 0.8 59.5661Z" fill="#2C3E50" stroke="#2C3E50" stroke-width="0.4"/>
<path d="M0.8 59.566C0.8 60.0097 1.16003 60.3697 1.60377 60.3697C2.04751 60.3697 2.40755 60.0097 2.40755 59.566V23.3396C2.40755 22.8958 2.04751 22.5358 1.60377 22.5358C1.16003 22.5358 0.8 22.8958 0.8 23.3396V59.566Z" fill="#2C3E50" stroke="#2C3E50" stroke-width="0.4"/>
<path d="M63.593 59.566C63.593 60.0097 63.953 60.3697 64.3967 60.3697C64.8405 60.3697 65.2005 60.0097 65.2005 59.566V23.3396C65.2005 22.8958 64.8405 22.5358 64.3967 22.5358C63.953 22.5358 63.593 22.8958 63.593 23.3396V59.566Z" fill="#2C3E50" stroke="#2C3E50" stroke-width="0.4"/>
<path d="M3.61822 28.2203L3.61795 28.2202C1.87823 27.2162 0.841992 25.3909 0.841992 23.3423C0.841992 21.2914 1.87936 19.4637 3.61799 18.4609C4.00113 18.239 4.49272 18.3698 4.71574 18.7548L4.71587 18.7551C4.93775 19.1393 4.80595 19.6312 4.4217 19.853L4.42161 19.8531C3.18782 20.5647 2.44954 21.8665 2.44954 23.3423C2.44954 24.8155 3.18885 26.1163 4.42168 26.828L4.4217 26.828C4.80584 27.0498 4.93768 27.5414 4.71605 27.9256L3.61822 28.2203ZM3.61822 28.2203C3.74612 28.2939 3.8833 28.3278 4.0198 28.3278M3.61822 28.2203L4.0198 28.3278M4.0198 28.3278C4.29724 28.3278 4.5677 28.1835 4.71596 27.9258L4.0198 28.3278Z" fill="#2C3E50" stroke="#2C3E50" stroke-width="0.4"/>
<path d="M61.2827 27.926L61.283 27.9265C61.4323 28.1834 61.7023 28.3278 61.98 28.3278C62.1172 28.3278 62.2556 28.2923 62.3806 28.2202C64.1192 27.2174 65.1566 25.3896 65.1566 23.3387C65.1566 21.2901 64.1204 19.4648 62.3806 18.4609L62.3806 18.4609L62.3801 18.4605C61.9939 18.2394 61.5061 18.3694 61.2828 18.7548L61.2828 18.7548L61.2827 18.7551C61.0608 19.1393 61.1926 19.6312 61.5769 19.853L61.5769 19.853C62.8097 20.5647 63.5491 21.8656 63.5491 23.3387C63.5491 24.8145 62.8108 26.1164 61.577 26.8279L61.5769 26.828C61.1926 27.0499 61.0608 27.5417 61.2827 27.926Z" fill="#2C3E50" stroke="#2C3E50" stroke-width="0.4"/>
<path d="M8.04512 4.01887C8.04512 4.46261 8.40515 4.82264 8.84889 4.82264C9.29263 4.82264 9.65266 4.46261 9.65266 4.01887C9.65266 3.13068 10.3758 2.40755 11.264 2.40755C11.7077 2.40755 12.0678 2.04751 12.0678 1.60377C12.0678 1.16003 11.7077 0.8 11.264 0.8C9.48953 0.8 8.04512 2.24441 8.04512 4.01887Z" fill="#2C3E50" stroke="#2C3E50" stroke-width="0.4"/>
<path d="M8.04512 30.3084C8.04512 30.7521 8.40515 31.1122 8.84889 31.1122C9.29237 31.1122 9.65266 30.7536 9.65266 30.3084V4.01887C9.65266 3.57513 9.29263 3.2151 8.84889 3.2151C8.40515 3.2151 8.04512 3.57513 8.04512 4.01887V30.3084Z" fill="#2C3E50" stroke="#2C3E50" stroke-width="0.4"/>
<path d="M61.5768 19.8517L61.5771 19.8518C61.705 19.9254 61.8422 19.9594 61.9787 19.9594C62.256 19.9594 62.5265 19.8151 62.6747 19.5575C62.8966 19.1732 62.7648 18.6814 62.3806 18.4595L62.3805 18.4595L57.5515 15.6737L57.5513 15.6735C57.166 15.452 56.6755 15.5835 56.4536 15.9679C56.2317 16.3522 56.3635 16.844 56.7478 17.0658L56.7479 17.0659L61.5768 19.8517Z" fill="#2C3E50" stroke="#2C3E50" stroke-width="0.4"/>
<path d="M3.32373 19.5575L3.32402 19.558C3.47336 19.8149 3.74334 19.9594 4.02101 19.9594C4.15637 19.9594 4.29541 19.9259 4.42236 19.8513L9.25061 17.0659L9.25068 17.0658C9.63492 16.844 9.76673 16.3522 9.54485 15.9679L9.54454 15.9673C9.32173 15.5842 8.83047 15.4515 8.44683 15.6737C8.44674 15.6738 8.44666 15.6738 8.44657 15.6739L3.61797 18.4595L3.61791 18.4595C3.23366 18.6814 3.10185 19.1732 3.32373 19.5575Z" fill="#2C3E50" stroke="#2C3E50" stroke-width="0.4"/>
<path d="M56.5576 57.1643L56.5583 57.165C56.7167 57.3363 56.9335 57.4248 57.1506 57.4248C57.3441 57.4248 57.5392 57.3559 57.6939 57.2128C58.0216 56.9125 58.0442 56.4044 57.7437 56.0765L57.5962 56.2116L57.7437 56.0765L41.9671 38.8665C41.9671 38.8665 41.9671 38.8665 41.9671 38.8665C41.6682 38.5403 41.1589 38.516 40.8307 38.8168C40.5031 39.1171 40.4804 39.6252 40.781 39.9531C40.781 39.9531 40.781 39.9531 40.781 39.9531L56.5576 57.1643Z" fill="#2C3E50" stroke="#2C3E50" stroke-width="0.4"/>
<path d="M8.25614 56.0776H8.25614L8.25577 56.078C7.95735 56.4053 7.97775 56.9131 8.30585 57.2139C8.46047 57.3556 8.6555 57.4246 8.84915 57.4246C9.06629 57.4246 9.28305 57.3361 9.44154 57.1649L9.44216 57.1642L25.2188 39.9542L25.2191 39.9538C25.5176 39.6265 25.4972 39.1187 25.1691 38.8179L25.1687 38.8176C24.8394 38.5172 24.3331 38.5416 24.0331 38.8673L24.0327 38.8676L8.25614 56.0776Z" fill="#2C3E50" stroke="#2C3E50" stroke-width="0.4"/>
<path d="M3.61791 28.2198L3.61798 28.2198L25.3555 40.7598C25.3557 40.7599 25.3559 40.76 25.3561 40.7601C25.4836 40.8342 25.6224 40.8678 25.7581 40.8678C26.0356 40.8678 26.3061 40.7235 26.4543 40.4657C26.6759 40.0814 26.5441 39.5898 26.16 39.368L26.1599 39.368L4.42192 26.8278C4.42187 26.8277 4.42181 26.8277 4.42176 26.8277C4.03568 26.6042 3.54527 26.7381 3.32373 27.1218C3.10185 27.5061 3.23366 27.9979 3.61791 28.2198Z" fill="#2C3E50" stroke="#2C3E50" stroke-width="0.4"/>
<path d="M39.5444 40.466L39.5447 40.4665C39.6941 40.7234 39.964 40.8678 40.2417 40.8678C40.3779 40.8678 40.5153 40.834 40.6426 40.76C40.6427 40.76 40.6429 40.7599 40.643 40.7598L62.3806 28.2198L62.3807 28.2198C62.7649 27.9979 62.8967 27.5061 62.6748 27.1218L62.6745 27.1213C62.4521 26.7389 61.961 26.6037 61.5766 26.8278C61.5764 26.8279 61.5762 26.828 61.576 26.8281L39.8387 39.368L39.8386 39.368C39.4544 39.5899 39.3226 40.0817 39.5444 40.466Z" fill="#2C3E50" stroke="#2C3E50" stroke-width="0.4"/>
<path d="M25.3572 40.7604L25.3572 40.7605C27.7141 42.12 30.357 42.8002 32.9995 42.8002C35.642 42.8002 38.2849 42.1212 40.6419 40.7604L40.5421 40.5876L40.6419 40.7604C41.0261 40.5386 41.1579 40.0467 40.936 39.6625L40.9357 39.6619C40.7128 39.2786 40.224 39.1464 39.8384 39.3681L39.8381 39.3683C35.6204 41.802 30.3786 41.802 26.1609 39.3683L26.1606 39.3681C25.7754 39.1466 25.2849 39.2781 25.063 39.6625C24.8411 40.0467 24.9729 40.5386 25.3572 40.7604Z" fill="#2C3E50" stroke="#2C3E50" stroke-width="0.4"/>
<path d="M56.3469 30.3084C56.3469 30.7521 56.7069 31.1122 57.1506 31.1122C57.5941 31.1122 57.9544 30.7536 57.9544 30.3084V4.01887C57.9544 3.57513 57.5944 3.2151 57.1506 3.2151C56.7069 3.2151 56.3469 3.57513 56.3469 4.01887V30.3084Z" fill="#2C3E50" stroke="#2C3E50" stroke-width="0.4"/>
<path d="M11.2639 2.40755H54.7356C55.1794 2.40755 55.5394 2.04751 55.5394 1.60377C55.5394 1.16003 55.1794 0.8 54.7356 0.8H11.2639C10.8202 0.8 10.4602 1.16003 10.4602 1.60377C10.4602 2.04751 10.8202 2.40755 11.2639 2.40755Z" fill="#2C3E50" stroke="#2C3E50" stroke-width="0.4"/>
<path d="M56.3469 4.01887C56.3469 4.46261 56.707 4.82264 57.1507 4.82264C57.5944 4.82264 57.9545 4.46261 57.9545 4.01887C57.9545 2.24441 56.5101 0.8 54.7356 0.8C54.2919 0.8 53.9318 1.16003 53.9318 1.60377C53.9318 2.04751 54.2919 2.40755 54.7356 2.40755C55.6238 2.40755 56.3469 3.13068 56.3469 4.01887Z" fill="#2C3E50" stroke="#2C3E50" stroke-width="0.4"/>
</svg>
