<svg width="180" height="180" viewBox="0 0 180 180" fill="none" xmlns="http://www.w3.org/2000/svg">
<g filter="url(#filter0_d_342_1225)">
<rect x="28" y="22" width="124" height="124" rx="16" fill="white"/>
</g>
<path d="M108.857 87.76C107.896 87.76 106.935 87.44 106.134 86.8C105.333 86.16 104.853 85.2 104.693 84.24L104.372 82.24L103.091 83.2C102.37 83.84 101.409 84.16 100.448 84.16C99.4875 84.16 98.5266 83.84 97.8058 83.2C97.7258 83.12 97.7258 83.12 97.6457 83.04C92.9209 78.64 92.0401 77.28 92.0401 75.6C92.0401 74.72 92.2803 73.92 92.8409 73.12C93.001 72.88 93.2413 72.56 94.0421 71.52L91.7998 71.2C90.7588 71.04 89.8779 70.56 89.2373 69.76C88.5966 69.04 88.2763 68.08 88.2763 67.12V63.28H53.6016C52.7207 63.28 52 64 52 64.88V122.4C52 123.28 52.7207 124 53.6016 124H111.099C111.98 124 112.701 123.28 112.701 122.4V87.76H108.857ZM75.0631 99.76C75.7037 100.4 75.7037 101.36 75.0631 102C74.7428 102.32 74.3424 102.48 73.942 102.48C73.5416 102.48 73.1412 102.32 72.8208 102L65.8539 95.04C65.2132 94.4 65.2132 93.44 65.8539 92.8L72.8208 85.84C73.4615 85.2 74.4224 85.2 75.0631 85.84C75.7037 86.48 75.7037 87.44 75.0631 88.08L69.2172 93.92L75.0631 99.76ZM87.2353 82.72L80.6687 105.52C80.4284 106.24 79.7878 106.64 79.1472 106.64C78.987 106.64 78.8268 106.64 78.6667 106.56C77.7858 106.32 77.3053 105.44 77.5456 104.56L84.1121 81.76C84.3524 80.88 85.2333 80.4 86.1141 80.64C86.9149 80.96 87.4755 81.84 87.2353 82.72ZM98.927 95.12L91.96 102.08C91.6397 102.4 91.2393 102.56 90.8389 102.56C90.4385 102.56 90.0381 102.4 89.7177 102.08C89.0771 101.44 89.0771 100.48 89.7177 99.84L95.5636 94L89.7177 88.16C89.0771 87.52 89.0771 86.56 89.7177 85.92C90.3584 85.28 91.3193 85.28 91.96 85.92L98.927 92.88C99.5676 93.44 99.5676 94.48 98.927 95.12Z" fill="#2C3E50"/>
<path d="M128.476 75.6C128.476 75.36 128.396 75.2 128.236 74.96C127.035 73.52 126.074 72.32 125.353 71.28C125.834 70.4 126.154 69.6 126.394 68.88L131.279 68.08C131.439 68.08 131.6 67.92 131.76 67.76C131.92 67.52 132 67.36 132 67.12V61.28C132 61.04 131.92 60.88 131.76 60.64C131.6 60.48 131.439 60.32 131.199 60.32L126.394 59.6C126.154 58.88 125.834 58 125.353 57.04C125.674 56.56 126.154 55.92 126.795 55.12C127.435 54.32 127.836 53.76 128.156 53.44C128.316 53.2 128.396 53.04 128.396 52.8C128.396 52.24 126.875 50.56 123.832 47.76C123.592 47.6 123.431 47.52 123.191 47.52C122.951 47.52 122.711 47.6 122.551 47.76L118.787 50.56C117.906 50.08 117.105 49.76 116.384 49.6L115.664 44.8C115.664 44.56 115.503 44.4 115.343 44.24C115.183 44.08 114.943 44 114.703 44H108.857C108.376 44 108.056 44.24 107.896 44.72C107.656 45.68 107.415 47.28 107.175 49.6C106.294 49.92 105.413 50.24 104.773 50.64L101.089 47.76C100.849 47.6 100.689 47.52 100.448 47.52C100.048 47.52 99.2472 48.16 97.9659 49.36C96.6847 50.64 95.8038 51.52 95.4034 52.16C95.2432 52.32 95.1631 52.56 95.1631 52.8C95.1631 52.96 95.2432 53.2 95.4034 53.44C96.6046 54.88 97.5655 56.08 98.2863 57.12C97.8058 58 97.4855 58.8 97.2452 59.52L92.3603 60.24C92.2002 60.24 92.04 60.4 91.8799 60.56C91.7197 60.8 91.6396 60.96 91.6396 61.2V67.04C91.6396 67.28 91.7197 67.44 91.8799 67.68C92.04 67.84 92.2002 68 92.4404 68L97.2452 68.8C97.4855 69.6 97.8859 70.48 98.3663 71.36C98.046 71.84 97.5655 72.48 96.8448 73.28C96.2042 74.08 95.7237 74.64 95.5635 74.96C95.4034 75.2 95.3233 75.36 95.3233 75.6C95.3233 76.16 96.8448 77.84 99.8879 80.64C100.128 80.8 100.288 80.88 100.529 80.88C100.769 80.88 101.009 80.8 101.169 80.64L104.933 77.84C105.814 78.32 106.615 78.64 107.335 78.8L108.056 83.68C108.056 83.92 108.216 84.08 108.376 84.24C108.537 84.4 108.777 84.48 109.017 84.48H114.943C115.423 84.48 115.744 84.24 115.904 83.76C116.144 82.8 116.384 81.12 116.625 78.88C117.505 78.64 118.306 78.32 119.027 77.92L122.711 80.8C122.951 80.96 123.111 81.04 123.351 81.04C123.752 81.04 124.553 80.4 125.834 79.12C127.115 77.84 127.996 76.88 128.476 76.32C128.396 76.08 128.476 75.92 128.476 75.6ZM117.506 70C115.904 71.6 113.982 72.4 111.74 72.4C109.497 72.4 107.576 71.6 105.974 70C104.372 68.4 103.572 66.48 103.572 64.24C103.572 62 104.372 60.08 105.974 58.48C107.576 56.88 109.497 56.08 111.74 56.08C113.982 56.08 115.904 56.88 117.506 58.48C119.107 60.08 119.908 62 119.908 64.24C119.908 66.48 119.107 68.4 117.506 70Z" fill="#5CD180"/>
<defs>
<filter id="filter0_d_342_1225" x="0" y="0" width="180" height="180" filterUnits="userSpaceOnUse" color-interpolation-filters="sRGB">
<feFlood flood-opacity="0" result="BackgroundImageFix"/>
<feColorMatrix in="SourceAlpha" type="matrix" values="0 0 0 0 0 0 0 0 0 0 0 0 0 0 0 0 0 0 127 0" result="hardAlpha"/>
<feOffset dy="6"/>
<feGaussianBlur stdDeviation="14"/>
<feComposite in2="hardAlpha" operator="out"/>
<feColorMatrix type="matrix" values="0 0 0 0 0.464253 0 0 0 0 0.893439 0 0 0 0 0.920833 0 0 0 0.16 0"/>
<feBlend mode="normal" in2="BackgroundImageFix" result="effect1_dropShadow_342_1225"/>
<feBlend mode="normal" in="SourceGraphic" in2="effect1_dropShadow_342_1225" result="shape"/>
</filter>
</defs>
</svg>
