<svg xmlns="http://www.w3.org/2000/svg" width="64" height="64" viewBox="0 0 64 64" fill="none">
    <circle cx="32" cy="32" r="31.5" transform="matrix(-1 0 0 1 64 0)" stroke="#CED9D1" />
    <path
        d="M21.2929 32.7071C20.9024 32.3166 20.9024 31.6834 21.2929 31.2929L27.6569 24.9289C28.0474 24.5384 28.6805 24.5384 29.0711 24.9289C29.4616 25.3195 29.4616 25.9526 29.0711 26.3431L23.4142 32L29.0711 37.6569C29.4616 38.0474 29.4616 38.6805 29.0711 39.0711C28.6805 39.4616 28.0474 39.4616 27.6569 39.0711L21.2929 32.7071ZM42 31C42.5523 31 43 31.4477 43 32C43 32.5523 42.5523 33 42 33L42 31ZM22 31L42 31L42 33L22 33L22 31Z"
        fill="#CED9D1" />
</svg>