<svg width="49" height="66" viewBox="0 0 49 66" fill="none" xmlns="http://www.w3.org/2000/svg">
<path d="M24.6792 54.8406C24.6719 54.8406 24.6647 54.8405 24.6574 54.8403C24.2846 54.8327 23.9443 54.6295 23.7646 54.307L9.06195 27.9256C5.65461 22.0969 5.65643 15.1391 9.06743 9.31166C12.4804 3.48102 18.593 0 25.4187 0C32.2445 0 38.3572 3.48102 41.7702 9.31166C45.183 15.1423 45.183 22.1042 41.77 27.9348C41.7665 27.9409 41.7629 27.9469 41.7592 27.953L25.5719 54.3441C25.3826 54.6526 25.0437 54.8406 24.6792 54.8406ZM25.4189 2.05848C19.3475 2.05848 13.9105 5.15469 10.8749 10.3409C7.83926 15.5271 7.83926 21.7195 10.8749 26.9056C10.8785 26.9118 10.8822 26.9181 10.8857 26.9244L24.7225 51.7522L39.9681 26.8967C42.9987 21.7123 42.9969 15.5241 39.963 10.3408C36.9271 5.15469 31.4902 2.05848 25.4189 2.05848Z" fill="#2C3E50"/>
<path d="M25.5436 25.9886C21.516 25.9886 18.2393 22.7565 18.2393 18.7839C18.2393 14.8113 21.516 11.5792 25.5436 11.5792C29.5713 11.5792 32.848 14.8113 32.848 18.7839C32.848 22.7565 29.5713 25.9886 25.5436 25.9886ZM25.5436 13.6377C22.6667 13.6377 20.3262 15.9463 20.3262 18.7839C20.3262 21.6215 22.6667 23.9301 25.5436 23.9301C28.4205 23.9301 30.761 21.6215 30.761 18.7839C30.761 15.9463 28.4205 13.6377 25.5436 13.6377Z" fill="#2C3E50"/>
<path d="M24.5 66C18.2292 66 12.3175 64.9528 7.85365 63.0516C3.11157 61.0318 0.5 58.2408 0.5 55.193C0.5 49.8875 8.52422 45.519 20.0133 44.5698C20.5883 44.5217 21.0921 44.943 21.1403 45.5095C21.1884 46.0759 20.7619 46.5736 20.1876 46.6211C15.1648 47.0361 10.601 48.1833 7.337 49.8511C4.27387 51.4164 2.58696 53.3136 2.58696 55.193C2.58696 59.418 11.3921 63.9415 24.5 63.9415C37.6078 63.9415 46.413 59.418 46.413 55.193C46.413 51.2871 39.1731 47.6313 29.5723 46.689C28.999 46.6326 28.5803 46.1286 28.6373 45.5629C28.6943 44.9972 29.2058 44.5851 29.779 44.6405C34.8865 45.1418 39.5387 46.3903 42.8787 48.1558C46.5563 50.0999 48.5 52.5333 48.5 55.193C48.5 58.2408 45.8884 61.0318 41.1463 63.0516C36.6825 64.9528 30.7708 66 24.5 66Z" fill="#2C3E50"/>
<path d="M25.0219 60.3908C16.7292 60.3908 10.2604 58.218 8.92503 54.9842C8.70759 54.4578 8.96416 53.8572 9.4979 53.6427C10.0314 53.4284 10.6405 53.6812 10.8579 54.2078C11.2592 55.1794 12.8266 56.2053 15.0508 56.9521C17.7401 57.855 21.1881 58.3323 25.0219 58.3323C28.8557 58.3323 32.3036 57.855 34.9931 56.952C37.2172 56.2052 38.7845 55.1793 39.1859 54.2077C39.4033 53.6812 40.0122 53.4284 40.5459 53.6426C41.0797 53.8571 41.3361 54.4576 41.1188 54.9841C39.7833 58.2181 33.3145 60.3908 25.0219 60.3908Z" fill="#2C3E50"/>
</svg>
