<svg width="458" height="67" viewBox="0 0 458 67" fill="none" xmlns="http://www.w3.org/2000/svg">
<path d="M24.6792 54.8406C24.6719 54.8406 24.6647 54.8405 24.6574 54.8403C24.2846 54.8327 23.9443 54.6295 23.7646 54.307L9.06195 27.9256C5.65461 22.0969 5.65643 15.1391 9.06743 9.31166C12.4804 3.48102 18.593 0 25.4187 0C32.2445 0 38.3572 3.48102 41.7702 9.31166C45.183 15.1423 45.183 22.1042 41.77 27.9348C41.7665 27.9409 41.7629 27.9469 41.7592 27.953L25.5719 54.3441C25.3826 54.6526 25.0437 54.8406 24.6792 54.8406ZM25.4189 2.05848C19.3475 2.05848 13.9105 5.15469 10.8749 10.3409C7.83926 15.5271 7.83926 21.7195 10.8749 26.9056C10.8785 26.9118 10.8822 26.9181 10.8857 26.9244L24.7225 51.7522L39.9681 26.8967C42.9987 21.7123 42.9969 15.5241 39.963 10.3408C36.9271 5.15469 31.4902 2.05848 25.4189 2.05848Z" fill="#2C3E50"/>
<path d="M25.5436 25.9886C21.516 25.9886 18.2393 22.7565 18.2393 18.7839C18.2393 14.8113 21.516 11.5792 25.5436 11.5792C29.5713 11.5792 32.848 14.8113 32.848 18.7839C32.848 22.7565 29.5713 25.9886 25.5436 25.9886ZM25.5436 13.6377C22.6667 13.6377 20.3262 15.9463 20.3262 18.7839C20.3262 21.6215 22.6667 23.9301 25.5436 23.9301C28.4205 23.9301 30.761 21.6215 30.761 18.7839C30.761 15.9463 28.4205 13.6377 25.5436 13.6377Z" fill="#2C3E50"/>
<path d="M24.5 66C18.2292 66 12.3175 64.9528 7.85365 63.0516C3.11157 61.0318 0.5 58.2408 0.5 55.193C0.5 49.8875 8.52422 45.519 20.0133 44.5698C20.5883 44.5217 21.0921 44.943 21.1403 45.5095C21.1884 46.0759 20.7619 46.5736 20.1876 46.6211C15.1648 47.0361 10.601 48.1833 7.337 49.8511C4.27387 51.4164 2.58696 53.3136 2.58696 55.193C2.58696 59.418 11.3921 63.9415 24.5 63.9415C37.6078 63.9415 46.413 59.418 46.413 55.193C46.413 51.2871 39.1731 47.6313 29.5723 46.689C28.999 46.6326 28.5803 46.1286 28.6373 45.5629C28.6943 44.9972 29.2058 44.5851 29.779 44.6405C34.8865 45.1418 39.5387 46.3903 42.8787 48.1558C46.5563 50.0999 48.5 52.5333 48.5 55.193C48.5 58.2408 45.8884 61.0318 41.1463 63.0516C36.6825 64.9528 30.7708 66 24.5 66Z" fill="#2C3E50"/>
<path d="M25.0219 60.3908C16.7292 60.3908 10.2604 58.218 8.92503 54.9842C8.70759 54.4578 8.96416 53.8572 9.4979 53.6427C10.0314 53.4284 10.6405 53.6812 10.8579 54.2078C11.2592 55.1794 12.8266 56.2053 15.0508 56.9521C17.7401 57.855 21.1881 58.3323 25.0219 58.3323C28.8557 58.3323 32.3036 57.855 34.9931 56.952C37.2172 56.2052 38.7845 55.1793 39.1859 54.2077C39.4033 53.6812 40.0122 53.4284 40.5459 53.6426C41.0797 53.8571 41.3361 54.4576 41.1188 54.9841C39.7833 58.2181 33.3145 60.3908 25.0219 60.3908Z" fill="#2C3E50"/>
<path d="M65.612 30V11.208L61.832 11.82V7.752L70.472 6.456V30H65.612ZM84.3674 30V25.14H73.1354V21.828L84.9794 6.816H89.2274V21.216H91.4954V25.14H89.2274V30H84.3674ZM77.7794 21.396H85.1954V12.18L77.7794 21.396ZM103.949 30.936C101.405 30.936 99.3646 30.456 97.8286 29.496C96.2926 28.536 95.1766 27.144 94.4806 25.32C93.8086 23.472 93.4726 21.264 93.4726 18.696C93.4726 16.104 93.8086 13.896 94.4806 12.072C95.1766 10.248 96.2926 8.856 97.8286 7.896C99.3646 6.936 101.405 6.456 103.949 6.456C106.493 6.456 108.533 6.936 110.069 7.896C111.605 8.856 112.709 10.248 113.381 12.072C114.077 13.896 114.425 16.104 114.425 18.696C114.425 21.264 114.077 23.472 113.381 25.32C112.709 27.144 111.605 28.536 110.069 29.496C108.533 30.456 106.493 30.936 103.949 30.936ZM103.949 26.76C106.037 26.76 107.477 26.064 108.269 24.672C109.085 23.28 109.493 21.288 109.493 18.696C109.493 16.104 109.085 14.112 108.269 12.72C107.477 11.328 106.037 10.632 103.949 10.632C101.861 10.632 100.409 11.328 99.5926 12.72C98.8006 14.112 98.4046 16.104 98.4046 18.696C98.4046 21.288 98.8006 23.28 99.5926 24.672C100.409 26.064 101.861 26.76 103.949 26.76ZM130.408 30L125.008 6.816H129.796L133.288 22.476L137.068 9.84V6.816H141.028L145.492 22.512L149.092 6.816H153.844L148.48 30H143.872L139.624 15.168L135.052 30H130.408ZM156.799 9.804V5.988H162.091V9.804H156.799ZM157.195 30V16.536H154.639L155.071 12.936H162.055V30H157.195ZM170.945 30.36C169.289 30.36 168.077 29.976 167.309 29.208C166.565 28.44 166.193 27.216 166.193 25.536V5.736H171.053V25.14C171.053 25.74 171.173 26.16 171.413 26.4C171.653 26.616 172.001 26.724 172.457 26.724C173.081 26.724 173.645 26.64 174.149 26.472V29.82C173.237 30.18 172.169 30.36 170.945 30.36ZM180.753 30.36C179.097 30.36 177.885 29.976 177.117 29.208C176.373 28.44 176.001 27.216 176.001 25.536V5.736H180.861V25.14C180.861 25.74 180.981 26.16 181.221 26.4C181.461 26.616 181.809 26.724 182.265 26.724C182.889 26.724 183.453 26.64 183.957 26.472V29.82C183.045 30.18 181.977 30.36 180.753 30.36ZM186.646 9.804V5.988H191.938V9.804H186.646ZM187.042 30V16.536H184.486L184.918 12.936H191.902V30H187.042ZM201.404 30.36C200.324 30.36 199.316 30.168 198.38 29.784C197.468 29.376 196.724 28.788 196.148 28.02C195.596 27.228 195.32 26.244 195.32 25.068C195.32 23.388 195.908 22.044 197.084 21.036C198.284 20.028 200.048 19.524 202.376 19.524H207.416V19.056C207.416 18 207.116 17.256 206.516 16.824C205.94 16.392 204.764 16.176 202.988 16.176C201.044 16.176 199.172 16.476 197.372 17.076V13.656C198.164 13.344 199.124 13.092 200.252 12.9C201.404 12.684 202.652 12.576 203.996 12.576C206.564 12.576 208.544 13.104 209.936 14.16C211.352 15.192 212.06 16.86 212.06 19.164V30H207.848L207.596 28.452C206.924 29.052 206.096 29.52 205.112 29.856C204.128 30.192 202.892 30.36 201.404 30.36ZM202.736 27.156C203.816 27.156 204.752 26.976 205.544 26.616C206.336 26.256 206.96 25.8 207.416 25.248V22.548H202.484C200.588 22.548 199.64 23.328 199.64 24.888C199.64 26.4 200.672 27.156 202.736 27.156ZM215.974 30V12.936H220.474L220.654 14.592C221.47 13.968 222.358 13.476 223.318 13.116C224.302 12.756 225.358 12.576 226.486 12.576C227.686 12.576 228.61 12.756 229.258 13.116C229.93 13.476 230.446 13.992 230.806 14.664C231.598 14.04 232.498 13.536 233.506 13.152C234.538 12.768 235.75 12.576 237.142 12.576C239.11 12.576 240.562 13.092 241.498 14.124C242.434 15.132 242.902 16.68 242.902 18.768V30H238.114V19.308C238.114 18.18 237.874 17.376 237.394 16.896C236.914 16.392 236.146 16.14 235.09 16.14C233.65 16.14 232.45 16.656 231.49 17.688C231.61 18.096 231.67 18.588 231.67 19.164V30H227.134V19.308C227.134 18.252 226.954 17.46 226.594 16.932C226.234 16.404 225.538 16.14 224.506 16.14C223.786 16.14 223.102 16.332 222.454 16.716C221.83 17.076 221.266 17.496 220.762 17.976V30H215.974ZM261.986 30.36C260.498 30.36 259.106 30.252 257.81 30.036C256.538 29.82 255.434 29.508 254.498 29.1V24.816C255.554 25.248 256.694 25.596 257.918 25.86C259.142 26.124 260.342 26.256 261.518 26.256C263.198 26.256 264.434 26.1 265.226 25.788C266.018 25.476 266.414 24.768 266.414 23.664C266.414 22.968 266.246 22.416 265.91 22.008C265.574 21.6 264.986 21.24 264.146 20.928C263.33 20.592 262.166 20.22 260.654 19.812C258.23 19.14 256.526 18.3 255.542 17.292C254.558 16.284 254.066 14.892 254.066 13.116C254.066 10.98 254.846 9.336 256.406 8.184C257.966 7.032 260.234 6.456 263.21 6.456C264.602 6.456 265.898 6.552 267.098 6.744C268.298 6.936 269.27 7.164 270.014 7.428V11.712C268.046 10.968 265.994 10.596 263.858 10.596C262.346 10.596 261.158 10.764 260.294 11.1C259.43 11.412 258.998 12.084 258.998 13.116C258.998 13.716 259.154 14.196 259.466 14.556C259.778 14.916 260.306 15.24 261.05 15.528C261.818 15.816 262.886 16.14 264.254 16.5C266.15 17.004 267.614 17.604 268.646 18.3C269.678 18.996 270.386 19.788 270.77 20.676C271.178 21.564 271.382 22.56 271.382 23.664C271.382 25.68 270.614 27.3 269.078 28.524C267.542 29.748 265.178 30.36 261.986 30.36ZM280.996 30.36C279.028 30.36 277.564 29.844 276.604 28.812C275.668 27.78 275.2 26.376 275.2 24.6V16.68H272.788V12.936H275.2V9.264L280.06 7.824V12.936H284.38L284.092 16.68H280.06V24.276C280.06 25.212 280.276 25.86 280.708 26.22C281.14 26.556 281.812 26.724 282.724 26.724C283.396 26.724 284.092 26.604 284.812 26.364V29.712C284.284 29.928 283.708 30.084 283.084 30.18C282.46 30.3 281.764 30.36 280.996 30.36ZM287.306 30V12.936H291.806L292.022 14.7C292.79 14.22 293.738 13.788 294.866 13.404C296.018 12.996 297.146 12.72 298.25 12.576V16.248C297.602 16.344 296.894 16.488 296.126 16.68C295.358 16.872 294.626 17.088 293.93 17.328C293.234 17.568 292.646 17.82 292.166 18.084V30H287.306ZM308.924 30.36C305.972 30.36 303.632 29.628 301.904 28.164C300.176 26.676 299.312 24.432 299.312 21.432C299.312 18.72 300.032 16.572 301.472 14.988C302.936 13.38 305.108 12.576 307.988 12.576C310.628 12.576 312.644 13.272 314.036 14.664C315.452 16.032 316.16 17.832 316.16 20.064V23.16H303.812C304.076 24.528 304.7 25.464 305.684 25.968C306.692 26.472 308.108 26.724 309.932 26.724C310.844 26.724 311.768 26.64 312.704 26.472C313.664 26.304 314.48 26.088 315.152 25.824V29.28C314.36 29.64 313.436 29.904 312.38 30.072C311.324 30.264 310.172 30.36 308.924 30.36ZM303.812 20.172H311.912V19.236C311.912 18.252 311.624 17.484 311.048 16.932C310.472 16.356 309.5 16.068 308.132 16.068C306.524 16.068 305.396 16.392 304.748 17.04C304.124 17.688 303.812 18.732 303.812 20.172ZM328.436 30.36C325.484 30.36 323.144 29.628 321.416 28.164C319.688 26.676 318.824 24.432 318.824 21.432C318.824 18.72 319.544 16.572 320.984 14.988C322.448 13.38 324.62 12.576 327.5 12.576C330.14 12.576 332.156 13.272 333.548 14.664C334.964 16.032 335.672 17.832 335.672 20.064V23.16H323.324C323.588 24.528 324.212 25.464 325.196 25.968C326.204 26.472 327.62 26.724 329.444 26.724C330.356 26.724 331.28 26.64 332.216 26.472C333.176 26.304 333.992 26.088 334.664 25.824V29.28C333.872 29.64 332.948 29.904 331.892 30.072C330.836 30.264 329.684 30.36 328.436 30.36ZM323.324 20.172H331.424V19.236C331.424 18.252 331.136 17.484 330.56 16.932C329.984 16.356 329.012 16.068 327.644 16.068C326.036 16.068 324.908 16.392 324.26 17.04C323.636 17.688 323.324 18.732 323.324 20.172ZM345.824 30.36C343.856 30.36 342.392 29.844 341.432 28.812C340.496 27.78 340.028 26.376 340.028 24.6V16.68H337.616V12.936H340.028V9.264L344.888 7.824V12.936H349.208L348.92 16.68H344.888V24.276C344.888 25.212 345.104 25.86 345.536 26.22C345.968 26.556 346.64 26.724 347.552 26.724C348.224 26.724 348.92 26.604 349.64 26.364V29.712C349.112 29.928 348.536 30.084 347.912 30.18C347.288 30.3 346.592 30.36 345.824 30.36ZM351.414 34.32L352.53 27.084H356.706L354.906 34.32H351.414ZM367.99 30V6.816H372.85V26.256H384.262V30H367.99ZM394.917 30.36C391.965 30.36 389.625 29.628 387.897 28.164C386.169 26.676 385.305 24.432 385.305 21.432C385.305 18.72 386.025 16.572 387.465 14.988C388.929 13.38 391.101 12.576 393.981 12.576C396.621 12.576 398.637 13.272 400.029 14.664C401.445 16.032 402.153 17.832 402.153 20.064V23.16H389.805C390.069 24.528 390.693 25.464 391.677 25.968C392.685 26.472 394.101 26.724 395.925 26.724C396.837 26.724 397.761 26.64 398.697 26.472C399.657 26.304 400.473 26.088 401.145 25.824V29.28C400.353 29.64 399.429 29.904 398.373 30.072C397.317 30.264 396.165 30.36 394.917 30.36ZM389.805 20.172H397.905V19.236C397.905 18.252 397.617 17.484 397.041 16.932C396.465 16.356 395.493 16.068 394.125 16.068C392.517 16.068 391.389 16.392 390.741 17.04C390.117 17.688 389.805 18.732 389.805 20.172ZM409.58 30L402.848 12.936H407.924L412.172 25.104L416.456 12.936H421.496L414.8 30H409.58ZM431.831 30.36C428.879 30.36 426.539 29.628 424.811 28.164C423.083 26.676 422.219 24.432 422.219 21.432C422.219 18.72 422.939 16.572 424.379 14.988C425.843 13.38 428.015 12.576 430.895 12.576C433.535 12.576 435.551 13.272 436.943 14.664C438.359 16.032 439.067 17.832 439.067 20.064V23.16H426.719C426.983 24.528 427.607 25.464 428.591 25.968C429.599 26.472 431.015 26.724 432.839 26.724C433.751 26.724 434.675 26.64 435.611 26.472C436.571 26.304 437.387 26.088 438.059 25.824V29.28C437.267 29.64 436.343 29.904 435.287 30.072C434.231 30.264 433.079 30.36 431.831 30.36ZM426.719 20.172H434.819V19.236C434.819 18.252 434.531 17.484 433.955 16.932C433.379 16.356 432.407 16.068 431.039 16.068C429.431 16.068 428.303 16.392 427.655 17.04C427.031 17.688 426.719 18.732 426.719 20.172ZM447.202 30.36C445.546 30.36 444.334 29.976 443.566 29.208C442.822 28.44 442.45 27.216 442.45 25.536V5.736H447.31V25.14C447.31 25.74 447.43 26.16 447.67 26.4C447.91 26.616 448.258 26.724 448.714 26.724C449.338 26.724 449.902 26.64 450.406 26.472V29.82C449.494 30.18 448.426 30.36 447.202 30.36ZM72.344 62V57.14H61.112V53.828L72.956 38.816H77.204V53.216H79.472V57.14H77.204V62H72.344ZM65.756 53.396H73.172V44.18L65.756 53.396ZM91.9252 62.936C89.3812 62.936 87.3412 62.456 85.8052 61.496C84.2692 60.536 83.1532 59.144 82.4572 57.32C81.7852 55.472 81.4492 53.264 81.4492 50.696C81.4492 48.104 81.7852 45.896 82.4572 44.072C83.1532 42.248 84.2692 40.856 85.8052 39.896C87.3412 38.936 89.3812 38.456 91.9252 38.456C94.4692 38.456 96.5092 38.936 98.0452 39.896C99.5812 40.856 100.685 42.248 101.357 44.072C102.053 45.896 102.401 48.104 102.401 50.696C102.401 53.264 102.053 55.472 101.357 57.32C100.685 59.144 99.5812 60.536 98.0452 61.496C96.5092 62.456 94.4692 62.936 91.9252 62.936ZM91.9252 58.76C94.0132 58.76 95.4532 58.064 96.2452 56.672C97.0612 55.28 97.4692 53.288 97.4692 50.696C97.4692 48.104 97.0612 46.112 96.2452 44.72C95.4532 43.328 94.0132 42.632 91.9252 42.632C89.8372 42.632 88.3852 43.328 87.5692 44.72C86.7772 46.112 86.3812 48.104 86.3812 50.696C86.3812 53.288 86.7772 55.28 87.5692 56.672C88.3852 58.064 89.8372 58.76 91.9252 58.76ZM102.719 66.32L103.835 59.084H108.011L106.211 66.32H102.719ZM129.842 62.36C122.33 62.36 118.574 58.412 118.574 50.516C118.574 46.268 119.522 43.196 121.418 41.3C123.314 39.404 126.122 38.456 129.842 38.456C133.562 38.456 136.37 39.404 138.266 41.3C140.162 43.196 141.11 46.268 141.11 50.516C141.11 58.412 137.354 62.36 129.842 62.36ZM129.842 58.22C132.026 58.22 133.622 57.596 134.63 56.348C135.662 55.076 136.178 53.132 136.178 50.516C136.178 47.612 135.662 45.572 134.63 44.396C133.622 43.196 132.026 42.596 129.842 42.596C127.658 42.596 126.05 43.196 125.018 44.396C124.01 45.572 123.506 47.612 123.506 50.516C123.506 53.132 124.01 55.076 125.018 56.348C126.05 57.596 127.658 58.22 129.842 58.22ZM145.401 62V48.68H143.025V44.936H145.401V43.208C145.401 41.432 145.905 39.98 146.913 38.852C147.921 37.724 149.409 37.16 151.377 37.16C152.169 37.16 152.877 37.22 153.501 37.34C154.125 37.46 154.701 37.628 155.229 37.844V41.192C154.869 41.072 154.521 40.976 154.185 40.904C153.849 40.832 153.477 40.796 153.069 40.796C152.037 40.796 151.305 40.988 150.873 41.372C150.465 41.732 150.261 42.368 150.261 43.28V44.936H154.581L154.365 48.68H150.261V62H145.401ZM157.355 62V48.68H154.979V44.936H157.355V43.244C157.355 42.044 157.643 40.976 158.219 40.04C158.795 39.104 159.623 38.36 160.703 37.808C161.807 37.256 163.103 36.98 164.591 36.98C166.487 36.98 168.011 37.22 169.163 37.7V41.3C168.851 41.132 168.383 41.012 167.759 40.94C167.135 40.844 166.583 40.796 166.103 40.796C164.711 40.796 163.715 41 163.115 41.408C162.515 41.816 162.215 42.476 162.215 43.388V44.936H172.007V62H167.147V48.68H162.215V62H157.355ZM184.819 62.36C181.771 62.36 179.431 61.604 177.799 60.092C176.191 58.58 175.387 56.372 175.387 53.468C175.387 50.468 176.251 48.236 177.979 46.772C179.731 45.308 182.059 44.576 184.963 44.576C186.163 44.576 187.195 44.66 188.059 44.828C188.923 44.996 189.763 45.272 190.579 45.656V49.148C189.979 48.86 189.283 48.632 188.491 48.464C187.699 48.296 186.847 48.212 185.935 48.212C184.111 48.212 182.719 48.596 181.759 49.364C180.799 50.108 180.319 51.476 180.319 53.468C180.319 55.292 180.751 56.624 181.615 57.464C182.503 58.304 183.931 58.724 185.899 58.724C186.739 58.724 187.555 58.64 188.347 58.472C189.163 58.304 189.919 58.052 190.615 57.716V61.316C189.007 62.012 187.075 62.36 184.819 62.36ZM202.577 62.36C199.625 62.36 197.285 61.628 195.557 60.164C193.829 58.676 192.965 56.432 192.965 53.432C192.965 50.72 193.685 48.572 195.125 46.988C196.589 45.38 198.761 44.576 201.641 44.576C204.281 44.576 206.297 45.272 207.689 46.664C209.105 48.032 209.813 49.832 209.813 52.064V55.16H197.465C197.729 56.528 198.353 57.464 199.337 57.968C200.345 58.472 201.761 58.724 203.585 58.724C204.497 58.724 205.421 58.64 206.357 58.472C207.317 58.304 208.133 58.088 208.805 57.824V61.28C208.013 61.64 207.089 61.904 206.033 62.072C204.977 62.264 203.825 62.36 202.577 62.36ZM197.465 52.172H205.565V51.236C205.565 50.252 205.277 49.484 204.701 48.932C204.125 48.356 203.153 48.068 201.785 48.068C200.177 48.068 199.049 48.392 198.401 49.04C197.777 49.688 197.465 50.732 197.465 52.172ZM213.377 62L215.249 56.06H212.477V52.856H216.257L217.769 47.96H214.061V44.72H218.777L220.649 38.816H224.861L222.989 44.72H228.353L230.225 38.816H234.437L232.565 44.72H235.193V47.96H231.557L230.009 52.856H233.609V56.06H229.001L227.129 62H222.953L224.825 56.06H219.425L217.553 62H213.377ZM220.433 52.856H225.833L227.345 47.96H221.981L220.433 52.856ZM248.371 62V57.14H237.139V53.828L248.983 38.816H253.231V53.216H255.499V57.14H253.231V62H248.371ZM241.783 53.396H249.199V44.18L241.783 53.396ZM267.953 62.936C265.409 62.936 263.369 62.456 261.833 61.496C260.297 60.536 259.181 59.144 258.485 57.32C257.813 55.472 257.477 53.264 257.477 50.696C257.477 48.104 257.813 45.896 258.485 44.072C259.181 42.248 260.297 40.856 261.833 39.896C263.369 38.936 265.409 38.456 267.953 38.456C270.497 38.456 272.537 38.936 274.073 39.896C275.609 40.856 276.713 42.248 277.385 44.072C278.081 45.896 278.429 48.104 278.429 50.696C278.429 53.264 278.081 55.472 277.385 57.32C276.713 59.144 275.609 60.536 274.073 61.496C272.537 62.456 270.497 62.936 267.953 62.936ZM267.953 58.76C270.041 58.76 271.481 58.064 272.273 56.672C273.089 55.28 273.497 53.288 273.497 50.696C273.497 48.104 273.089 46.112 272.273 44.72C271.481 43.328 270.041 42.632 267.953 42.632C265.865 42.632 264.413 43.328 263.597 44.72C262.805 46.112 262.409 48.104 262.409 50.696C262.409 53.288 262.805 55.28 263.597 56.672C264.413 58.064 265.865 58.76 267.953 58.76ZM291.578 62.936C289.034 62.936 286.994 62.456 285.458 61.496C283.922 60.536 282.806 59.144 282.11 57.32C281.438 55.472 281.102 53.264 281.102 50.696C281.102 48.104 281.438 45.896 282.11 44.072C282.806 42.248 283.922 40.856 285.458 39.896C286.994 38.936 289.034 38.456 291.578 38.456C294.122 38.456 296.162 38.936 297.698 39.896C299.234 40.856 300.338 42.248 301.01 44.072C301.706 45.896 302.054 48.104 302.054 50.696C302.054 53.264 301.706 55.472 301.01 57.32C300.338 59.144 299.234 60.536 297.698 61.496C296.162 62.456 294.122 62.936 291.578 62.936ZM291.578 58.76C293.666 58.76 295.106 58.064 295.898 56.672C296.714 55.28 297.122 53.288 297.122 50.696C297.122 48.104 296.714 46.112 295.898 44.72C295.106 43.328 293.666 42.632 291.578 42.632C289.49 42.632 288.038 43.328 287.222 44.72C286.43 46.112 286.034 48.104 286.034 50.696C286.034 53.288 286.43 55.28 287.222 56.672C288.038 58.064 289.49 58.76 291.578 58.76ZM313.835 62.36C310.811 62.36 308.531 61.616 306.995 60.128C305.483 58.64 304.727 56.348 304.727 53.252V48.284C304.727 46.364 305.135 44.672 305.951 43.208C306.791 41.72 307.979 40.556 309.515 39.716C311.051 38.876 312.863 38.456 314.951 38.456C316.151 38.456 317.195 38.528 318.083 38.672C318.971 38.816 319.823 39.032 320.639 39.32V43.496C319.127 42.896 317.339 42.596 315.275 42.596C313.307 42.596 311.819 43.028 310.811 43.892C309.803 44.756 309.299 45.896 309.299 47.312V48.428C310.067 47.876 310.967 47.468 311.999 47.204C313.031 46.916 313.979 46.772 314.843 46.772C317.603 46.772 319.631 47.444 320.927 48.788C322.223 50.132 322.871 52.028 322.871 54.476C322.871 56.012 322.547 57.38 321.899 58.58C321.275 59.756 320.303 60.68 318.983 61.352C317.663 62.024 315.947 62.36 313.835 62.36ZM313.871 58.76C315.431 58.76 316.595 58.388 317.363 57.644C318.131 56.9 318.515 55.904 318.515 54.656C318.515 53.312 318.179 52.28 317.507 51.56C316.835 50.84 315.647 50.48 313.943 50.48C313.151 50.48 312.347 50.624 311.531 50.912C310.715 51.2 309.971 51.572 309.299 52.028V54.224C309.299 57.248 310.823 58.76 313.871 58.76Z" fill="#2C3E50"/>
</svg>
