<svg width="24" height="33" viewBox="0 0 24 33" fill="none" xmlns="http://www.w3.org/2000/svg">
<path d="M12.0895 27.4203C12.0858 27.4203 12.0822 27.4202 12.0786 27.4202C11.8922 27.4164 11.722 27.3147 11.6322 27.1535L4.28085 13.9628C2.57718 11.0484 2.57809 7.56954 4.28359 4.65583C5.99007 1.74051 9.04635 0 12.4592 0C15.8721 0 18.9285 1.74051 20.635 4.65583C22.3414 7.57115 22.3414 11.0521 20.6349 13.9674C20.6331 13.9704 20.6313 13.9735 20.6295 13.9765L12.5358 27.1721C12.4412 27.3263 12.2717 27.4203 12.0895 27.4203ZM12.4593 1.02924C9.42364 1.02924 6.70512 2.57734 5.18731 5.17045C3.66951 7.76355 3.66951 10.8598 5.18731 13.4528C5.18914 13.4559 5.19096 13.459 5.19272 13.4622L12.1111 25.8761L19.7339 13.4484C21.2492 10.8562 21.2483 7.76207 19.7314 5.17038C18.2134 2.57734 15.495 1.02924 12.4593 1.02924Z" fill="white"/>
<path d="M12.5218 12.9942C10.508 12.9942 8.86963 11.3782 8.86963 9.39189C8.86963 7.40559 10.508 5.78955 12.5218 5.78955C14.5357 5.78955 16.174 7.40559 16.174 9.39189C16.174 11.3782 14.5357 12.9942 12.5218 12.9942ZM12.5218 6.81879C11.0834 6.81879 9.91311 7.97308 9.91311 9.39189C9.91311 10.8107 11.0834 11.965 12.5218 11.965C13.9602 11.965 15.1305 10.8107 15.1305 9.39189C15.1305 7.97308 13.9602 6.81879 12.5218 6.81879Z" fill="white"/>
<path d="M12 33.0002C8.86461 33.0002 5.90876 32.4766 3.67683 31.526C1.30578 30.5161 0 29.1206 0 27.5967C0 24.9439 4.01211 22.7597 9.75665 22.2851C10.0441 22.261 10.2961 22.4717 10.3201 22.7549C10.3442 23.0382 10.1309 23.287 9.84378 23.3107C7.33239 23.5182 5.0505 24.0918 3.4185 24.9257C1.88694 25.7084 1.04348 26.657 1.04348 27.5967C1.04348 29.7092 5.44604 31.9709 12 31.9709C18.5539 31.9709 22.9565 29.7092 22.9565 27.5967C22.9565 25.6437 19.3366 23.8158 14.5362 23.3447C14.2495 23.3165 14.0401 23.0645 14.0686 22.7816C14.0971 22.4988 14.3529 22.2927 14.6395 22.3205C17.1933 22.5711 19.5194 23.1953 21.1893 24.0781C23.0281 25.0501 24 26.2668 24 27.5967C24 29.1206 22.6942 30.5161 20.3232 31.526C18.0912 32.4766 15.1354 33.0002 12 33.0002Z" fill="white"/>
<path d="M12.2608 30.1954C8.11448 30.1954 4.88009 29.109 4.21239 27.4921C4.10367 27.2289 4.23196 26.9286 4.49883 26.8214C4.76556 26.7142 5.07013 26.8406 5.17885 27.1039C5.37946 27.5897 6.16317 28.1026 7.27526 28.4761C8.61991 28.9275 10.3439 29.1662 12.2608 29.1662C14.1777 29.1662 15.9017 28.9275 17.2464 28.476C18.3585 28.1026 19.1422 27.5896 19.3428 27.1038C19.4515 26.8406 19.756 26.7142 20.0228 26.8213C20.2897 26.9285 20.4179 27.2288 20.3093 27.492C19.6415 29.109 16.4071 30.1954 12.2608 30.1954Z" fill="white"/>
</svg>
