<svg width="263" height="61" viewBox="0 0 263 61" fill="none" xmlns="http://www.w3.org/2000/svg">
<g clip-path="url(#clip0_257_112)">
<path d="M80.9073 48.312H79.5455V59.2286H80.9073V48.312Z" fill="#F2F2F2"/>
<path d="M83.2294 59.2287V51.1962H84.4574L84.5386 52.1136C84.9161 51.7964 85.3557 51.5378 85.8574 51.3328C86.3591 51.1279 86.9372 51.0254 87.5918 51.0254C88.5857 51.0254 89.3119 51.2645 89.7658 51.7379C90.2198 52.2112 90.4443 52.9579 90.4443 53.9778V59.2336H89.0826V54.0315C89.0826 53.3288 88.944 52.8408 88.6669 52.5626C88.3898 52.2844 87.8594 52.1478 87.0758 52.1478C86.5884 52.1478 86.1297 52.2356 85.6997 52.4162C85.2697 52.5968 84.897 52.8456 84.5864 53.1628V59.2287H83.2246H83.2294Z" fill="#F2F2F2"/>
<path d="M92.69 59.2287V51.1962H93.918L93.9992 52.1136C94.3767 51.7964 94.8163 51.5378 95.318 51.3328C95.8197 51.1279 96.3978 51.0254 97.0524 51.0254C98.0463 51.0254 98.7725 51.2645 99.2264 51.7379C99.6804 52.2112 99.9049 52.9579 99.9049 53.9778V59.2336H98.5432V54.0315C98.5432 53.3288 98.4046 52.8408 98.1275 52.5626C97.8503 52.2844 97.32 52.1478 96.5364 52.1478C96.049 52.1478 95.5903 52.2356 95.1603 52.4162C94.7303 52.5968 94.3576 52.8456 94.047 53.1628V59.2287H92.6852H92.69Z" fill="#F2F2F2"/>
<path d="M105.486 59.3995C104.114 59.3995 103.116 59.0384 102.49 58.321C101.864 57.6036 101.553 56.5642 101.553 55.2124C101.553 53.8607 101.869 52.831 102.499 52.1088C103.13 51.3865 104.124 51.0254 105.486 51.0254C106.847 51.0254 107.841 51.3865 108.472 52.1088C109.103 52.831 109.418 53.8656 109.418 55.2124C109.418 56.5593 109.108 57.6036 108.486 58.321C107.865 59.0384 106.867 59.3995 105.481 59.3995M105.481 58.2136C106.422 58.2136 107.086 57.9745 107.473 57.4914C107.86 57.0132 108.056 56.2519 108.056 55.2124C108.056 54.173 107.86 53.4117 107.469 52.9335C107.077 52.4552 106.413 52.2112 105.486 52.2112C104.559 52.2112 103.895 52.4504 103.503 52.9335C103.111 53.4166 102.915 54.173 102.915 55.2124C102.915 56.2519 103.111 57.0132 103.498 57.4914C103.885 57.9745 104.549 58.2136 105.491 58.2136" fill="#F2F2F2"/>
<path d="M113.255 59.2288L110.168 51.1963H111.578L114.019 57.9404L116.456 51.1963H117.866L114.779 59.2288H113.255Z" fill="#F2F2F2"/>
<path d="M121.22 59.3995C120.723 59.3995 120.264 59.3067 119.844 59.1262C119.423 58.9456 119.089 58.6772 118.831 58.321C118.578 57.9647 118.449 57.5158 118.449 56.9741C118.449 56.2372 118.688 55.637 119.161 55.1685C119.634 54.7 120.412 54.4658 121.483 54.4658H124.221V53.9729C124.221 53.5337 124.163 53.1823 124.049 52.9237C123.934 52.6651 123.714 52.4747 123.394 52.3625C123.074 52.2503 122.601 52.1917 121.984 52.1917C121.507 52.1917 121.048 52.2307 120.608 52.3088C120.164 52.3869 119.748 52.4943 119.366 52.6309V51.4792C119.72 51.3426 120.135 51.2352 120.618 51.1474C121.101 51.0595 121.617 51.0205 122.171 51.0205C123.289 51.0205 124.125 51.2547 124.684 51.7135C125.243 52.1771 125.52 52.9286 125.52 53.968V59.2238H124.373L124.273 58.3112C123.929 58.6723 123.513 58.9456 123.031 59.1262C122.543 59.3067 121.941 59.3995 121.225 59.3995M121.574 58.2624C122.152 58.2624 122.658 58.1551 123.098 57.9501C123.542 57.7403 123.915 57.4572 124.225 57.0961V55.5394H121.521C120.9 55.5394 120.46 55.6565 120.193 55.8956C119.925 56.1347 119.796 56.4959 119.796 56.979C119.796 57.4621 119.959 57.7988 120.279 57.9891C120.599 58.1746 121.029 58.2673 121.574 58.2673" fill="#F2F2F2"/>
<path d="M130.628 59.3996C129.854 59.3996 129.271 59.1898 128.879 58.7652C128.487 58.3407 128.292 57.7502 128.292 56.9938V52.2992H127.097V51.1964H128.292V49.2151L129.653 48.7905V51.1964H131.827L131.746 52.2992H129.653V56.9255C129.653 57.4086 129.763 57.76 129.978 57.9698C130.193 58.1796 130.566 58.2821 131.101 58.2821C131.388 58.2821 131.703 58.2236 132.047 58.1113V59.1605C131.636 59.3167 131.168 59.3996 130.638 59.3996" fill="#F2F2F2"/>
<path d="M134.164 59.2289V52.2944H132.95L133.084 51.1915H135.526V59.224H134.164V59.2289ZM134.03 48.0439H135.54V49.3176H134.03V48.0439Z" fill="#F2F2F2"/>
<path d="M140.289 59.2288L137.203 51.1963H138.612L141.054 57.9404L143.491 51.1963H144.9L141.813 59.2288H140.289Z" fill="#F2F2F2"/>
<path d="M149.85 59.3995C148.445 59.3995 147.394 59.0579 146.697 58.3649C145.999 57.6768 145.65 56.613 145.65 55.1783C145.65 53.89 145.951 52.8749 146.553 52.1332C147.155 51.3914 148.111 51.0254 149.415 51.0254C150.189 51.0254 150.83 51.1718 151.331 51.4597C151.833 51.7476 152.211 52.1429 152.459 52.6456C152.708 53.1482 152.832 53.7143 152.832 54.3487V55.8566H147.007C147.05 56.4666 147.179 56.9497 147.399 57.2962C147.614 57.6476 147.939 57.8964 148.379 58.0526C148.818 58.2039 149.392 58.282 150.113 58.282C150.921 58.282 151.661 58.1404 152.335 57.8574V58.9408C151.991 59.0872 151.609 59.1994 151.183 59.2775C150.758 59.3556 150.309 59.3946 149.845 59.3946M147.007 54.8513H151.623V54.1876C151.623 53.5337 151.456 53.0262 151.116 52.67C150.777 52.3137 150.223 52.138 149.449 52.138C148.508 52.138 147.867 52.3625 147.523 52.8164C147.179 53.2702 147.007 53.9485 147.007 54.8513Z" fill="#F2F2F2"/>
<path d="M161.533 59.2286V49.4149H157.983V48.312H166.445V49.4149H162.894V59.2286H161.533Z" fill="#F2F2F2"/>
<path d="M170.229 59.3995C168.824 59.3995 167.773 59.0579 167.075 58.3649C166.378 57.6768 166.029 56.613 166.029 55.1783C166.029 53.89 166.33 52.8749 166.932 52.1332C167.534 51.3914 168.49 51.0254 169.794 51.0254C170.568 51.0254 171.208 51.1718 171.71 51.4597C172.212 51.7476 172.589 52.1429 172.838 52.6456C173.086 53.1482 173.21 53.7143 173.21 54.3487V55.8566H167.386C167.429 56.4666 167.558 56.9497 167.773 57.2962C167.988 57.6476 168.318 57.8964 168.752 58.0526C169.192 58.2039 169.77 58.282 170.487 58.282C171.294 58.282 172.035 58.1404 172.713 57.8574V58.9408C172.369 59.0872 171.987 59.1994 171.562 59.2775C171.137 59.3556 170.692 59.3946 170.224 59.3946M167.386 54.8513H171.997V54.1876C171.997 53.5337 171.829 53.0262 171.49 52.67C171.151 52.3137 170.597 52.138 169.823 52.138C168.881 52.138 168.241 52.3625 167.897 52.8164C167.553 53.2702 167.381 53.9485 167.381 54.8513" fill="#F2F2F2"/>
<path d="M178.925 59.3995C177.554 59.3995 176.536 59.0335 175.872 58.3064C175.208 57.5792 174.878 56.5447 174.878 55.2124C174.878 53.8021 175.255 52.748 176.005 52.06C176.76 51.3719 177.769 51.0254 179.044 51.0254C179.565 51.0254 179.995 51.0596 180.339 51.1376C180.683 51.2108 181.013 51.328 181.333 51.4841V52.587C180.736 52.2942 180.052 52.1478 179.293 52.1478C178.318 52.1478 177.568 52.382 177.038 52.8505C176.507 53.319 176.24 54.1096 176.24 55.2173C176.24 56.3251 176.474 57.0571 176.937 57.55C177.401 58.0428 178.17 58.2868 179.245 58.2868C180.01 58.2868 180.712 58.1404 181.352 57.8476V58.9652C181.008 59.1116 180.64 59.2238 180.248 59.297C179.857 59.3702 179.417 59.4092 178.93 59.4092" fill="#F2F2F2"/>
<path d="M182.876 59.2288V47.8047H184.238V52.06C184.606 51.7575 185.031 51.5037 185.523 51.3134C186.016 51.1231 186.589 51.0255 187.244 51.0255C188.194 51.0255 188.906 51.2646 189.384 51.738C189.862 52.2113 190.096 52.958 190.096 53.9779V59.2336H188.734V54.0316C188.734 53.3288 188.581 52.8408 188.28 52.5627C187.975 52.2845 187.478 52.1479 186.78 52.1479C186.336 52.1479 185.882 52.2455 185.409 52.4456C184.94 52.6456 184.549 52.8994 184.238 53.2166V59.2336H182.876V59.2288Z" fill="#F2F2F2"/>
<path d="M199.289 59.3998C197.961 59.3998 196.89 59.229 196.069 58.8922V57.6576C196.532 57.8382 197.029 57.9748 197.555 58.0724C198.08 58.17 198.62 58.2188 199.17 58.2188C200.12 58.2188 200.832 58.087 201.31 57.8186C201.783 57.5551 202.022 57.0769 202.022 56.3839C202.022 55.9545 201.927 55.6129 201.731 55.3591C201.54 55.1054 201.219 54.8906 200.78 54.715C200.335 54.5393 199.743 54.3636 199.002 54.1782C197.832 53.8854 197.005 53.5047 196.527 53.0362C196.05 52.5678 195.815 51.9382 195.815 51.1477C195.815 50.2205 196.14 49.4885 196.795 48.9517C197.449 48.4149 198.443 48.1465 199.781 48.1465C200.402 48.1465 200.976 48.1904 201.506 48.2831C202.036 48.371 202.447 48.4686 202.734 48.571V49.791C202.337 49.6446 201.903 49.5324 201.439 49.4543C200.976 49.3762 200.493 49.3372 199.996 49.3372C199.088 49.3372 198.391 49.4738 197.903 49.7422C197.416 50.0106 197.172 50.484 197.172 51.1477C197.172 51.5234 197.258 51.826 197.43 52.0554C197.602 52.2896 197.894 52.4848 198.3 52.6507C198.711 52.8166 199.28 52.9874 200.011 53.168C200.885 53.3827 201.563 53.6414 202.051 53.939C202.538 54.2367 202.882 54.593 203.078 54.998C203.279 55.403 203.379 55.8715 203.379 56.3888C203.379 57.3502 203.035 58.0919 202.352 58.619C201.669 59.146 200.641 59.4095 199.284 59.4095" fill="#F2F2F2"/>
<path d="M208.979 59.3995C207.608 59.3995 206.609 59.0384 205.983 58.321C205.357 57.6036 205.047 56.5642 205.047 55.2124C205.047 53.8607 205.362 52.831 205.993 52.1088C206.623 51.3865 207.617 51.0254 208.979 51.0254C210.341 51.0254 211.335 51.3865 211.965 52.1088C212.596 52.831 212.911 53.8656 212.911 55.2124C212.911 56.5593 212.601 57.6036 211.98 58.321C211.358 59.0384 210.36 59.3995 208.974 59.3995M208.974 58.2136C209.916 58.2136 210.58 57.9745 210.967 57.4914C211.354 57.0132 211.55 56.2519 211.55 55.2124C211.55 54.173 211.354 53.4117 210.962 52.9335C210.57 52.4552 209.906 52.2112 208.979 52.2112C208.052 52.2112 207.388 52.4504 206.996 52.9335C206.604 53.4166 206.408 54.173 206.408 55.2124C206.408 56.2519 206.604 57.0132 206.991 57.4914C207.378 57.9745 208.043 58.2136 208.984 58.2136" fill="#F2F2F2"/>
<path d="M216.614 59.3996C216.084 59.3996 215.664 59.2532 215.363 58.9701C215.057 58.6822 214.904 58.1942 214.904 57.5012V47.8047H216.266V57.3451C216.266 57.6867 216.323 57.916 216.433 58.0429C216.543 58.1698 216.715 58.2284 216.949 58.2284C217.202 58.2284 217.451 58.1942 217.694 58.1259V59.2288C217.517 59.2971 217.341 59.341 217.164 59.3654C216.987 59.3898 216.805 59.3996 216.614 59.3996Z" fill="#F2F2F2"/>
<path d="M221.627 59.3996C220.685 59.3996 219.973 59.136 219.496 58.6041C219.013 58.0722 218.774 57.2963 218.774 56.2812V51.1963H220.136V56.33C220.136 56.9986 220.298 57.4915 220.623 57.8038C220.948 58.121 221.455 58.2772 222.143 58.2772C222.63 58.2772 223.089 58.1844 223.519 58.0088C223.949 57.8282 224.321 57.5793 224.632 57.2621V51.1914H225.994V59.2239H224.766L224.685 58.3113C224.307 58.6285 223.863 58.8872 223.342 59.0921C222.821 59.2971 222.253 59.3947 221.631 59.3947" fill="#F2F2F2"/>
<path d="M231.183 59.3996C230.409 59.3996 229.826 59.1898 229.434 58.7652C229.042 58.3407 228.846 57.7502 228.846 56.9938V52.2992H227.652V51.1964H228.846V49.2151L230.208 48.7905V51.1964H232.382L232.301 52.2992H230.208V56.9255C230.208 57.4086 230.318 57.76 230.533 57.9698C230.748 58.1796 231.121 58.2821 231.651 58.2821C231.938 58.2821 232.253 58.2236 232.597 58.1113V59.1605C232.186 59.3167 231.718 59.3996 231.188 59.3996" fill="#F2F2F2"/>
<path d="M234.719 59.2289V52.2944H233.505L233.639 51.1915H236.08V59.224H234.719V59.2289ZM234.585 48.0439H236.095V49.3176H234.585V48.0439Z" fill="#F2F2F2"/>
<path d="M242.024 59.3995C240.653 59.3995 239.654 59.0384 239.028 58.321C238.402 57.6036 238.092 56.5642 238.092 55.2124C238.092 53.8607 238.407 52.831 239.038 52.1088C239.669 51.3865 240.662 51.0254 242.024 51.0254C243.386 51.0254 244.38 51.3865 245.011 52.1088C245.641 52.831 245.957 53.8656 245.957 55.2124C245.957 56.5593 245.646 57.6036 245.025 58.321C244.404 59.0384 243.405 59.3995 242.019 59.3995M242.019 58.2136C242.961 58.2136 243.625 57.9745 244.012 57.4914C244.399 57.0132 244.595 56.2519 244.595 55.2124C244.595 54.173 244.399 53.4117 244.007 52.9335C243.615 52.4552 242.951 52.2112 242.024 52.2112C241.097 52.2112 240.433 52.4504 240.041 52.9335C239.65 53.4166 239.454 54.173 239.454 55.2124C239.454 56.2519 239.65 57.0132 240.037 57.4914C240.424 57.9745 241.088 58.2136 242.029 58.2136" fill="#F2F2F2"/>
<path d="M247.944 59.2287V51.1962H249.172L249.253 52.1136C249.631 51.7964 250.07 51.5378 250.572 51.3328C251.074 51.1279 251.652 51.0254 252.307 51.0254C253.3 51.0254 254.027 51.2645 254.481 51.7379C254.935 52.2112 255.159 52.9579 255.159 53.9778V59.2336H253.797V54.0315C253.797 53.3288 253.659 52.8408 253.382 52.5626C253.105 52.2844 252.574 52.1478 251.791 52.1478C251.303 52.1478 250.845 52.2356 250.415 52.4162C249.984 52.5968 249.612 52.8456 249.301 53.1628V59.2287H247.939H247.944Z" fill="#F2F2F2"/>
<path d="M259.88 59.3995C259.373 59.3995 258.886 59.3653 258.427 59.297C257.969 59.2287 257.582 59.1408 257.276 59.0237V57.8037C257.653 57.9404 258.045 58.0428 258.461 58.1063C258.877 58.1746 259.287 58.2088 259.698 58.2088C260.396 58.2088 260.893 58.1307 261.194 57.9794C261.49 57.8281 261.643 57.5402 261.643 57.1254C261.643 56.818 261.562 56.5886 261.404 56.4324C261.242 56.2714 260.998 56.1347 260.673 56.0079C260.348 55.881 259.928 55.7346 259.421 55.5687C258.967 55.4125 258.566 55.2466 258.208 55.0758C257.854 54.905 257.577 54.6805 257.376 54.3877C257.176 54.0998 257.075 53.7143 257.075 53.2263C257.075 52.5138 257.319 51.9672 257.806 51.5915C258.294 51.2157 259.077 51.0254 260.162 51.0254C260.582 51.0254 260.984 51.0547 261.375 51.1181C261.762 51.1816 262.097 51.2548 262.388 51.3475V52.5675C261.691 52.3284 261.022 52.2112 260.382 52.2112C259.694 52.2112 259.201 52.2796 258.896 52.4211C258.59 52.5626 258.437 52.8261 258.437 53.2068C258.437 53.4654 258.509 53.6752 258.642 53.8265C258.781 53.9778 258.996 54.1096 259.292 54.2169C259.584 54.3243 259.966 54.456 260.429 54.6171C261.036 54.8074 261.528 55.0075 261.906 55.2124C262.283 55.4174 262.56 55.6663 262.737 55.9591C262.914 56.2519 263 56.6374 263 57.1108C263 57.9013 262.728 58.482 262.188 58.848C261.648 59.214 260.879 59.3995 259.88 59.3995Z" fill="#F2F2F2"/>
<path d="M79.493 38.5909V3.10352H86.7795V18.1486L100.158 3.10352H108.525L95.9534 17.4849L109.17 38.5909H101.4L91.419 22.2282L86.7795 27.3522V38.5909H79.493Z" fill="#F2F2F2"/>
<path d="M120.016 39.1423C117.536 39.1423 115.725 38.5567 114.593 37.3807C113.46 36.2046 112.892 34.3307 112.892 31.7589V1.44922H120.174V31.1538C120.174 32.0712 120.355 32.7056 120.713 33.057C121.072 33.4083 121.593 33.5791 122.276 33.5791C123.212 33.5791 124.058 33.4523 124.813 33.1936V38.3225C123.447 38.8739 121.846 39.1472 120.011 39.1472" fill="#F2F2F2"/>
<path d="M141.761 39.1425C136.978 39.1425 133.471 37.9567 131.24 35.5899C129.008 33.2182 127.895 29.8705 127.895 25.5322C127.895 21.1939 129.018 17.8462 131.268 15.4745C133.519 13.1077 137.016 11.9219 141.761 11.9219C146.506 11.9219 150.06 13.1077 152.311 15.4745C154.561 17.8462 155.684 21.1988 155.684 25.5322C155.684 29.8656 154.566 33.2182 152.34 35.5899C150.108 37.9616 146.582 39.1425 141.766 39.1425M141.766 32.8034C144.102 32.8034 145.779 32.2617 146.783 31.1784C147.791 30.095 148.293 28.2113 148.293 25.5322C148.293 22.8531 147.791 20.9694 146.783 19.886C145.775 18.8027 144.102 18.261 141.766 18.261C139.429 18.261 137.809 18.8027 136.801 19.886C135.793 20.9694 135.291 22.8531 135.291 25.5322C135.291 28.2113 135.793 30.0999 136.801 31.1784C137.809 32.2617 139.463 32.8034 141.766 32.8034Z" fill="#F2F2F2"/>
<path d="M170.195 39.1423C167.137 39.1423 164.753 38.2688 163.047 36.5267C161.337 34.7845 160.486 32.2176 160.486 28.8407V12.4731H167.773V28.6747C167.773 30.4364 168.184 31.715 169.015 32.5055C169.842 33.2961 171.084 33.6914 172.737 33.6914C173.999 33.6914 175.155 33.4376 176.216 32.9203C177.276 32.4031 178.184 31.7638 178.939 30.9927V12.4731H186.221V38.5958H179.474L179.207 36.1167C178.127 37 176.861 37.7223 175.403 38.2932C173.946 38.8642 172.212 39.1472 170.195 39.1472" fill="#F2F2F2"/>
<path d="M202.567 39.1422C199.619 39.1422 197.43 38.3517 196.011 36.7705C194.587 35.1894 193.88 33.0422 193.88 30.3241V18.2021H190.263V12.473H193.88V6.85127L201.162 4.64551V12.473H207.636L207.206 18.2021H201.162V29.8312C201.162 31.2659 201.487 32.2468 202.132 32.7787C202.782 33.3106 203.785 33.579 205.157 33.579C206.165 33.579 207.206 33.3936 208.286 33.0276V38.1516C207.493 38.4834 206.633 38.7323 205.696 38.8933C204.76 39.0593 203.718 39.1422 202.567 39.1422Z" fill="#F2F2F2"/>
<path d="M225.339 39.1474C220.915 39.1474 217.408 38.0152 214.818 35.7558C212.228 33.4964 210.933 30.0706 210.933 25.4785C210.933 21.3256 212.023 18.0316 214.197 15.5868C216.371 13.1419 219.62 11.9219 223.934 11.9219C227.891 11.9219 230.92 12.976 233.027 15.089C235.129 17.202 236.185 19.9641 236.185 23.3801V28.1186H217.68C218.076 30.2121 219.018 31.6468 220.513 32.4179C222.009 33.1889 224.121 33.5744 226.854 33.5744C228.22 33.5744 229.616 33.4476 231.035 33.1889C232.454 32.9352 233.667 32.6033 234.676 32.1983V37.4882C233.491 38.0396 232.105 38.4544 230.519 38.7277C228.937 39.001 227.207 39.1425 225.339 39.1425M217.675 23.546H229.816V22.1113C229.816 20.6034 229.386 19.4224 228.521 18.5587C227.657 17.6949 226.199 17.2606 224.149 17.2606C221.741 17.2606 220.059 17.7584 219.104 18.749C218.148 19.7396 217.675 21.3403 217.675 23.5412" fill="#F2F2F2"/>
<path d="M254.313 39.1425C249.746 39.1425 246.248 37.986 243.821 35.6728C241.394 33.3597 240.18 29.9779 240.18 25.5322C240.18 21.0865 241.484 17.5241 244.093 15.2842C246.702 13.0443 250.18 11.9219 254.533 11.9219C256.33 11.9219 257.878 12.0488 259.173 12.3074C260.468 12.566 261.724 12.9857 262.947 13.5762V18.9198C262.049 18.4806 261.008 18.1292 259.818 17.8755C258.633 17.6168 257.352 17.49 255.986 17.49C253.253 17.49 251.165 18.0707 249.726 19.2272C248.288 20.3838 247.567 22.4871 247.567 25.5371C247.567 28.3284 248.226 30.3683 249.535 31.6517C250.849 32.94 252.98 33.5793 255.928 33.5793C257.185 33.5793 258.418 33.4524 259.627 33.1938C260.831 32.94 261.954 32.5545 263 32.0372V37.5468C260.587 38.6106 257.692 39.1474 254.313 39.1474" fill="#F2F2F2"/>
<path d="M0.539923 0H28.3818C28.5252 0 28.6398 0.11712 28.6398 0.26352L19.6809 60.7414C19.6809 60.8878 19.5662 61.0049 19.4229 61.0049H0.539923C0.243682 61.0049 0 60.7609 0 60.4534V0.54656C0 0.244 0.238904 0 0.539923 0Z" fill="#5CD180"/>
<path d="M57.8339 0C58.111 0 58.283 0.31232 58.1397 0.55632L47.4798 18.7002C43.213 25.9665 43.213 35.0433 47.4798 42.3047L58.1397 60.4486C58.283 60.6926 58.111 61.0049 57.8339 61.0049H30.1879C29.992 61.0049 29.8296 60.839 29.8296 60.6389V0.366C29.8343 0.16592 29.992 0 30.1879 0H57.8339Z" fill="#5CD180"/>
</g>
<defs>
<clipPath id="clip0_257_112">
<rect width="263" height="61" fill="white"/>
</clipPath>
</defs>
</svg>
