<svg width="287" height="64" viewBox="0 0 287 64" fill="none" xmlns="http://www.w3.org/2000/svg">
<g clip-path="url(#clip0_233_49)">
<path d="M88.2904 50.688H86.8044V62.1414H88.2904V50.688Z" fill="#2C3E50"/>
<path d="M90.8245 62.1415V53.7139H92.1645L92.2532 54.6765C92.6651 54.3437 93.1448 54.0723 93.6923 53.8573C94.2397 53.6423 94.8706 53.5347 95.585 53.5347C96.6695 53.5347 97.462 53.7856 97.9574 54.2822C98.4527 54.7789 98.6978 55.5623 98.6978 56.6323V62.1466H97.2118V56.6887C97.2118 55.9514 97.0606 55.4394 96.7581 55.1475C96.4557 54.8557 95.877 54.7123 95.0219 54.7123C94.49 54.7123 93.9895 54.8045 93.5202 54.9939C93.0509 55.1834 92.6442 55.4445 92.3053 55.7773V62.1415H90.8193H90.8245Z" fill="#2C3E50"/>
<path d="M101.148 62.1415V53.7139H102.488L102.577 54.6765C102.989 54.3437 103.469 54.0723 104.016 53.8573C104.564 53.6423 105.195 53.5347 105.909 53.5347C106.993 53.5347 107.786 53.7856 108.281 54.2822C108.777 54.7789 109.022 55.5623 109.022 56.6323V62.1466H107.536V56.6887C107.536 55.9514 107.385 55.4394 107.082 55.1475C106.78 54.8557 106.201 54.7123 105.346 54.7123C104.814 54.7123 104.313 54.8045 103.844 54.9939C103.375 55.1834 102.968 55.4445 102.629 55.7773V62.1415H101.143H101.148Z" fill="#2C3E50"/>
<path d="M115.112 62.3207C113.615 62.3207 112.526 61.9418 111.843 61.1891C111.16 60.4365 110.821 59.3459 110.821 57.9277C110.821 56.5095 111.165 55.4291 111.853 54.6714C112.541 53.9136 113.626 53.5347 115.112 53.5347C116.598 53.5347 117.682 53.9136 118.371 54.6714C119.059 55.4291 119.403 56.5146 119.403 57.9277C119.403 59.3408 119.064 60.4365 118.386 61.1891C117.708 61.9418 116.619 62.3207 115.107 62.3207M115.107 61.0765C116.134 61.0765 116.859 60.8256 117.281 60.3187C117.703 59.817 117.917 59.0183 117.917 57.9277C117.917 56.8371 117.703 56.0384 117.276 55.5367C116.848 55.0349 116.123 54.7789 115.112 54.7789C114.1 54.7789 113.375 55.0298 112.948 55.5367C112.52 56.0435 112.307 56.8371 112.307 57.9277C112.307 59.0183 112.52 59.817 112.943 60.3187C113.365 60.8256 114.09 61.0765 115.117 61.0765" fill="#2C3E50"/>
<path d="M123.59 62.1414L120.222 53.7139H121.76L124.424 60.7898L127.083 53.7139H128.622L125.253 62.1414H123.59Z" fill="#2C3E50"/>
<path d="M132.282 62.3206C131.74 62.3206 131.239 62.2234 130.78 62.0339C130.321 61.8445 129.956 61.5629 129.675 61.1891C129.398 60.8154 129.258 60.3443 129.258 59.776C129.258 59.0029 129.518 58.3731 130.035 57.8816C130.551 57.3901 131.401 57.1443 132.569 57.1443H135.556V56.6272C135.556 56.1664 135.494 55.7978 135.369 55.5264C135.243 55.255 135.004 55.0554 134.654 54.9376C134.305 54.8198 133.789 54.7584 133.116 54.7584C132.595 54.7584 132.094 54.7994 131.614 54.8813C131.13 54.9632 130.676 55.0758 130.259 55.2192V54.0109C130.645 53.8675 131.098 53.7549 131.625 53.6627C132.151 53.5706 132.715 53.5296 133.319 53.5296C134.54 53.5296 135.452 53.7754 136.062 54.2566C136.672 54.743 136.975 55.5315 136.975 56.6221V62.1363H135.723L135.614 61.1789C135.238 61.5578 134.785 61.8445 134.258 62.0339C133.726 62.2234 133.069 62.3206 132.287 62.3206M132.668 61.1277C133.299 61.1277 133.851 61.015 134.331 60.8C134.816 60.5798 135.223 60.2829 135.562 59.904V58.2707H132.61C131.933 58.2707 131.453 58.3936 131.161 58.6445C130.869 58.8954 130.728 59.2742 130.728 59.7811C130.728 60.288 130.905 60.6413 131.255 60.841C131.604 61.0355 132.073 61.1328 132.668 61.1328" fill="#2C3E50"/>
<path d="M142.548 62.3206C141.704 62.3206 141.068 62.1005 140.64 61.655C140.213 61.2096 139.999 60.5901 139.999 59.7965V54.871H138.695V53.7139H139.999V51.6352L141.485 51.1898V53.7139H143.857L143.769 54.871H141.485V59.7248C141.485 60.2317 141.605 60.6003 141.839 60.8205C142.074 61.0406 142.481 61.1482 143.065 61.1482C143.377 61.1482 143.722 61.0867 144.097 60.969V62.0698C143.649 62.2336 143.138 62.3206 142.559 62.3206" fill="#2C3E50"/>
<path d="M146.407 62.1414V54.8659H145.082L145.228 53.7088H147.893V62.1363H146.407V62.1414ZM146.261 50.4064H147.909V51.7427H146.261V50.4064Z" fill="#2C3E50"/>
<path d="M153.091 62.1414L149.723 53.7139H151.261L153.926 60.7898L156.585 53.7139H158.123L154.755 62.1414H153.091Z" fill="#2C3E50"/>
<path d="M163.525 62.3207C161.992 62.3207 160.845 61.9623 160.083 61.2352C159.322 60.5133 158.942 59.3971 158.942 57.8919C158.942 56.5402 159.27 55.4752 159.927 54.697C160.584 53.9187 161.627 53.5347 163.05 53.5347C163.895 53.5347 164.594 53.6883 165.141 53.9904C165.689 54.2925 166.101 54.7072 166.372 55.2346C166.643 55.7619 166.778 56.3559 166.778 57.0215V58.6035H160.422C160.469 59.2435 160.61 59.7504 160.85 60.1139C161.085 60.4826 161.439 60.7437 161.919 60.9075C162.399 61.0663 163.024 61.1482 163.812 61.1482C164.693 61.1482 165.501 60.9997 166.236 60.7027V61.8394C165.861 61.993 165.444 62.1107 164.98 62.1927C164.515 62.2746 164.025 62.3155 163.52 62.3155M160.422 57.5488H165.459V56.8525C165.459 56.1664 165.277 55.6339 164.906 55.2602C164.536 54.8864 163.931 54.7021 163.087 54.7021C162.06 54.7021 161.361 54.9376 160.985 55.4138C160.61 55.8899 160.422 56.6016 160.422 57.5488Z" fill="#2C3E50"/>
<path d="M176.273 62.1414V51.8451H172.399V50.688H181.633V51.8451H177.759V62.1414H176.273Z" fill="#2C3E50"/>
<path d="M185.763 62.3207C184.23 62.3207 183.083 61.9623 182.322 61.2352C181.56 60.5133 181.18 59.3971 181.18 57.8919C181.18 56.5402 181.508 55.4752 182.165 54.697C182.822 53.9187 183.865 53.5347 185.288 53.5347C186.133 53.5347 186.832 53.6883 187.379 53.9904C187.927 54.2925 188.339 54.7072 188.61 55.2346C188.881 55.7619 189.017 56.3559 189.017 57.0215V58.6035H182.661C182.707 59.2435 182.848 59.7504 183.083 60.1139C183.317 60.4826 183.677 60.7437 184.152 60.9075C184.631 61.0663 185.262 61.1482 186.044 61.1482C186.926 61.1482 187.734 60.9997 188.474 60.7027V61.8394C188.099 61.993 187.682 62.1107 187.218 62.1927C186.754 62.2746 186.269 62.3155 185.758 62.3155M182.661 57.5488H187.692V56.8525C187.692 56.1664 187.51 55.6339 187.139 55.2602C186.769 54.8864 186.164 54.7021 185.32 54.7021C184.293 54.7021 183.594 54.9376 183.218 55.4138C182.843 55.8899 182.655 56.6016 182.655 57.5488" fill="#2C3E50"/>
<path d="M195.253 62.3207C193.756 62.3207 192.646 61.9367 191.921 61.1738C191.196 60.4109 190.836 59.3254 190.836 57.9277C190.836 56.448 191.248 55.3421 192.067 54.6202C192.891 53.8983 193.991 53.5347 195.383 53.5347C195.951 53.5347 196.421 53.5706 196.796 53.6525C197.171 53.7293 197.531 53.8522 197.881 54.016V55.1731C197.229 54.8659 196.483 54.7123 195.654 54.7123C194.59 54.7123 193.772 54.9581 193.193 55.4496C192.614 55.9411 192.322 56.7706 192.322 57.9328C192.322 59.0951 192.578 59.863 193.084 60.3802C193.589 60.8973 194.429 61.1533 195.602 61.1533C196.436 61.1533 197.203 60.9997 197.901 60.6925V61.865C197.526 62.0186 197.124 62.1363 196.697 62.2131C196.269 62.2899 195.79 62.3309 195.258 62.3309" fill="#2C3E50"/>
<path d="M199.565 62.1414V50.1555H201.051V54.6202C201.452 54.3027 201.916 54.0365 202.453 53.8368C202.99 53.6371 203.616 53.5347 204.33 53.5347C205.368 53.5347 206.145 53.7856 206.666 54.2822C207.188 54.7789 207.443 55.5622 207.443 56.6323V62.1466H205.957V56.6886C205.957 55.9514 205.79 55.4394 205.462 55.1475C205.128 54.8557 204.586 54.7123 203.825 54.7123C203.34 54.7123 202.844 54.8147 202.328 55.0246C201.817 55.2346 201.39 55.5008 201.051 55.8336V62.1466H199.565V62.1414Z" fill="#2C3E50"/>
<path d="M217.475 62.3206C216.026 62.3206 214.858 62.1414 213.961 61.7882V60.4928C214.467 60.6822 215.009 60.8256 215.582 60.928C216.156 61.0304 216.745 61.0816 217.345 61.0816C218.382 61.0816 219.159 60.9434 219.681 60.6618C220.197 60.3853 220.458 59.8835 220.458 59.1565C220.458 58.7059 220.353 58.3475 220.14 58.0813C219.931 57.815 219.582 57.5898 219.102 57.4054C218.617 57.2211 217.97 57.0368 217.162 56.8422C215.885 56.535 214.983 56.1357 214.461 55.6442C213.94 55.1526 213.684 54.4922 213.684 53.6627C213.684 52.6899 214.039 51.9219 214.753 51.3587C215.468 50.7955 216.552 50.5139 218.012 50.5139C218.69 50.5139 219.316 50.56 219.894 50.6573C220.473 50.7494 220.922 50.8518 221.234 50.9594V52.2394C220.802 52.0858 220.327 51.968 219.821 51.8861C219.316 51.8042 218.789 51.7632 218.247 51.7632C217.256 51.7632 216.495 51.9066 215.963 52.1882C215.431 52.4698 215.165 52.9664 215.165 53.6627C215.165 54.057 215.259 54.3744 215.447 54.615C215.635 54.8608 215.953 55.0656 216.396 55.2397C216.844 55.4138 217.465 55.593 218.262 55.7824C219.217 56.0077 219.957 56.279 220.489 56.5914C221.021 56.9037 221.396 57.2774 221.61 57.7024C221.829 58.1274 221.938 58.6189 221.938 59.1616C221.938 60.1702 221.563 60.9485 220.817 61.5014C220.072 62.0544 218.951 62.3309 217.47 62.3309" fill="#2C3E50"/>
<path d="M228.049 62.3207C226.553 62.3207 225.463 61.9418 224.78 61.1891C224.097 60.4365 223.758 59.3459 223.758 57.9277C223.758 56.5095 224.102 55.4291 224.791 54.6714C225.479 53.9136 226.563 53.5347 228.049 53.5347C229.535 53.5347 230.62 53.9136 231.308 54.6714C231.996 55.4291 232.341 56.5146 232.341 57.9277C232.341 59.3408 232.002 60.4365 231.324 61.1891C230.646 61.9418 229.556 62.3207 228.044 62.3207M228.044 61.0765C229.071 61.0765 229.796 60.8256 230.218 60.3187C230.641 59.817 230.855 59.0183 230.855 57.9277C230.855 56.8371 230.641 56.0384 230.213 55.5367C229.786 55.0349 229.061 54.7789 228.049 54.7789C227.038 54.7789 226.313 55.0298 225.885 55.5367C225.458 56.0435 225.244 56.8371 225.244 57.9277C225.244 59.0183 225.458 59.817 225.88 60.3187C226.303 60.8256 227.027 61.0765 228.055 61.0765" fill="#2C3E50"/>
<path d="M236.381 62.3206C235.803 62.3206 235.344 62.167 235.015 61.8701C234.682 61.568 234.515 61.056 234.515 60.329V50.1555H236.001V60.1651C236.001 60.5235 236.063 60.7642 236.183 60.8973C236.303 61.0304 236.491 61.0918 236.746 61.0918C237.023 61.0918 237.294 61.056 237.56 60.9843V62.1414C237.367 62.2131 237.174 62.2592 236.981 62.2848C236.788 62.3104 236.59 62.3206 236.381 62.3206Z" fill="#2C3E50"/>
<path d="M241.851 62.3206C240.824 62.3206 240.047 62.0442 239.526 61.4861C238.999 60.928 238.738 60.1139 238.738 59.049V53.7139H240.224V59.1002C240.224 59.8016 240.402 60.3187 240.756 60.6464C241.111 60.9792 241.663 61.143 242.414 61.143C242.946 61.143 243.447 61.0458 243.916 60.8614C244.385 60.672 244.792 60.4109 245.131 60.0781V53.7088H246.617V62.1363H245.277L245.188 61.1789C244.776 61.5117 244.291 61.783 243.723 61.9981C243.155 62.2131 242.534 62.3155 241.856 62.3155" fill="#2C3E50"/>
<path d="M252.279 62.3206C251.435 62.3206 250.798 62.1005 250.371 61.655C249.943 61.2096 249.73 60.5901 249.73 59.7965V54.871H248.426V53.7139H249.73V51.6352L251.216 51.1898V53.7139H253.588L253.499 54.871H251.216V59.7248C251.216 60.2317 251.335 60.6003 251.57 60.8205C251.805 61.0406 252.211 61.1482 252.79 61.1482C253.103 61.1482 253.447 61.0867 253.823 60.969V62.0698C253.374 62.2336 252.863 62.3206 252.284 62.3206" fill="#2C3E50"/>
<path d="M256.138 62.1414V54.8659H254.813L254.959 53.7088H257.624V62.1363H256.138V62.1414ZM255.992 50.4064H257.639V51.7427H255.992V50.4064Z" fill="#2C3E50"/>
<path d="M264.11 62.3207C262.614 62.3207 261.524 61.9418 260.841 61.1891C260.158 60.4365 259.819 59.3459 259.819 57.9277C259.819 56.5095 260.163 55.4291 260.851 54.6714C261.54 53.9136 262.624 53.5347 264.11 53.5347C265.596 53.5347 266.681 53.9136 267.369 54.6714C268.057 55.4291 268.401 56.5146 268.401 57.9277C268.401 59.3408 268.062 60.4365 267.385 61.1891C266.707 61.9418 265.617 62.3207 264.105 62.3207M264.105 61.0765C265.132 61.0765 265.857 60.8256 266.279 60.3187C266.701 59.817 266.915 59.0183 266.915 57.9277C266.915 56.8371 266.701 56.0384 266.274 55.5367C265.846 55.0349 265.122 54.7789 264.11 54.7789C263.099 54.7789 262.374 55.0298 261.946 55.5367C261.519 56.0435 261.305 56.8371 261.305 57.9277C261.305 59.0183 261.519 59.817 261.941 60.3187C262.363 60.8256 263.088 61.0765 264.115 61.0765" fill="#2C3E50"/>
<path d="M270.57 62.1415V53.7139H271.91L271.999 54.6765C272.411 54.3437 272.891 54.0723 273.438 53.8573C273.986 53.6423 274.616 53.5347 275.331 53.5347C276.415 53.5347 277.208 53.7856 277.703 54.2822C278.199 54.7789 278.444 55.5623 278.444 56.6323V62.1466H276.958V56.6887C276.958 55.9514 276.806 55.4394 276.504 55.1475C276.202 54.8557 275.623 54.7123 274.768 54.7123C274.236 54.7123 273.735 54.8045 273.266 54.9939C272.797 55.1834 272.39 55.4445 272.051 55.7773V62.1415H270.565H270.57Z" fill="#2C3E50"/>
<path d="M283.595 62.3207C283.043 62.3207 282.511 62.2848 282.01 62.2131C281.51 62.1415 281.087 62.0493 280.754 61.9264V60.6464C281.165 60.7898 281.593 60.8973 282.047 60.9639C282.5 61.0355 282.949 61.0714 283.397 61.0714C284.158 61.0714 284.701 60.9895 285.029 60.8307C285.352 60.672 285.519 60.3699 285.519 59.9347C285.519 59.6122 285.431 59.3715 285.259 59.2077C285.081 59.0387 284.815 58.8954 284.461 58.7622C284.106 58.6291 283.647 58.4755 283.095 58.3015C282.599 58.1376 282.161 57.9635 281.77 57.7843C281.384 57.6051 281.082 57.3696 280.863 57.0624C280.644 56.7603 280.535 56.3559 280.535 55.8439C280.535 55.0963 280.8 54.5229 281.332 54.1287C281.864 53.7344 282.719 53.5347 283.903 53.5347C284.362 53.5347 284.8 53.5655 285.227 53.632C285.65 53.6986 286.015 53.7754 286.333 53.8727V55.1527C285.571 54.9018 284.841 54.7789 284.143 54.7789C283.392 54.7789 282.855 54.8506 282.521 54.999C282.187 55.1475 282.021 55.424 282.021 55.8234C282.021 56.0947 282.099 56.3149 282.245 56.4736C282.396 56.6323 282.631 56.7706 282.954 56.8832C283.272 56.9959 283.689 57.1341 284.195 57.3031C284.857 57.5027 285.394 57.7127 285.806 57.9277C286.218 58.1427 286.52 58.4039 286.713 58.7111C286.906 59.0183 287 59.4227 287 59.9194C287 60.7488 286.703 61.3581 286.114 61.7421C285.524 62.1261 284.685 62.3207 283.595 62.3207Z" fill="#2C3E50"/>
<path d="M86.7471 40.489V3.25632H94.6986V19.0413L109.298 3.25632H118.428L104.71 18.345L119.132 40.489H110.654L99.7615 23.3216L94.6986 28.6976V40.489H86.7471Z" fill="#2C3E50"/>
<path d="M130.968 41.0675C128.262 41.0675 126.286 40.4531 125.05 39.2192C123.814 37.9853 123.194 36.0192 123.194 33.3209V1.52063H131.14V32.6861C131.14 33.6486 131.338 34.3142 131.729 34.6829C132.12 35.0515 132.689 35.2307 133.434 35.2307C134.456 35.2307 135.379 35.0976 136.203 34.8262V40.2073C134.712 40.7859 132.965 41.0726 130.963 41.0726" fill="#2C3E50"/>
<path d="M154.697 41.0675C149.478 41.0675 145.651 39.8233 143.216 37.3401C140.781 34.8518 139.566 31.3395 139.566 26.7878C139.566 22.2361 140.791 18.7238 143.247 16.2355C145.703 13.7523 149.52 12.5081 154.697 12.5081C159.875 12.5081 163.754 13.7523 166.21 16.2355C168.666 18.7238 169.891 22.2413 169.891 26.7878C169.891 31.3344 168.671 34.8518 166.241 37.3401C163.806 39.8285 159.958 41.0675 154.703 41.0675M154.703 34.4166C157.252 34.4166 159.082 33.8483 160.177 32.7117C161.278 31.575 161.825 29.5987 161.825 26.7878C161.825 23.9769 161.278 22.0006 160.177 20.864C159.077 19.7273 157.252 19.159 154.703 19.159C152.153 19.159 150.385 19.7273 149.285 20.864C148.185 22.0006 147.637 23.9769 147.637 26.7878C147.637 29.5987 148.185 31.5801 149.285 32.7117C150.385 33.8483 152.189 34.4166 154.703 34.4166Z" fill="#2C3E50"/>
<path d="M185.726 41.0675C182.389 41.0675 179.788 40.151 177.926 38.3232C176.059 36.4953 175.131 33.8022 175.131 30.2592V13.0867H183.083V30.0851C183.083 31.9334 183.531 33.2749 184.439 34.1043C185.341 34.9337 186.696 35.3485 188.5 35.3485C189.877 35.3485 191.139 35.0822 192.296 34.5395C193.454 33.9968 194.444 33.3261 195.268 32.5171V13.0867H203.215V40.4941H195.852L195.56 37.8931C194.382 38.8198 193 39.5776 191.41 40.1766C189.82 40.7757 187.927 41.0726 185.726 41.0726" fill="#2C3E50"/>
<path d="M221.052 41.0675C217.835 41.0675 215.447 40.2381 213.898 38.5792C212.344 36.9203 211.573 34.6675 211.573 31.8157V19.0976H207.626V13.0867H211.573V7.18848L219.519 4.87424V13.0867H226.584L226.115 19.0976H219.519V31.2986C219.519 32.8038 219.874 33.833 220.578 34.391C221.287 34.9491 222.382 35.2307 223.878 35.2307C224.978 35.2307 226.115 35.0362 227.293 34.6522V40.0282C226.428 40.3763 225.489 40.6374 224.467 40.8064C223.445 40.9805 222.309 41.0675 221.052 41.0675Z" fill="#2C3E50"/>
<path d="M245.902 41.0726C241.074 41.0726 237.247 39.8848 234.421 37.5142C231.595 35.1437 230.182 31.5494 230.182 26.7315C230.182 22.3744 231.371 18.9184 233.743 16.3533C236.116 13.7881 239.661 12.5081 244.369 12.5081C248.687 12.5081 251.992 13.6141 254.292 15.831C256.586 18.048 257.738 20.9459 257.738 24.5299V29.5014H237.544C237.977 31.6979 239.004 33.2032 240.636 34.0121C242.268 34.8211 244.573 35.2256 247.555 35.2256C249.047 35.2256 250.569 35.0925 252.118 34.8211C253.666 34.5549 254.991 34.2067 256.091 33.7817V39.3318C254.798 39.9104 253.286 40.3456 251.555 40.6323C249.829 40.919 247.941 41.0675 245.902 41.0675M237.539 24.704H250.788V23.1987C250.788 21.6166 250.319 20.3776 249.375 19.4713C248.431 18.5651 246.841 18.1094 244.604 18.1094C241.976 18.1094 240.141 18.6317 239.098 19.671C238.055 20.7104 237.539 22.3897 237.539 24.6989" fill="#2C3E50"/>
<path d="M277.521 41.0675C272.536 41.0675 268.719 39.8541 266.071 37.4272C263.422 35.0003 262.097 31.4521 262.097 26.7878C262.097 22.1235 263.521 18.3859 266.368 16.0358C269.215 13.6857 273.011 12.5081 277.761 12.5081C279.721 12.5081 281.41 12.6413 282.823 12.9126C284.236 13.184 285.608 13.6243 286.943 14.2438V19.8502C285.962 19.3894 284.826 19.0208 283.527 18.7545C282.234 18.4832 280.837 18.3501 279.346 18.3501C276.363 18.3501 274.085 18.9593 272.515 20.1728C270.946 21.3862 270.158 23.5929 270.158 26.7929C270.158 29.7216 270.878 31.8617 272.307 33.2083C273.741 34.56 276.066 35.2307 279.283 35.2307C280.654 35.2307 282 35.0976 283.319 34.8262C284.633 34.56 285.858 34.1555 287 33.6128V39.3933C284.367 40.5094 281.207 41.0726 277.521 41.0726" fill="#2C3E50"/>
<path d="M0.589194 0H30.9718C31.1282 0 31.2533 0.12288 31.2533 0.27648L21.4769 63.7286C21.4769 63.8822 21.3518 64.0051 21.1953 64.0051H0.589194C0.265919 64.0051 0 63.7491 0 63.4266V0.57344C0 0.256 0.260705 0 0.589194 0Z" fill="#5CD180"/>
<path d="M63.1115 0C63.414 0 63.6017 0.32768 63.4452 0.58368L51.8126 19.6198C47.1564 27.2435 47.1564 36.7667 51.8126 44.3853L63.4452 63.4214C63.6017 63.6774 63.414 64.0051 63.1115 64.0051H32.9427C32.7289 64.0051 32.5517 63.831 32.5517 63.6211V0.384C32.5569 0.17408 32.7289 0 32.9427 0H63.1115Z" fill="#5CD180"/>
</g>
<defs>
<clipPath id="clip0_233_49">
<rect width="287" height="64" fill="white"/>
</clipPath>
</defs>
</svg>
