<svg width="46" height="110" viewBox="0 0 46 110" fill="none" xmlns="http://www.w3.org/2000/svg">
<path d="M26 3C26 1.34315 24.6569 -7.24234e-08 23 0C21.3431 7.24234e-08 20 1.34315 20 3L26 3ZM20.8787 109.121C22.0503 110.293 23.9498 110.293 25.1213 109.121L44.2132 90.0294C45.3848 88.8579 45.3848 86.9584 44.2132 85.7868C43.0416 84.6152 41.1421 84.6152 39.9706 85.7868L23 102.757L6.02944 85.7868C4.85787 84.6152 2.95837 84.6152 1.7868 85.7868C0.615227 86.9584 0.615227 88.8579 1.7868 90.0294L20.8787 109.121ZM20 3L20 107L26 107L26 3L20 3Z" fill="#5CD180"/>
</svg>
