<svg width="56" height="56" viewBox="0 0 56 56" fill="none" xmlns="http://www.w3.org/2000/svg">
<path fill-rule="evenodd" clip-rule="evenodd" d="M42.4436 35.0753C40.5327 33.163 37.4512 33.115 35.4802 34.9652C35.1201 35.3056 34.7499 35.654 34.3877 35.9944C33.2052 37.1037 31.3563 37.0757 30.2098 35.9283L20.129 25.8384C18.9884 24.6991 18.9524 22.8609 20.0469 21.6755C20.3971 21.2971 20.7573 20.9066 21.1074 20.5262C22.9323 18.5538 22.8723 15.4902 20.9714 13.59C19.0305 11.6457 16.4272 9.04065 14.4723 7.08435C12.5394 5.15207 9.41588 5.12604 7.45494 7.02828C5.81617 8.61415 3.76318 10.6045 2.13241 12.1823C0.0894394 14.1627 -0.554841 17.1802 0.501661 19.8233C0.503662 19.8294 0.505644 19.8354 0.507645 19.8414C6.58853 34.2383 21.1855 48.8976 36.1726 55.4513C36.1766 55.4533 36.1806 55.4533 36.1846 55.4553C38.8459 56.5726 41.9193 55.9379 43.9183 53.8554C45.499 52.2395 47.4499 50.2031 49.0087 48.5772C50.8916 46.6109 50.8595 43.4972 48.9346 41.573C46.9857 39.6207 44.3865 37.0196 42.4436 35.0753ZM41.0269 36.491C42.9718 38.4353 45.569 41.0363 47.52 42.9886C48.6745 44.144 48.6945 46.0102 47.564 47.1896C46.0092 48.8115 44.0643 50.8439 42.4876 52.4558C42.4856 52.4598 42.4816 52.4638 42.4816 52.4638C41.0549 53.9495 38.8639 54.4061 36.965 53.6131C22.4261 47.2536 8.25733 33.0389 2.35453 19.0705C1.60618 17.1862 2.06638 15.0337 3.52507 13.622L8.84562 8.46596C10.0242 7.32462 11.897 7.34065 13.0556 8.50002C15.0125 10.4583 17.6158 13.0614 19.5567 15.0057C20.6972 16.145 20.7333 17.9832 19.6387 19.1686C19.2886 19.547 18.9284 19.9375 18.5782 20.3159C16.7534 22.2903 16.8134 25.3539 18.7123 27.2541C21.5456 30.0894 25.9557 34.5026 28.7951 37.344C30.706 39.2562 33.7874 39.3043 35.7564 37.4541C36.1185 37.1137 36.4888 36.7653 36.8509 36.4249C38.0315 35.3156 39.8823 35.3436 41.0269 36.491ZM26.9862 26.0307C28.643 26.0307 29.9876 27.3762 29.9876 29.0342C29.9876 29.5868 30.4359 30.0354 30.9881 30.0354C31.5404 30.0354 31.9886 29.5868 31.9886 29.0342C31.9886 26.2709 29.7475 24.0283 26.9862 24.0283C26.434 24.0283 25.9857 24.4768 25.9857 25.0295C25.9857 25.5821 26.434 26.0307 26.9862 26.0307ZM26.9862 18.0212C33.0611 18.0212 37.9914 22.955 37.9914 29.0342C37.9914 29.5868 38.4397 30.0354 38.9919 30.0354C39.5442 30.0354 39.9924 29.5868 39.9924 29.0342C39.9924 21.8517 34.1656 16.0189 26.9862 16.0189C26.434 16.0189 25.9857 16.4674 25.9857 17.02C25.9857 17.5727 26.434 18.0212 26.9862 18.0212ZM26.9862 10.0118C37.4792 10.0118 45.9952 18.5358 45.9952 29.0342C45.9952 29.5868 46.4435 30.0354 46.9957 30.0354C47.548 30.0354 47.9962 29.5868 47.9962 29.0342C47.9962 17.4305 38.5837 8.00943 26.9862 8.00943C26.434 8.00943 25.9857 8.45796 25.9857 9.01061C25.9857 9.56326 26.434 10.0118 26.9862 10.0118ZM26.9862 2.00236C41.8953 2.00236 53.999 14.1146 53.999 29.0342C53.999 29.5868 54.4473 30.0354 54.9995 30.0354C55.5518 30.0354 56 29.5868 56 29.0342C56 13.0093 42.9998 0 26.9862 0C26.434 0 25.9857 0.448528 25.9857 1.00118C25.9857 1.55383 26.434 2.00236 26.9862 2.00236Z" fill="#2C3E50"/>
</svg>
