<svg xmlns="http://www.w3.org/2000/svg" width="64" height="64" viewBox="0 0 64 64" fill="none">
    <circle cx="32" cy="32" r="31.5" stroke="#5CD180" />
    <path
        d="M42.7071 32.7071C43.0976 32.3166 43.0976 31.6834 42.7071 31.2929L36.3431 24.9289C35.9526 24.5384 35.3195 24.5384 34.9289 24.9289C34.5384 25.3195 34.5384 25.9526 34.9289 26.3431L40.5858 32L34.9289 37.6569C34.5384 38.0474 34.5384 38.6805 34.9289 39.0711C35.3195 39.4616 35.9526 39.4616 36.3431 39.0711L42.7071 32.7071ZM22 31C21.4477 31 21 31.4477 21 32C21 32.5523 21.4477 33 22 33L22 31ZM42 31L22 31L22 33L42 33L42 31Z"
        fill="#5CD180" />
</svg>
    