<svg width="80" height="80" viewBox="0 0 80 80" fill="none" xmlns="http://www.w3.org/2000/svg">
<path d="M56.8569 43.76C55.8959 43.76 54.935 43.44 54.1342 42.8C53.3334 42.16 52.8529 41.2 52.6927 40.24L52.3724 38.24L51.0911 39.2C50.3704 39.84 49.4094 40.16 48.4485 40.16C47.4875 40.16 46.5266 39.84 45.8058 39.2C45.7258 39.12 45.7258 39.12 45.6457 39.04C40.9209 34.64 40.0401 33.28 40.0401 31.6C40.0401 30.72 40.2803 29.92 40.8409 29.12C41.001 28.88 41.2413 28.56 42.0421 27.52L39.7998 27.2C38.7588 27.04 37.8779 26.56 37.2373 25.76C36.5966 25.04 36.2763 24.08 36.2763 23.12V19.28H1.6016C0.720721 19.28 0 20 0 20.88V78.4C0 79.28 0.720721 80 1.6016 80H59.0991C59.98 80 60.7007 79.28 60.7007 78.4V43.76H56.8569ZM23.0631 55.76C23.7037 56.4 23.7037 57.36 23.0631 58C22.7428 58.32 22.3424 58.48 21.942 58.48C21.5416 58.48 21.1412 58.32 20.8208 58L13.8539 51.04C13.2132 50.4 13.2132 49.44 13.8539 48.8L20.8208 41.84C21.4615 41.2 22.4224 41.2 23.0631 41.84C23.7037 42.48 23.7037 43.44 23.0631 44.08L17.2172 49.92L23.0631 55.76ZM35.2353 38.72L28.6687 61.52C28.4284 62.24 27.7878 62.64 27.1472 62.64C26.987 62.64 26.8268 62.64 26.6667 62.56C25.7858 62.32 25.3053 61.44 25.5456 60.56L32.1121 37.76C32.3524 36.88 33.2333 36.4 34.1141 36.64C34.9149 36.96 35.4755 37.84 35.2353 38.72ZM46.927 51.12L39.96 58.08C39.6397 58.4 39.2393 58.56 38.8389 58.56C38.4385 58.56 38.0381 58.4 37.7177 58.08C37.0771 57.44 37.0771 56.48 37.7177 55.84L43.5636 50L37.7177 44.16C37.0771 43.52 37.0771 42.56 37.7177 41.92C38.3584 41.28 39.3193 41.28 39.96 41.92L46.927 48.88C47.5676 49.44 47.5676 50.48 46.927 51.12Z" fill="#2C3E50"/>
<path d="M76.4765 31.6C76.4765 31.36 76.3964 31.2 76.2362 30.96C75.035 29.52 74.0741 28.32 73.3534 27.28C73.8338 26.4 74.1542 25.6 74.3944 24.88L79.2793 24.08C79.4394 24.08 79.5996 23.92 79.7598 23.76C79.9199 23.52 80 23.36 80 23.12V17.28C80 17.04 79.9199 16.88 79.7598 16.64C79.5996 16.48 79.4394 16.32 79.1992 16.32L74.3944 15.6C74.1542 14.88 73.8338 14 73.3534 13.04C73.6737 12.56 74.1542 11.92 74.7948 11.12C75.4354 10.32 75.8358 9.75999 76.1562 9.43999C76.3163 9.19999 76.3964 9.03999 76.3964 8.79999C76.3964 8.23999 74.8749 6.55999 71.8318 3.76C71.5916 3.6 71.4314 3.52 71.1912 3.52C70.9509 3.52 70.7107 3.6 70.5505 3.76L66.7868 6.55999C65.9059 6.07999 65.1051 5.75999 64.3844 5.59999L63.6637 0.799999C63.6637 0.559999 63.5035 0.4 63.3433 0.24C63.1832 0.0799999 62.9429 0 62.7027 0H56.8568C56.3764 0 56.056 0.24 55.8959 0.719999C55.6556 1.68 55.4154 3.28 55.1752 5.59999C54.2943 5.91999 53.4134 6.23999 52.7728 6.63999L49.0891 3.76C48.8488 3.6 48.6887 3.52 48.4484 3.52C48.048 3.52 47.2472 4.16 45.9659 5.35999C44.6847 6.63999 43.8038 7.51999 43.4034 8.15999C43.2432 8.31999 43.1631 8.55999 43.1631 8.79999C43.1631 8.95999 43.2432 9.19999 43.4034 9.43999C44.6046 10.88 45.5655 12.08 46.2863 13.12C45.8058 14 45.4855 14.8 45.2452 15.52L40.3603 16.24C40.2002 16.24 40.04 16.4 39.8799 16.56C39.7197 16.8 39.6396 16.96 39.6396 17.2V23.04C39.6396 23.28 39.7197 23.44 39.8799 23.68C40.04 23.84 40.2002 24 40.4404 24L45.2452 24.8C45.4855 25.6 45.8859 26.48 46.3663 27.36C46.046 27.84 45.5655 28.48 44.8448 29.28C44.2042 30.08 43.7237 30.64 43.5635 30.96C43.4034 31.2 43.3233 31.36 43.3233 31.6C43.3233 32.16 44.8448 33.84 47.8879 36.64C48.1281 36.8 48.2883 36.88 48.5285 36.88C48.7688 36.88 49.009 36.8 49.1692 36.64L52.9329 33.84C53.8138 34.32 54.6146 34.64 55.3353 34.8L56.056 39.68C56.056 39.92 56.2162 40.08 56.3764 40.24C56.5365 40.4 56.7768 40.48 57.017 40.48H62.9429C63.4234 40.48 63.7437 40.24 63.9039 39.76C64.1441 38.8 64.3844 37.12 64.6246 34.88C65.5055 34.64 66.3063 34.32 67.027 33.92L70.7107 36.8C70.951 36.96 71.1111 37.04 71.3513 37.04C71.7517 37.04 72.5525 36.4 73.8338 35.12C75.1151 33.84 75.996 32.88 76.4765 32.32C76.3964 32.08 76.4765 31.92 76.4765 31.6ZM65.5055 26C63.9039 27.6 61.982 28.4 59.7397 28.4C57.4975 28.4 55.5756 27.6 53.974 26C52.3724 24.4 51.5716 22.48 51.5716 20.24C51.5716 18 52.3724 16.08 53.974 14.48C55.5756 12.88 57.4975 12.08 59.7397 12.08C61.982 12.08 63.9039 12.88 65.5055 14.48C67.1071 16.08 67.9079 18 67.9079 20.24C67.9079 22.48 67.1071 24.4 65.5055 26Z" fill="#5CD180"/>
</svg>
