<svg width="25" height="25" viewBox="0 0 25 25" fill="none" xmlns="http://www.w3.org/2000/svg">
    <path fill-rule="evenodd" clip-rule="evenodd"
        d="M18.948 15.6586C18.0949 14.8049 16.7193 14.7835 15.8394 15.6095C15.6786 15.7614 15.5134 15.917 15.3517 16.0689C14.8237 16.5641 13.9984 16.5516 13.4865 16.0394L8.98614 11.535C8.47697 11.0264 8.46089 10.2058 8.94952 9.67657C9.10584 9.50762 9.26663 9.33331 9.42296 9.16347C10.2376 8.28297 10.2108 6.91529 9.36222 6.06697C8.49574 5.19898 7.33358 4.036 6.46084 3.16265C5.59793 2.30003 4.20352 2.28841 3.3281 3.13763C2.5965 3.8456 1.67999 4.73415 0.951969 5.43855C0.0399283 6.32262 -0.247697 7.66975 0.223956 8.84971C0.224849 8.85239 0.225734 8.85507 0.226627 8.85775C2.94131 15.285 9.4578 21.8293 16.1485 24.755C16.1503 24.7559 16.152 24.7559 16.1538 24.7568C17.3419 25.2556 18.714 24.9723 19.6064 24.0426C20.3121 23.3212 21.183 22.4121 21.8789 21.6863C22.7194 20.8084 22.7052 19.4184 21.8458 18.5594C20.9758 17.6878 19.8154 16.5266 18.948 15.6586ZM18.3156 16.2906C19.1838 17.1586 20.3433 18.3198 21.2143 19.1914C21.7297 19.7071 21.7386 20.5403 21.2339 21.0668C20.5398 21.7908 19.6716 22.6982 18.9677 23.4178C18.9668 23.4195 18.965 23.4213 18.965 23.4213C18.3281 24.0846 17.3499 24.2884 16.5022 23.9344C10.0116 21.0954 3.68631 14.7495 1.05113 8.5136C0.717042 7.67243 0.92249 6.71148 1.57369 6.08127L3.94894 3.77945C4.47508 3.26992 5.31118 3.27708 5.82839 3.79465C6.70202 4.66889 7.86419 5.83098 8.73067 6.69896C9.23984 7.2076 9.25592 8.0282 8.76729 8.5574C8.61097 8.72635 8.45018 8.90066 8.29386 9.06961C7.47918 9.95101 7.50598 11.3187 8.35371 12.167C9.61859 13.4328 11.5874 15.403 12.855 16.6714C13.708 17.5251 15.0837 17.5466 15.9627 16.7206C16.1244 16.5686 16.2896 16.4131 16.4513 16.2611C16.9783 15.7659 17.8046 15.7784 18.3156 16.2906ZM12.0474 11.6208C12.7871 11.6208 13.3873 12.2215 13.3873 12.9617C13.3873 13.2084 13.5874 13.4086 13.834 13.4086C14.0805 13.4086 14.2806 13.2084 14.2806 12.9617C14.2806 11.7281 13.2801 10.7269 12.0474 10.7269C11.8009 10.7269 11.6008 10.9272 11.6008 11.1739C11.6008 11.4206 11.8009 11.6208 12.0474 11.6208ZM12.0474 8.04519C14.7594 8.04519 16.9605 10.2478 16.9605 12.9617C16.9605 13.2084 17.1606 13.4086 17.4071 13.4086C17.6537 13.4086 17.8538 13.2084 17.8538 12.9617C17.8538 9.75524 15.2525 7.15128 12.0474 7.15128C11.8009 7.15128 11.6008 7.35151 11.6008 7.59823C11.6008 7.84495 11.8009 8.04519 12.0474 8.04519ZM12.0474 4.46955C16.7318 4.46955 20.5336 8.27492 20.5336 12.9617C20.5336 13.2084 20.7337 13.4086 20.9802 13.4086C21.2268 13.4086 21.4269 13.2084 21.4269 12.9617C21.4269 7.78149 17.2249 3.57564 12.0474 3.57564C11.8009 3.57564 11.6008 3.77588 11.6008 4.02259C11.6008 4.26931 11.8009 4.46955 12.0474 4.46955ZM12.0474 0.89391C18.7033 0.89391 24.1067 6.30117 24.1067 12.9617C24.1067 13.2084 24.3068 13.4086 24.5534 13.4086C24.7999 13.4086 25 13.2084 25 12.9617C25 5.80773 19.1964 0 12.0474 0C11.8009 0 11.6008 0.200236 11.6008 0.446955C11.6008 0.693674 11.8009 0.89391 12.0474 0.89391Z"
        fill="white" />
</svg>