<svg width="46" height="56" viewBox="0 0 46 56" fill="none" xmlns="http://www.w3.org/2000/svg">
<path d="M26 3C26 1.34315 24.6569 -7.24234e-08 23 0C21.3431 7.24234e-08 20 1.34315 20 3L26 3ZM20.8787 55.1213C22.0503 56.2929 23.9497 56.2929 25.1213 55.1213L44.2132 36.0294C45.3848 34.8579 45.3848 32.9584 44.2132 31.7868C43.0416 30.6152 41.1421 30.6152 39.9706 31.7868L23 48.7574L6.02944 31.7868C4.85787 30.6152 2.95837 30.6152 1.7868 31.7868C0.615224 32.9584 0.615224 34.8579 1.7868 36.0294L20.8787 55.1213ZM20 3L20 53L26 53L26 3L20 3Z" fill="white"/>
</svg>
