<svg width="551" height="125" viewBox="0 0 551 125" fill="none" xmlns="http://www.w3.org/2000/svg">
<g clip-path="url(#clip0_1_12)">
<path d="M169.33 99H166.48V121.37H169.33V99Z" fill="#2C3E50"/>
<path d="M174.19 121.37V104.91H176.76L176.93 106.79C177.72 106.14 178.64 105.61 179.69 105.19C180.74 104.77 181.95 104.56 183.32 104.56C185.4 104.56 186.92 105.05 187.87 106.02C188.82 106.99 189.29 108.52 189.29 110.61V121.38H186.44V110.72C186.44 109.28 186.15 108.28 185.57 107.71C184.99 107.14 183.88 106.86 182.24 106.86C181.22 106.86 180.26 107.04 179.36 107.41C178.46 107.78 177.68 108.29 177.03 108.94V121.37H174.18H174.19Z" fill="#2C3E50"/>
<path d="M193.99 121.37V104.91H196.56L196.73 106.79C197.52 106.14 198.44 105.61 199.49 105.19C200.54 104.77 201.75 104.56 203.12 104.56C205.2 104.56 206.72 105.05 207.67 106.02C208.62 106.99 209.09 108.52 209.09 110.61V121.38H206.24V110.72C206.24 109.28 205.95 108.28 205.37 107.71C204.79 107.14 203.68 106.86 202.04 106.86C201.02 106.86 200.06 107.04 199.16 107.41C198.26 107.78 197.48 108.29 196.83 108.94V121.37H193.98H193.99Z" fill="#2C3E50"/>
<path d="M220.77 121.72C217.9 121.72 215.81 120.98 214.5 119.51C213.19 118.04 212.54 115.91 212.54 113.14C212.54 110.37 213.2 108.26 214.52 106.78C215.84 105.3 217.92 104.56 220.77 104.56C223.62 104.56 225.7 105.3 227.02 106.78C228.34 108.26 229 110.38 229 113.14C229 115.9 228.35 118.04 227.05 119.51C225.75 120.98 223.66 121.72 220.76 121.72M220.76 119.29C222.73 119.29 224.12 118.8 224.93 117.81C225.74 116.83 226.15 115.27 226.15 113.14C226.15 111.01 225.74 109.45 224.92 108.47C224.1 107.49 222.71 106.99 220.77 106.99C218.83 106.99 217.44 107.48 216.62 108.47C215.8 109.46 215.39 111.01 215.39 113.14C215.39 115.27 215.8 116.83 216.61 117.81C217.42 118.8 218.81 119.29 220.78 119.29" fill="#2C3E50"/>
<path d="M237.03 121.37L230.57 104.91H233.52L238.63 118.73L243.73 104.91H246.68L240.22 121.37H237.03Z" fill="#2C3E50"/>
<path d="M253.7 121.72C252.66 121.72 251.7 121.53 250.82 121.16C249.94 120.79 249.24 120.24 248.7 119.51C248.17 118.78 247.9 117.86 247.9 116.75C247.9 115.24 248.4 114.01 249.39 113.05C250.38 112.09 252.01 111.61 254.25 111.61H259.98V110.6C259.98 109.7 259.86 108.98 259.62 108.45C259.38 107.92 258.92 107.53 258.25 107.3C257.58 107.07 256.59 106.95 255.3 106.95C254.3 106.95 253.34 107.03 252.42 107.19C251.49 107.35 250.62 107.57 249.82 107.85V105.49C250.56 105.21 251.43 104.99 252.44 104.81C253.45 104.63 254.53 104.55 255.69 104.55C258.03 104.55 259.78 105.03 260.95 105.97C262.12 106.92 262.7 108.46 262.7 110.59V121.36H260.3L260.09 119.49C259.37 120.23 258.5 120.79 257.49 121.16C256.47 121.53 255.21 121.72 253.71 121.72M254.44 119.39C255.65 119.39 256.71 119.17 257.63 118.75C258.56 118.32 259.34 117.74 259.99 117V113.81H254.33C253.03 113.81 252.11 114.05 251.55 114.54C250.99 115.03 250.72 115.77 250.72 116.76C250.72 117.75 251.06 118.44 251.73 118.83C252.4 119.21 253.3 119.4 254.44 119.4" fill="#2C3E50"/>
<path d="M273.39 121.72C271.77 121.72 270.55 121.29 269.73 120.42C268.91 119.55 268.5 118.34 268.5 116.79V107.17H266V104.91H268.5V100.85L271.35 99.98V104.91H275.9L275.73 107.17H271.35V116.65C271.35 117.64 271.58 118.36 272.03 118.79C272.48 119.22 273.26 119.43 274.38 119.43C274.98 119.43 275.64 119.31 276.36 119.08V121.23C275.5 121.55 274.52 121.72 273.41 121.72" fill="#2C3E50"/>
<path d="M280.79 121.37V107.16H278.25L278.53 104.9H283.64V121.36H280.79V121.37ZM280.51 98.45H283.67V101.06H280.51V98.45Z" fill="#2C3E50"/>
<path d="M293.61 121.37L287.15 104.91H290.1L295.21 118.73L300.31 104.91H303.26L296.8 121.37H293.61Z" fill="#2C3E50"/>
<path d="M313.62 121.72C310.68 121.72 308.48 121.02 307.02 119.6C305.56 118.19 304.83 116.01 304.83 113.07C304.83 110.43 305.46 108.35 306.72 106.83C307.98 105.31 309.98 104.56 312.71 104.56C314.33 104.56 315.67 104.86 316.72 105.45C317.77 106.04 318.56 106.85 319.08 107.88C319.6 108.91 319.86 110.07 319.86 111.37V114.46H307.67C307.76 115.71 308.03 116.7 308.49 117.41C308.94 118.13 309.62 118.64 310.54 118.96C311.46 119.27 312.66 119.43 314.17 119.43C315.86 119.43 317.41 119.14 318.82 118.56V120.78C318.1 121.08 317.3 121.31 316.41 121.47C315.52 121.63 314.58 121.71 313.61 121.71M307.67 112.4H317.33V111.04C317.33 109.7 316.98 108.66 316.27 107.93C315.56 107.2 314.4 106.84 312.78 106.84C310.81 106.84 309.47 107.3 308.75 108.23C308.03 109.16 307.67 110.55 307.67 112.4Z" fill="#2C3E50"/>
<path d="M338.07 121.37V101.26H330.64V99H348.35V101.26H340.92V121.37H338.07Z" fill="#2C3E50"/>
<path d="M356.27 121.72C353.33 121.72 351.13 121.02 349.67 119.6C348.21 118.19 347.48 116.01 347.48 113.07C347.48 110.43 348.11 108.35 349.37 106.83C350.63 105.31 352.63 104.56 355.36 104.56C356.98 104.56 358.32 104.86 359.37 105.45C360.42 106.04 361.21 106.85 361.73 107.88C362.25 108.91 362.51 110.07 362.51 111.37V114.46H350.32C350.41 115.71 350.68 116.7 351.13 117.41C351.58 118.13 352.27 118.64 353.18 118.96C354.1 119.27 355.31 119.43 356.81 119.43C358.5 119.43 360.05 119.14 361.47 118.56V120.78C360.75 121.08 359.95 121.31 359.06 121.47C358.17 121.63 357.24 121.71 356.26 121.71M350.32 112.4H359.97V111.04C359.97 109.7 359.62 108.66 358.91 107.93C358.2 107.2 357.04 106.84 355.42 106.84C353.45 106.84 352.11 107.3 351.39 108.23C350.67 109.16 350.31 110.55 350.31 112.4" fill="#2C3E50"/>
<path d="M374.47 121.72C371.6 121.72 369.47 120.97 368.08 119.48C366.69 117.99 366 115.87 366 113.14C366 110.25 366.79 108.09 368.36 106.68C369.94 105.27 372.05 104.56 374.72 104.56C375.81 104.56 376.71 104.63 377.43 104.79C378.15 104.94 378.84 105.18 379.51 105.5V107.76C378.26 107.16 376.83 106.86 375.24 106.86C373.2 106.86 371.63 107.34 370.52 108.3C369.41 109.26 368.85 110.88 368.85 113.15C368.85 115.42 369.34 116.92 370.31 117.93C371.28 118.94 372.89 119.44 375.14 119.44C376.74 119.44 378.21 119.14 379.55 118.54V120.83C378.83 121.13 378.06 121.36 377.24 121.51C376.42 121.66 375.5 121.74 374.48 121.74" fill="#2C3E50"/>
<path d="M382.74 121.37V97.96H385.59V106.68C386.36 106.06 387.25 105.54 388.28 105.15C389.31 104.76 390.51 104.56 391.88 104.56C393.87 104.56 395.36 105.05 396.36 106.02C397.36 106.99 397.85 108.52 397.85 110.61V121.38H395V110.72C395 109.28 394.68 108.28 394.05 107.71C393.41 107.14 392.37 106.86 390.91 106.86C389.98 106.86 389.03 107.06 388.04 107.47C387.06 107.88 386.24 108.4 385.59 109.05V121.38H382.74V121.37Z" fill="#2C3E50"/>
<path d="M417.09 121.72C414.31 121.72 412.07 121.37 410.35 120.68V118.15C411.32 118.52 412.36 118.8 413.46 119C414.56 119.2 415.69 119.3 416.84 119.3C418.83 119.3 420.32 119.03 421.32 118.48C422.31 117.94 422.81 116.96 422.81 115.54C422.81 114.66 422.61 113.96 422.2 113.44C421.8 112.92 421.13 112.48 420.21 112.12C419.28 111.76 418.04 111.4 416.49 111.02C414.04 110.42 412.31 109.64 411.31 108.68C410.31 107.72 409.82 106.43 409.82 104.81C409.82 102.91 410.5 101.41 411.87 100.31C413.24 99.2099 415.32 98.6599 418.12 98.6599C419.42 98.6599 420.62 98.7499 421.73 98.9399C422.84 99.1199 423.7 99.3199 424.3 99.5299V102.03C423.47 101.73 422.56 101.5 421.59 101.34C420.62 101.18 419.61 101.1 418.57 101.1C416.67 101.1 415.21 101.38 414.19 101.93C413.17 102.48 412.66 103.45 412.66 104.81C412.66 105.58 412.84 106.2 413.2 106.67C413.56 107.15 414.17 107.55 415.02 107.89C415.88 108.23 417.07 108.58 418.6 108.95C420.43 109.39 421.85 109.92 422.87 110.53C423.89 111.14 424.61 111.87 425.02 112.7C425.44 113.53 425.65 114.49 425.65 115.55C425.65 117.52 424.93 119.04 423.5 120.12C422.07 121.2 419.92 121.74 417.08 121.74" fill="#2C3E50"/>
<path d="M437.37 121.72C434.5 121.72 432.41 120.98 431.1 119.51C429.79 118.04 429.14 115.91 429.14 113.14C429.14 110.37 429.8 108.26 431.12 106.78C432.44 105.3 434.52 104.56 437.37 104.56C440.22 104.56 442.3 105.3 443.62 106.78C444.94 108.26 445.6 110.38 445.6 113.14C445.6 115.9 444.95 118.04 443.65 119.51C442.35 120.98 440.26 121.72 437.36 121.72M437.36 119.29C439.33 119.29 440.72 118.8 441.53 117.81C442.34 116.83 442.75 115.27 442.75 113.14C442.75 111.01 442.34 109.45 441.52 108.47C440.7 107.49 439.31 106.99 437.37 106.99C435.43 106.99 434.04 107.48 433.22 108.47C432.4 109.46 431.99 111.01 431.99 113.14C431.99 115.27 432.4 116.83 433.21 117.81C434.02 118.8 435.41 119.29 437.38 119.29" fill="#2C3E50"/>
<path d="M453.35 121.72C452.24 121.72 451.36 121.42 450.73 120.84C450.09 120.25 449.77 119.25 449.77 117.83V97.96H452.62V117.51C452.62 118.21 452.74 118.68 452.97 118.94C453.2 119.2 453.56 119.32 454.05 119.32C454.58 119.32 455.1 119.25 455.61 119.11V121.37C455.24 121.51 454.87 121.6 454.5 121.65C454.13 121.7 453.75 121.72 453.35 121.72Z" fill="#2C3E50"/>
<path d="M463.84 121.72C461.87 121.72 460.38 121.18 459.38 120.09C458.37 119 457.87 117.41 457.87 115.33V104.91H460.72V115.43C460.72 116.8 461.06 117.81 461.74 118.45C462.42 119.1 463.48 119.42 464.92 119.42C465.94 119.42 466.9 119.23 467.8 118.87C468.7 118.5 469.48 117.99 470.13 117.34V104.9H472.98V121.36H470.41L470.24 119.49C469.45 120.14 468.52 120.67 467.43 121.09C466.34 121.51 465.15 121.71 463.85 121.71" fill="#2C3E50"/>
<path d="M483.84 121.72C482.22 121.72 481 121.29 480.18 120.42C479.36 119.55 478.95 118.34 478.95 116.79V107.17H476.45V104.91H478.95V100.85L481.8 99.98V104.91H486.35L486.18 107.17H481.8V116.65C481.8 117.64 482.03 118.36 482.48 118.79C482.93 119.22 483.71 119.43 484.82 119.43C485.42 119.43 486.08 119.31 486.8 119.08V121.23C485.94 121.55 484.96 121.72 483.85 121.72" fill="#2C3E50"/>
<path d="M491.24 121.37V107.16H488.7L488.98 104.9H494.09V121.36H491.24V121.37ZM490.96 98.45H494.12V101.06H490.96V98.45Z" fill="#2C3E50"/>
<path d="M506.53 121.72C503.66 121.72 501.57 120.98 500.26 119.51C498.95 118.04 498.3 115.91 498.3 113.14C498.3 110.37 498.96 108.26 500.28 106.78C501.6 105.3 503.68 104.56 506.53 104.56C509.38 104.56 511.46 105.3 512.78 106.78C514.1 108.26 514.76 110.38 514.76 113.14C514.76 115.9 514.11 118.04 512.81 119.51C511.51 120.98 509.42 121.72 506.52 121.72M506.52 119.29C508.49 119.29 509.88 118.8 510.69 117.81C511.5 116.83 511.91 115.27 511.91 113.14C511.91 111.01 511.5 109.45 510.68 108.47C509.86 107.49 508.47 106.99 506.53 106.99C504.59 106.99 503.2 107.48 502.38 108.47C501.56 109.46 501.15 111.01 501.15 113.14C501.15 115.27 501.56 116.83 502.37 117.81C503.18 118.8 504.57 119.29 506.54 119.29" fill="#2C3E50"/>
<path d="M518.92 121.37V104.91H521.49L521.66 106.79C522.45 106.14 523.37 105.61 524.42 105.19C525.47 104.77 526.68 104.56 528.05 104.56C530.13 104.56 531.65 105.05 532.6 106.02C533.55 106.99 534.02 108.52 534.02 110.61V121.38H531.17V110.72C531.17 109.28 530.88 108.28 530.3 107.71C529.72 107.14 528.61 106.86 526.97 106.86C525.95 106.86 524.99 107.04 524.09 107.41C523.19 107.78 522.41 108.29 521.76 108.94V121.37H518.91H518.92Z" fill="#2C3E50"/>
<path d="M543.9 121.72C542.84 121.72 541.82 121.65 540.86 121.51C539.9 121.37 539.09 121.19 538.45 120.95V118.45C539.24 118.73 540.06 118.94 540.93 119.07C541.8 119.21 542.66 119.28 543.52 119.28C544.98 119.28 546.02 119.12 546.65 118.81C547.27 118.5 547.59 117.91 547.59 117.06C547.59 116.43 547.42 115.96 547.09 115.64C546.75 115.31 546.24 115.03 545.56 114.77C544.88 114.51 544 114.21 542.94 113.87C541.99 113.55 541.15 113.21 540.4 112.86C539.66 112.51 539.08 112.05 538.66 111.45C538.24 110.86 538.03 110.07 538.03 109.07C538.03 107.61 538.54 106.49 539.56 105.72C540.58 104.95 542.22 104.56 544.49 104.56C545.37 104.56 546.21 104.62 547.03 104.75C547.84 104.88 548.54 105.03 549.15 105.22V107.72C547.69 107.23 546.29 106.99 544.95 106.99C543.51 106.99 542.48 107.13 541.84 107.42C541.2 107.71 540.88 108.25 540.88 109.03C540.88 109.56 541.03 109.99 541.31 110.3C541.6 110.61 542.05 110.88 542.67 111.1C543.28 111.32 544.08 111.59 545.05 111.92C546.32 112.31 547.35 112.72 548.14 113.14C548.93 113.56 549.51 114.07 549.88 114.67C550.25 115.27 550.43 116.06 550.43 117.03C550.43 118.65 549.86 119.84 548.73 120.59C547.6 121.34 545.99 121.72 543.9 121.72Z" fill="#2C3E50"/>
<path d="M166.37 79.0799V6.35986H181.62V37.1899L209.62 6.35986H227.13L200.82 35.8299L228.48 79.0799H212.22L191.33 45.5499L181.62 56.0499V79.0799H166.37Z" fill="#2C3E50"/>
<path d="M251.18 80.21C245.99 80.21 242.2 79.01 239.83 76.6C237.46 74.19 236.27 70.35 236.27 65.08V2.96997H251.51V63.84C251.51 65.72 251.89 67.02 252.64 67.74C253.39 68.46 254.48 68.81 255.91 68.81C257.87 68.81 259.64 68.55 261.22 68.02V78.53C258.36 79.66 255.01 80.22 251.17 80.22" fill="#2C3E50"/>
<path d="M296.69 80.2099C286.68 80.2099 279.34 77.7799 274.67 72.9299C270 68.0699 267.67 61.2099 267.67 52.3199C267.67 43.4299 270.02 36.5699 274.73 31.7099C279.44 26.8599 286.76 24.4299 296.69 24.4299C306.62 24.4299 314.06 26.8599 318.77 31.7099C323.48 36.5699 325.83 43.4399 325.83 52.3199C325.83 61.1999 323.49 68.0699 318.83 72.9299C314.16 77.7899 306.78 80.2099 296.7 80.2099M296.7 67.2199C301.59 67.2199 305.1 66.1099 307.2 63.8899C309.31 61.6699 310.36 57.8099 310.36 52.3199C310.36 46.8299 309.31 42.9699 307.2 40.7499C305.09 38.5299 301.59 37.4199 296.7 37.4199C291.81 37.4199 288.42 38.5299 286.31 40.7499C284.2 42.9699 283.15 46.8299 283.15 52.3199C283.15 57.8099 284.2 61.6799 286.31 63.8899C288.42 66.1099 291.88 67.2199 296.7 67.2199Z" fill="#2C3E50"/>
<path d="M356.2 80.2101C349.8 80.2101 344.81 78.4201 341.24 74.8501C337.66 71.2801 335.88 66.0201 335.88 59.1001V25.5601H351.13V58.7601C351.13 62.3701 351.99 64.9901 353.73 66.6101C355.46 68.2301 358.06 69.0401 361.52 69.0401C364.16 69.0401 366.58 68.5201 368.8 67.4601C371.02 66.4001 372.92 65.0901 374.5 63.5101V25.5601H389.74V79.0901H375.62L375.06 74.0101C372.8 75.8201 370.15 77.3001 367.1 78.4701C364.05 79.6401 360.42 80.2201 356.2 80.2201" fill="#2C3E50"/>
<path d="M423.95 80.21C417.78 80.21 413.2 78.59 410.23 75.35C407.25 72.11 405.77 67.71 405.77 62.14V37.3H398.2V25.56H405.77V14.04L421.01 9.52002V25.56H434.56L433.66 37.3H421.01V61.13C421.01 64.07 421.69 66.08 423.04 67.17C424.4 68.26 426.5 68.81 429.37 68.81C431.48 68.81 433.66 68.43 435.92 67.68V78.18C434.26 78.86 432.46 79.37 430.5 79.7C428.54 80.04 426.36 80.21 423.95 80.21Z" fill="#2C3E50"/>
<path d="M471.61 80.2199C462.35 80.2199 455.01 77.8999 449.59 73.2699C444.17 68.6399 441.46 61.6199 441.46 52.2099C441.46 43.6999 443.74 36.9499 448.29 31.9399C452.84 26.9299 459.64 24.4299 468.67 24.4299C476.95 24.4299 483.29 26.5899 487.7 30.9199C492.1 35.2499 494.31 40.9099 494.31 47.9099V57.6199H455.58C456.41 61.9099 458.38 64.8499 461.51 66.4299C464.64 68.0099 469.06 68.7999 474.78 68.7999C477.64 68.7999 480.56 68.5399 483.53 68.0099C486.5 67.4899 489.04 66.8099 491.15 65.9799V76.8199C488.67 77.9499 485.77 78.7999 482.45 79.3599C479.14 79.9199 475.52 80.2099 471.61 80.2099M455.57 48.2499H480.98V45.3099C480.98 42.2199 480.08 39.7999 478.27 38.0299C476.46 36.2599 473.41 35.3699 469.12 35.3699C464.08 35.3699 460.56 36.3899 458.56 38.4199C456.56 40.4499 455.57 43.7299 455.57 48.2399" fill="#2C3E50"/>
<path d="M532.25 80.2099C522.69 80.2099 515.37 77.8399 510.29 73.0999C505.21 68.3599 502.67 61.4299 502.67 52.3199C502.67 43.2099 505.4 35.9099 510.86 31.3199C516.32 26.7299 523.6 24.4299 532.71 24.4299C536.47 24.4299 539.71 24.6899 542.42 25.2199C545.13 25.7499 547.76 26.6099 550.32 27.8199V38.7699C548.44 37.8699 546.26 37.1499 543.77 36.6299C541.29 36.0999 538.61 35.8399 535.75 35.8399C530.03 35.8399 525.66 37.0299 522.65 39.3999C519.64 41.7699 518.13 46.0799 518.13 52.3299C518.13 58.0499 519.51 62.2299 522.25 64.8599C525 67.4999 529.46 68.8099 535.63 68.8099C538.26 68.8099 540.84 68.5499 543.37 68.0199C545.89 67.4999 548.24 66.7099 550.43 65.6499V76.9399C545.38 79.1199 539.32 80.2199 532.25 80.2199" fill="#2C3E50"/>
<path d="M1.13 0H59.4C59.7 0 59.94 0.24 59.94 0.54L41.19 124.47C41.19 124.77 40.95 125.01 40.65 125.01H1.13C0.51 125.01 0 124.51 0 123.88V1.12C0 0.5 0.5 0 1.13 0Z" fill="#2C3E50"/>
<path d="M121.04 0C121.62 0 121.98 0.64 121.68 1.14L99.3699 38.32C90.4399 53.21 90.4399 71.81 99.3699 86.69L121.68 123.87C121.98 124.37 121.62 125.01 121.04 125.01H63.1799C62.7699 125.01 62.4299 124.67 62.4299 124.26V0.75C62.4399 0.34 62.7699 0 63.1799 0H121.04Z" fill="#2C3E50"/>
</g>
<defs>
<clipPath id="clip0_1_12">
<rect width="550.43" height="125" fill="white"/>
</clipPath>
</defs>
</svg>
