<svg width="474" height="28" viewBox="0 0 474 28" fill="none" xmlns="http://www.w3.org/2000/svg">
<path fill-rule="evenodd" clip-rule="evenodd" d="M10.5855 15.7924C7.46267 15.7405 4.34448 15.6712 1.22714 15.5887C0.618094 15.5722 0.110652 16.0532 0.0945506 16.6625C0.0784493 17.2719 0.559851 17.78 1.1689 17.7965C3.97503 17.8682 6.78171 17.931 9.58676 17.9849C9.74321 18.0921 10.0575 18.2491 10.5959 18.3408C27.3727 21.089 45.5082 19.005 62.6661 17.8321C78.751 17.4846 94.844 16.8987 110.941 16.1849C109.023 16.3685 107.106 16.5478 105.187 16.7182C104.788 16.7548 103.754 16.8529 103.612 16.8882C102.799 17.1065 102.777 17.8038 102.779 17.9809C102.781 18.0695 102.844 19.0466 103.943 19.0764C115.747 19.3865 127.549 18.3342 139.3 17.3804C143.671 17.0249 148.038 16.6602 152.408 16.2869C153.927 16.1532 157.881 15.9658 158.426 15.8632C159.012 15.75 159.24 15.3797 159.328 15.0933C168.808 14.5175 178.299 14.0131 187.792 13.5752C189.65 13.5736 191.506 13.5762 193.362 13.5788C213.589 13.6265 233.811 13.749 254.037 13.7082C242.768 14.2282 231.472 14.7906 220.22 15.5683C217.915 15.7274 215.615 15.9487 213.311 16.1256C212.052 16.2184 208.798 16.2642 208.339 16.4121C207.656 16.6386 207.548 17.1626 207.531 17.4224C207.52 17.581 207.57 18.4643 208.718 18.683C230.002 22.7563 251.72 23.6194 273.307 24.7396C278.986 25.0331 284.663 25.3486 290.338 25.6817C276.777 25.9148 263.081 25.4229 249.543 25.0958C249.42 24.9819 249.244 24.8735 248.991 24.8C248.62 24.688 247.47 24.5443 245.376 24.3895C244.924 24.3564 244.516 24.6004 244.318 24.977C241.101 24.9147 237.893 24.8663 234.7 24.8453C224.244 24.7754 213.787 25.077 203.332 25.0559L200.966 25.0298L200.472 25.0251C198.66 24.9943 196.443 24.9467 194.97 24.9153C194.119 24.8924 191.908 24.8849 191.602 24.8921C190.68 24.9221 190.521 25.7745 190.515 25.8139C190.511 25.8358 190.524 27.0795 191.786 27.1108C192.631 27.1334 195.819 27.1762 200.289 27.2295C201.412 27.2476 202.398 27.2613 202.985 27.2631L203.437 27.2652C217.73 27.4146 240.635 27.57 247.121 27.2468C268.221 27.7169 289.75 28.7184 310.588 26.8941C311.271 26.8312 311.571 26.6114 311.63 26.5621C311.953 26.2773 312.021 25.9543 312.008 25.6748C312 25.4974 311.911 24.7797 311.047 24.6143C310.439 24.4962 306.058 24.4132 304.372 24.3108C294.058 23.6837 283.742 23.0698 273.422 22.5353C254.813 21.5684 236.105 20.8032 217.662 17.9803C218.565 17.9048 219.468 17.8338 220.372 17.7717C231.78 16.9819 243.235 16.4117 254.659 15.8883C290.135 14.2617 326.435 16.4292 361.749 13.4212C362.473 13.3609 362.796 13.1426 362.859 13.0935C363.201 12.8055 363.268 12.4692 363.255 12.1853C363.247 12.0122 363.15 11.2852 362.269 11.1232C361.542 10.9887 356.305 10.909 354.289 10.7989C346.238 10.3596 338.181 9.91532 330.123 9.66563C316.82 9.25615 303.489 9.01287 290.16 8.95562C289.023 8.69777 287.844 8.45947 286.627 8.24079C295.615 8.08494 304.598 8.00393 313.577 8.02449C350.387 8.09678 387.187 8.76557 423.98 9.70376C439.219 10.0944 454.673 11.3346 469.917 11.0799C470.458 11.0699 471.654 11.1811 472.243 11.1698C472.58 11.1646 472.827 11.105 472.945 11.0594C473.435 10.8605 473.595 10.5035 473.648 10.2238C473.693 10.0055 473.778 9.28994 472.87 8.88741C453.347 0.228408 422.332 3.11072 402.02 2.23494C319.078 -1.34004 236.076 0.826869 153.208 5.22693C120.076 6.98438 87.0273 8.76916 53.9631 11.5748C42.2295 12.5695 30.4805 13.3732 18.8066 14.9467C17.283 15.1553 14.0616 15.3669 11.9977 15.59C11.4421 15.6521 10.9584 15.7231 10.5855 15.7924ZM466.64 8.90393C447.373 2.83537 420.242 5.22963 401.925 4.44044C319.053 0.869953 236.123 3.03247 153.325 7.42816C120.216 9.18709 87.1912 10.9691 54.1495 13.7761C45.7441 14.4863 37.33 15.1031 28.9427 15.9737C40.1434 15.9935 51.3486 15.8676 62.5698 15.6277C64.9049 15.4661 67.224 15.321 69.5188 15.2099C97.7036 13.8334 125.951 12.4963 154.198 11.8225C163.542 11.3221 172.886 10.8084 182.238 10.2996C200.34 8.69113 225.052 6.41344 247.786 6.02287C255.605 5.8903 263.193 5.98181 270.202 6.40386C284.673 6.00718 299.131 5.78659 313.582 5.81765C350.409 5.88665 387.226 6.56093 424.04 7.50047C438.166 7.86037 452.475 8.9573 466.64 8.90393ZM289.94 11.162C281.4 11.1295 272.862 11.1768 264.336 11.3044C260.542 11.3647 256.747 11.4295 252.95 11.503C255.023 11.5016 257.096 11.4959 259.169 11.4857C268.898 11.452 278.651 11.4331 288.38 11.2136C288.863 11.2 289.511 11.2145 290.238 11.234L289.953 11.1673L289.94 11.162ZM342.548 12.3858C338.385 12.1839 334.221 11.9997 330.055 11.8729C319.242 11.5416 308.412 11.3152 297.578 11.2126C297.837 11.3794 297.975 11.5386 298.038 11.6399C298.223 11.9258 298.252 12.2062 298.21 12.4601C298.184 12.6177 298.124 12.8042 297.991 12.9815C312.869 12.9689 327.766 12.9883 342.548 12.3858ZM275.282 8.9771C273.651 8.83394 271.98 8.71033 270.273 8.60663C261.814 8.84018 253.353 9.12676 244.901 9.45813C251.366 9.3193 257.835 9.19845 264.302 9.09958C267.961 9.0439 271.621 9.00166 275.282 8.9771Z" fill="white"/>
</svg>
